<svg width="185" height="97" viewBox="0 0 185 97" fill="none" xmlns="http://www.w3.org/2000/svg">
<path d="M170 89C170 69.374 161.835 50.5518 147.301 36.6741C132.767 22.7964 113.054 15 92.5 15C71.9457 15 52.2333 22.7964 37.6992 36.6741C23.1652 50.5518 15 69.374 15 89" stroke="#6F6C99" stroke-width="30"/>
<path d="M147.232 36.6741C132.705 22.7964 113.003 15 92.4595 15C71.916 15 52.2138 22.7964 37.6874 36.6741C23.1609 50.5518 15 69.374 15 89" stroke="#FF6A00" stroke-width="30"/>
<path d="M77.4473 71.44C76.7139 72.08 76.0606 72.8667 75.4873 73.8C74.9273 74.7333 74.4539 75.7267 74.0673 76.78C73.6939 77.8333 73.4006 78.9 73.1873 79.98C72.9873 81.06 72.8806 82.0667 72.8673 83H69.8273C69.9873 80.9067 70.4739 78.8933 71.2873 76.96C72.1139 75.0267 73.1939 73.2533 74.5273 71.64H67.8873V69H77.4473V71.44ZM83.6205 76.26C84.0072 76.26 84.3405 76.1933 84.6205 76.06C84.9005 75.9133 85.1339 75.72 85.3205 75.48C85.5072 75.24 85.6472 74.9667 85.7405 74.66C85.8339 74.34 85.8805 74.0067 85.8805 73.66C85.8805 73.34 85.8272 73.0267 85.7205 72.72C85.6272 72.4 85.4805 72.12 85.2805 71.88C85.0939 71.6267 84.8605 71.4267 84.5805 71.28C84.3005 71.1333 83.9805 71.06 83.6205 71.06C83.2872 71.06 82.9872 71.1333 82.7205 71.28C82.4539 71.4267 82.2272 71.62 82.0405 71.86C81.8539 72.1 81.7139 72.3733 81.6205 72.68C81.5272 72.9867 81.4805 73.3 81.4805 73.62C81.4805 73.9533 81.5205 74.28 81.6005 74.6C81.6939 74.9067 81.8272 75.1867 82.0005 75.44C82.1739 75.68 82.3939 75.88 82.6605 76.04C82.9405 76.1867 83.2605 76.26 83.6205 76.26ZM81.5805 79.4C81.6739 79.8667 81.8872 80.2733 82.2205 80.62C82.5539 80.9667 82.9672 81.14 83.4605 81.14C83.9805 81.14 84.4072 80.9933 84.7405 80.7C85.0739 80.3933 85.3405 80.0267 85.5405 79.6C85.7405 79.16 85.8805 78.6933 85.9605 78.2C86.0539 77.7067 86.1139 77.2667 86.1405 76.88L86.1005 76.84C85.7139 77.4 85.2605 77.8 84.7405 78.04C84.2205 78.28 83.6205 78.4 82.9405 78.4C82.3405 78.4 81.7539 78.2733 81.1805 78.02C80.6072 77.7533 80.1205 77.4 79.7205 76.96C79.3472 76.5333 79.0739 76.0467 78.9005 75.5C78.7272 74.9533 78.6405 74.4 78.6405 73.84C78.6405 73.12 78.7539 72.4533 78.9805 71.84C79.2205 71.2133 79.5539 70.6733 79.9805 70.22C80.4205 69.7533 80.9405 69.3867 81.5405 69.12C82.1405 68.8533 82.8072 68.72 83.5405 68.72C84.6072 68.72 85.4805 68.9333 86.1605 69.36C86.8539 69.7733 87.4072 70.3267 87.8205 71.02C88.2339 71.7 88.5205 72.4733 88.6805 73.34C88.8405 74.2067 88.9205 75.08 88.9205 75.96C88.9205 76.8267 88.8205 77.6933 88.6205 78.56C88.4205 79.4267 88.1005 80.2133 87.6605 80.92C87.2205 81.6133 86.6539 82.18 85.9605 82.62C85.2672 83.0467 84.4205 83.26 83.4205 83.26C82.8205 83.26 82.2605 83.1733 81.7405 83C81.2205 82.84 80.7605 82.5933 80.3605 82.26C79.9605 81.9267 79.6339 81.52 79.3805 81.04C79.1272 80.56 78.9605 80.0133 78.8805 79.4H81.5805ZM90.5338 79.92H93.6738V83H90.5338V79.92ZM104.9 71.34H99.1202L98.5602 74.52L98.6002 74.56C98.9869 74.1733 99.4002 73.9 99.8402 73.74C100.28 73.5667 100.78 73.48 101.34 73.48C102.034 73.48 102.647 73.6067 103.18 73.86C103.714 74.1133 104.16 74.4533 104.52 74.88C104.894 75.3067 105.174 75.8133 105.36 76.4C105.56 76.9733 105.66 77.5867 105.66 78.24C105.66 78.96 105.52 79.6333 105.24 80.26C104.96 80.8733 104.58 81.4067 104.1 81.86C103.634 82.3133 103.087 82.6667 102.46 82.92C101.834 83.16 101.167 83.2733 100.46 83.26C99.7802 83.26 99.1269 83.1733 98.5002 83C97.8869 82.8133 97.3402 82.5333 96.8602 82.16C96.3802 81.7867 95.9936 81.3267 95.7002 80.78C95.4202 80.22 95.2736 79.5733 95.2602 78.84H98.1002C98.1669 79.48 98.4069 79.9933 98.8202 80.38C99.2336 80.7533 99.7602 80.94 100.4 80.94C100.774 80.94 101.107 80.8667 101.4 80.72C101.707 80.56 101.96 80.36 102.16 80.12C102.374 79.8667 102.534 79.58 102.64 79.26C102.76 78.9267 102.82 78.5867 102.82 78.24C102.82 77.88 102.767 77.54 102.66 77.22C102.554 76.9 102.394 76.62 102.18 76.38C101.967 76.14 101.714 75.9533 101.42 75.82C101.127 75.6867 100.787 75.62 100.4 75.62C99.8936 75.62 99.4802 75.7133 99.1602 75.9C98.8402 76.0733 98.5402 76.3533 98.2602 76.74H95.7002L97.0802 69H104.9V71.34ZM119.874 79.36C119.874 79.5733 119.88 79.82 119.894 80.1C119.907 80.38 119.954 80.6467 120.034 80.9C120.114 81.14 120.24 81.3467 120.414 81.52C120.587 81.6933 120.834 81.78 121.154 81.78C121.46 81.78 121.7 81.6933 121.874 81.52C122.06 81.3467 122.194 81.14 122.274 80.9C122.367 80.6467 122.42 80.3867 122.434 80.12C122.46 79.84 122.474 79.5933 122.474 79.38C122.474 79.18 122.46 78.9467 122.434 78.68C122.42 78.4 122.374 78.14 122.294 77.9C122.214 77.6467 122.087 77.4333 121.914 77.26C121.754 77.0733 121.527 76.98 121.234 76.98C120.914 76.98 120.66 77.06 120.474 77.22C120.3 77.38 120.167 77.58 120.074 77.82C119.98 78.06 119.92 78.32 119.894 78.6C119.88 78.88 119.874 79.1333 119.874 79.36ZM117.834 79.34C117.834 78.7933 117.9 78.2867 118.034 77.82C118.167 77.3533 118.374 76.9467 118.654 76.6C118.934 76.2533 119.287 75.98 119.714 75.78C120.14 75.58 120.647 75.48 121.234 75.48C121.86 75.48 122.38 75.5867 122.794 75.8C123.207 76 123.54 76.28 123.794 76.64C124.06 76.9867 124.247 77.4 124.354 77.88C124.46 78.36 124.514 78.8733 124.514 79.42C124.514 79.9667 124.447 80.4733 124.314 80.94C124.18 81.4067 123.974 81.8133 123.694 82.16C123.427 82.5067 123.08 82.78 122.654 82.98C122.227 83.1667 121.72 83.26 121.134 83.26C120.52 83.26 120 83.16 119.574 82.96C119.16 82.76 118.82 82.4867 118.554 82.14C118.3 81.78 118.114 81.36 117.994 80.88C117.887 80.4 117.834 79.8867 117.834 79.34ZM119.374 68.56H121.074L112.834 83.42H111.094L119.374 68.56ZM109.554 72.72C109.554 72.9333 109.56 73.1733 109.574 73.44C109.587 73.7067 109.634 73.96 109.714 74.2C109.794 74.4267 109.92 74.62 110.094 74.78C110.267 74.94 110.514 75.02 110.834 75.02C111.14 75.02 111.38 74.94 111.554 74.78C111.74 74.62 111.874 74.4267 111.954 74.2C112.047 73.96 112.1 73.7133 112.114 73.46C112.14 73.1933 112.154 72.9533 112.154 72.74C112.154 72.54 112.14 72.3 112.114 72.02C112.1 71.7267 112.054 71.4467 111.974 71.18C111.894 70.9133 111.767 70.6867 111.594 70.5C111.434 70.3133 111.207 70.22 110.914 70.22C110.594 70.22 110.34 70.3067 110.154 70.48C109.98 70.6533 109.847 70.8667 109.754 71.12C109.66 71.3733 109.6 71.6467 109.574 71.94C109.56 72.2333 109.554 72.4933 109.554 72.72ZM107.514 72.68C107.514 72.1333 107.58 71.62 107.714 71.14C107.847 70.66 108.054 70.24 108.334 69.88C108.614 69.52 108.967 69.24 109.394 69.04C109.82 68.8267 110.327 68.72 110.914 68.72C111.54 68.72 112.06 68.8267 112.474 69.04C112.887 69.2533 113.22 69.5467 113.474 69.92C113.74 70.28 113.927 70.7067 114.034 71.2C114.14 71.6933 114.194 72.2133 114.194 72.76C114.194 73.3067 114.127 73.8133 113.994 74.28C113.86 74.7333 113.654 75.1267 113.374 75.46C113.107 75.7933 112.76 76.0533 112.334 76.24C111.907 76.4267 111.4 76.52 110.814 76.52C110.2 76.52 109.68 76.4267 109.254 76.24C108.84 76.04 108.5 75.7733 108.234 75.44C107.98 75.0933 107.794 74.6867 107.674 74.22C107.567 73.74 107.514 73.2267 107.514 72.68Z" fill="white"/>
</svg>
