<svg width="495" height="200" viewBox="0 0 495 200" fill="none" xmlns="http://www.w3.org/2000/svg">
<path d="M3.67975 172.844C5.34775 172.844 6.41575 174.368 6.41575 177.428C6.41575 180.476 5.34775 181.964 3.67975 181.964C1.99975 181.964 0.93175 180.488 0.93175 177.428C0.93175 174.368 1.99975 172.844 3.67975 172.844ZM3.67975 173.72C2.67175 173.72 1.99975 174.836 1.99975 177.428C1.99975 179.996 2.67175 181.076 3.67975 181.076C4.67575 181.076 5.34775 179.996 5.34775 177.428C5.34775 174.836 4.67575 173.72 3.67975 173.72Z" fill="white" fill-opacity="0.6"/>
<rect width="480" height="1" transform="matrix(1 0 0 -1 15 178)" fill="white" fill-opacity="0.4"/>
<path d="M15 15.5H495" stroke="white" stroke-opacity="0.2" stroke-dasharray="2 2"/>
<path d="M15 55.75H495" stroke="white" stroke-opacity="0.2" stroke-dasharray="2 2"/>
<path d="M15 96H495" stroke="white" stroke-opacity="0.2" stroke-dasharray="2 2"/>
<path d="M15 136.25H495" stroke="white" stroke-opacity="0.2" stroke-dasharray="2 2"/>
<rect x="15" y="176" width="480" height="1" fill="white" fill-opacity="0.4"/>
<path d="M41.0096 191.588C40.9816 191.084 41.0329 190.617 41.1636 190.188C41.2942 189.759 41.4949 189.39 41.7656 189.082C42.0456 188.765 42.3909 188.517 42.8016 188.34C43.2122 188.163 43.6789 188.074 44.2016 188.074C44.6309 188.074 45.0322 188.139 45.4056 188.27C45.7882 188.391 46.1196 188.573 46.3996 188.816C46.6796 189.049 46.8989 189.343 47.0576 189.698C47.2256 190.053 47.3096 190.463 47.3096 190.93C47.3096 191.369 47.2396 191.756 47.0996 192.092C46.9689 192.428 46.7916 192.731 46.5676 193.002C46.3436 193.263 46.0869 193.501 45.7976 193.716C45.5082 193.931 45.2096 194.136 44.9016 194.332C44.5936 194.519 44.2856 194.705 43.9776 194.892C43.6696 195.069 43.3849 195.261 43.1236 195.466C42.8716 195.671 42.6522 195.895 42.4656 196.138C42.2882 196.371 42.1716 196.642 42.1156 196.95H47.2116V198H40.7296C40.7762 197.412 40.8789 196.913 41.0376 196.502C41.2056 196.082 41.4156 195.718 41.6676 195.41C41.9196 195.102 42.2042 194.831 42.5216 194.598C42.8389 194.365 43.1702 194.145 43.5156 193.94C43.9356 193.679 44.3042 193.441 44.6216 193.226C44.9389 193.002 45.2002 192.778 45.4056 192.554C45.6202 192.33 45.7789 192.087 45.8816 191.826C45.9936 191.565 46.0496 191.261 46.0496 190.916C46.0496 190.645 45.9982 190.403 45.8956 190.188C45.7929 189.964 45.6529 189.773 45.4756 189.614C45.3076 189.455 45.1069 189.334 44.8736 189.25C44.6402 189.166 44.3929 189.124 44.1316 189.124C43.7862 189.124 43.4876 189.199 43.2356 189.348C42.9929 189.488 42.7922 189.675 42.6336 189.908C42.4749 190.141 42.3582 190.407 42.2836 190.706C42.2182 190.995 42.1902 191.289 42.1996 191.588H41.0096ZM52.9189 194.626V189.768H52.8909L49.5869 194.626H52.9189ZM54.0389 194.626H55.3829V195.676H54.0389V198H52.9189V195.676H48.5649V194.528L53.0869 188.074H54.0389V194.626ZM61.7246 193.114L61.3046 192.19C63.5726 191.882 65.6866 190.51 65.6866 188.956H61.6966V188.032H65.7006V186.478H66.8486V188.032H70.8526V188.956H66.8486C66.8486 190.496 68.9766 191.882 71.2166 192.19L70.8106 193.114C68.8646 192.82 67.0726 191.854 66.2746 190.496C65.4766 191.854 63.6706 192.82 61.7246 193.114ZM71.9586 194.066V195.004H66.8486V199.05H65.7006V195.004H60.6046V194.066H71.9586ZM80.1755 189.74H82.6535V186.492H83.8155V193.968H82.6535V190.678H80.1755V189.74ZM80.8755 192.596L80.3015 193.492C78.9015 192.988 77.8235 191.952 77.2775 190.664C76.7455 192.12 75.5835 193.296 74.1135 193.856L73.5115 192.946C75.3875 192.26 76.6755 190.566 76.6755 188.76V188.326H73.8755V187.402H80.5815V188.326H77.8235V188.76C77.8235 190.37 79.0555 191.952 80.8755 192.596ZM79.6715 198.14C81.5615 198.14 82.7095 197.608 82.7095 196.698C82.7095 195.788 81.5615 195.242 79.6715 195.242C77.7815 195.242 76.6335 195.788 76.6335 196.698C76.6335 197.608 77.7815 198.14 79.6715 198.14ZM79.6715 194.36C82.2475 194.36 83.8575 195.214 83.8575 196.698C83.8575 198.182 82.2475 199.036 79.6715 199.036C77.0955 199.036 75.4855 198.182 75.4855 196.698C75.4855 195.214 77.0955 194.36 79.6715 194.36Z" fill="white" fill-opacity="0.6"/>
<path d="M56.4322 97H55.4122V90.904H53.2042V90.088C53.4922 90.088 53.7722 90.068 54.0442 90.028C54.3162 89.98 54.5602 89.896 54.7762 89.776C55.0002 89.656 55.1882 89.492 55.3402 89.284C55.4922 89.076 55.5962 88.812 55.6522 88.492H56.4322V97ZM60.4121 92.812C60.4121 93.132 60.4201 93.492 60.4361 93.892C60.4601 94.284 60.5241 94.656 60.6281 95.008C60.7401 95.352 60.9161 95.644 61.1561 95.884C61.3961 96.124 61.7321 96.244 62.1641 96.244C62.5961 96.244 62.9321 96.124 63.1721 95.884C63.4121 95.644 63.5841 95.352 63.6881 95.008C63.8001 94.656 63.8641 94.284 63.8801 93.892C63.9041 93.492 63.9161 93.132 63.9161 92.812C63.9161 92.604 63.9121 92.376 63.9041 92.128C63.9041 91.872 63.8841 91.62 63.8441 91.372C63.8121 91.116 63.7601 90.868 63.6881 90.628C63.6241 90.388 63.5241 90.18 63.3881 90.004C63.2601 89.82 63.0961 89.672 62.8961 89.56C62.6961 89.448 62.4521 89.392 62.1641 89.392C61.8761 89.392 61.6321 89.448 61.4321 89.56C61.2321 89.672 61.0641 89.82 60.9281 90.004C60.8001 90.18 60.7001 90.388 60.6281 90.628C60.5641 90.868 60.5121 91.116 60.4721 91.372C60.4401 91.62 60.4201 91.872 60.4121 92.128C60.4121 92.376 60.4121 92.604 60.4121 92.812ZM59.3321 92.824C59.3321 92.512 59.3401 92.188 59.3561 91.852C59.3721 91.516 59.4121 91.188 59.4761 90.868C59.5401 90.548 59.6321 90.244 59.7521 89.956C59.8721 89.668 60.0361 89.416 60.2441 89.2C60.4521 88.984 60.7121 88.812 61.0241 88.684C61.3441 88.556 61.7241 88.492 62.1641 88.492C62.6041 88.492 62.9801 88.556 63.2921 88.684C63.6121 88.812 63.8761 88.984 64.0841 89.2C64.2921 89.416 64.4561 89.668 64.5761 89.956C64.6961 90.244 64.7881 90.548 64.8521 90.868C64.9161 91.188 64.9561 91.516 64.9721 91.852C64.9881 92.188 64.9961 92.512 64.9961 92.824C64.9961 93.136 64.9881 93.46 64.9721 93.796C64.9561 94.132 64.9161 94.46 64.8521 94.78C64.7881 95.1 64.6961 95.404 64.5761 95.692C64.4561 95.972 64.2921 96.22 64.0841 96.436C63.8761 96.652 63.6161 96.824 63.3041 96.952C62.9921 97.072 62.6121 97.132 62.1641 97.132C61.7241 97.132 61.3441 97.072 61.0241 96.952C60.7121 96.824 60.4521 96.652 60.2441 96.436C60.0361 96.22 59.8721 95.972 59.7521 95.692C59.6321 95.404 59.5401 95.1 59.4761 94.78C59.4121 94.46 59.3721 94.132 59.3561 93.796C59.3401 93.46 59.3321 93.136 59.3321 92.824ZM66.4921 95.668H67.8241V96.88C67.8241 97.336 67.7201 97.728 67.5121 98.056C67.3041 98.384 66.9681 98.616 66.5041 98.752V98.152C66.6401 98.104 66.7521 98.032 66.8401 97.936C66.9361 97.848 67.0121 97.748 67.0681 97.636C67.1241 97.532 67.1601 97.424 67.1761 97.312C67.2001 97.2 67.2081 97.096 67.2001 97H66.4921V95.668ZM74.4759 89.536H71.0439L70.5879 91.984L70.6119 92.008C70.7959 91.8 71.0319 91.648 71.3199 91.552C71.6159 91.448 71.9079 91.396 72.1959 91.396C72.5719 91.396 72.9279 91.456 73.2639 91.576C73.5999 91.696 73.8919 91.88 74.1399 92.128C74.3879 92.368 74.5839 92.672 74.7279 93.04C74.8719 93.4 74.9439 93.824 74.9439 94.312C74.9439 94.672 74.8799 95.024 74.7519 95.368C74.6319 95.704 74.4479 96.004 74.1999 96.268C73.9519 96.532 73.6399 96.744 73.2639 96.904C72.8959 97.056 72.4639 97.132 71.9679 97.132C71.5999 97.132 71.2519 97.08 70.9239 96.976C70.6039 96.864 70.3199 96.708 70.0719 96.508C69.8239 96.3 69.6279 96.044 69.4839 95.74C69.3399 95.436 69.2639 95.092 69.2559 94.708H70.2759C70.2919 94.924 70.3439 95.128 70.4319 95.32C70.5279 95.504 70.6519 95.668 70.8039 95.812C70.9639 95.948 71.1479 96.056 71.3559 96.136C71.5719 96.208 71.8079 96.244 72.0639 96.244C72.3039 96.244 72.5319 96.204 72.7479 96.124C72.9719 96.036 73.1639 95.908 73.3239 95.74C73.4919 95.572 73.6239 95.364 73.7199 95.116C73.8159 94.86 73.8639 94.564 73.8639 94.228C73.8639 93.948 73.8159 93.692 73.7199 93.46C73.6319 93.22 73.5039 93.016 73.3359 92.848C73.1679 92.672 72.9639 92.536 72.7239 92.44C72.4919 92.344 72.2319 92.296 71.9439 92.296C71.6079 92.296 71.3079 92.372 71.0439 92.524C70.7879 92.668 70.5599 92.86 70.3599 93.1L69.4839 93.052L70.2759 88.636H74.4759V89.536ZM80.4719 90.664C80.4239 90.28 80.2759 89.972 80.0279 89.74C79.7799 89.508 79.4519 89.392 79.0439 89.392C78.6119 89.392 78.2639 89.5 77.9999 89.716C77.7359 89.924 77.5279 90.192 77.3759 90.52C77.2319 90.84 77.1319 91.188 77.0759 91.564C77.0199 91.94 76.9879 92.292 76.9799 92.62L77.0039 92.644C77.2439 92.252 77.5399 91.968 77.8919 91.792C78.2519 91.616 78.6639 91.528 79.1279 91.528C79.5359 91.528 79.8999 91.6 80.2199 91.744C80.5479 91.88 80.8199 92.072 81.0359 92.32C81.2599 92.568 81.4319 92.86 81.5519 93.196C81.6719 93.532 81.7319 93.896 81.7319 94.288C81.7319 94.6 81.6839 94.924 81.5879 95.26C81.4919 95.596 81.3319 95.904 81.1079 96.184C80.8919 96.456 80.5999 96.684 80.2319 96.868C79.8719 97.044 79.4239 97.132 78.8879 97.132C78.2559 97.132 77.7479 97.004 77.3639 96.748C76.9799 96.492 76.6839 96.164 76.4759 95.764C76.2679 95.364 76.1279 94.924 76.0559 94.444C75.9919 93.964 75.9599 93.5 75.9599 93.052C75.9599 92.468 76.0079 91.904 76.1039 91.36C76.2079 90.808 76.3799 90.32 76.6199 89.896C76.8599 89.472 77.1799 89.132 77.5799 88.876C77.9799 88.62 78.4839 88.492 79.0919 88.492C79.7959 88.492 80.3559 88.68 80.7719 89.056C81.1879 89.424 81.4279 89.96 81.4919 90.664H80.4719ZM78.9359 92.428C78.6479 92.428 78.3959 92.48 78.1799 92.584C77.9639 92.68 77.7799 92.816 77.6279 92.992C77.4759 93.16 77.3599 93.364 77.2799 93.604C77.2079 93.836 77.1719 94.084 77.1719 94.348C77.1719 94.612 77.2119 94.86 77.2919 95.092C77.3719 95.324 77.4839 95.524 77.6279 95.692C77.7799 95.86 77.9639 95.996 78.1799 96.1C78.4039 96.196 78.6559 96.244 78.9359 96.244C79.2159 96.244 79.4599 96.196 79.6679 96.1C79.8839 95.996 80.0639 95.856 80.2079 95.68C80.3519 95.504 80.4599 95.304 80.5319 95.08C80.6119 94.848 80.6519 94.608 80.6519 94.36C80.6519 94.096 80.6159 93.848 80.5439 93.616C80.4799 93.376 80.3759 93.172 80.2319 93.004C80.0879 92.828 79.9079 92.688 79.6919 92.584C79.4759 92.48 79.2239 92.428 78.9359 92.428ZM84.7879 92.14C84.8279 92.148 84.8639 92.152 84.8959 92.152C84.9359 92.152 84.9759 92.152 85.0159 92.152H85.2319C85.4479 92.152 85.6519 92.124 85.8439 92.068C86.0439 92.004 86.2159 91.916 86.3599 91.804C86.5119 91.684 86.6319 91.536 86.7199 91.36C86.8079 91.184 86.8519 90.984 86.8519 90.76C86.8519 90.304 86.7079 89.964 86.4199 89.74C86.1319 89.508 85.7719 89.392 85.3399 89.392C85.0679 89.392 84.8279 89.444 84.6199 89.548C84.4199 89.644 84.2519 89.776 84.1159 89.944C83.9879 90.112 83.8919 90.308 83.8279 90.532C83.7639 90.756 83.7319 90.992 83.7319 91.24H82.7119C82.7279 90.832 82.7919 90.46 82.9039 90.124C83.0239 89.788 83.1919 89.5 83.4079 89.26C83.6239 89.02 83.8919 88.832 84.2119 88.696C84.5399 88.56 84.9159 88.492 85.3399 88.492C85.7079 88.492 86.0479 88.54 86.3599 88.636C86.6799 88.724 86.9559 88.86 87.1879 89.044C87.4199 89.228 87.5999 89.464 87.7279 89.752C87.8639 90.04 87.9319 90.38 87.9319 90.772C87.9319 91.156 87.8199 91.496 87.5959 91.792C87.3719 92.088 87.0919 92.312 86.7559 92.464V92.488C87.2759 92.6 87.6599 92.844 87.9079 93.22C88.1639 93.596 88.2919 94.04 88.2919 94.552C88.2919 94.976 88.2119 95.352 88.0519 95.68C87.8999 96 87.6919 96.268 87.4279 96.484C87.1639 96.7 86.8519 96.864 86.4919 96.976C86.1399 97.08 85.7639 97.132 85.3639 97.132C84.9319 97.132 84.5399 97.072 84.1879 96.952C83.8359 96.832 83.5359 96.656 83.2879 96.424C83.0399 96.184 82.8479 95.892 82.7119 95.548C82.5839 95.204 82.5239 94.812 82.5319 94.372H83.5519C83.5679 94.924 83.7279 95.376 84.0319 95.728C84.3359 96.072 84.7799 96.244 85.3639 96.244C85.6119 96.244 85.8479 96.208 86.0719 96.136C86.2959 96.056 86.4919 95.948 86.6599 95.812C86.8279 95.668 86.9599 95.496 87.0559 95.296C87.1599 95.088 87.2119 94.856 87.2119 94.6C87.2119 94.336 87.1639 94.104 87.0679 93.904C86.9719 93.696 86.8439 93.524 86.6839 93.388C86.5239 93.244 86.3319 93.14 86.1079 93.076C85.8919 93.004 85.6559 92.968 85.3999 92.968C85.1839 92.968 84.9799 92.98 84.7879 93.004V92.14Z" fill="white" fill-opacity="0.6"/>
<rect x="55" y="108" width="30" height="68.9999" fill="#D9D9D9"/>
<path d="M109.074 193.87H112.462L110.796 189.208H110.768L109.074 193.87ZM110.068 188.004H111.538L115.444 198H113.974L112.882 194.99H108.654L107.534 198H106.176L110.068 188.004ZM116.962 195.718C116.971 195.979 117.032 196.203 117.144 196.39C117.256 196.567 117.401 196.712 117.578 196.824C117.765 196.927 117.97 197.001 118.194 197.048C118.427 197.095 118.665 197.118 118.908 197.118C119.095 197.118 119.291 197.104 119.496 197.076C119.701 197.048 119.888 196.997 120.056 196.922C120.233 196.847 120.378 196.74 120.49 196.6C120.602 196.451 120.658 196.264 120.658 196.04C120.658 195.732 120.541 195.499 120.308 195.34C120.075 195.181 119.781 195.055 119.426 194.962C119.081 194.859 118.703 194.771 118.292 194.696C117.881 194.612 117.499 194.5 117.144 194.36C116.799 194.211 116.509 194.005 116.276 193.744C116.043 193.483 115.926 193.119 115.926 192.652C115.926 192.288 116.005 191.975 116.164 191.714C116.332 191.453 116.542 191.243 116.794 191.084C117.055 190.916 117.345 190.795 117.662 190.72C117.989 190.636 118.311 190.594 118.628 190.594C119.039 190.594 119.417 190.631 119.762 190.706C120.107 190.771 120.411 190.893 120.672 191.07C120.943 191.238 121.157 191.471 121.316 191.77C121.475 192.059 121.568 192.423 121.596 192.862H120.406C120.387 192.629 120.327 192.437 120.224 192.288C120.121 192.129 119.991 192.003 119.832 191.91C119.673 191.817 119.496 191.751 119.3 191.714C119.113 191.667 118.922 191.644 118.726 191.644C118.549 191.644 118.367 191.658 118.18 191.686C118.003 191.714 117.839 191.765 117.69 191.84C117.541 191.905 117.419 191.999 117.326 192.12C117.233 192.232 117.186 192.381 117.186 192.568C117.186 192.773 117.256 192.946 117.396 193.086C117.545 193.217 117.732 193.329 117.956 193.422C118.18 193.506 118.432 193.581 118.712 193.646C118.992 193.702 119.272 193.763 119.552 193.828C119.851 193.893 120.14 193.973 120.42 194.066C120.709 194.159 120.961 194.285 121.176 194.444C121.4 194.593 121.577 194.785 121.708 195.018C121.848 195.251 121.918 195.541 121.918 195.886C121.918 196.325 121.825 196.689 121.638 196.978C121.461 197.267 121.223 197.501 120.924 197.678C120.635 197.855 120.303 197.977 119.93 198.042C119.566 198.117 119.202 198.154 118.838 198.154C118.437 198.154 118.054 198.112 117.69 198.028C117.326 197.944 117.004 197.809 116.724 197.622C116.444 197.426 116.22 197.174 116.052 196.866C115.884 196.549 115.791 196.166 115.772 195.718H116.962ZM124.494 189.46H123.304V188.004H124.494V189.46ZM123.304 190.762H124.494V198H123.304V190.762ZM132.749 197.972C132.544 198.093 132.259 198.154 131.895 198.154C131.587 198.154 131.34 198.07 131.153 197.902C130.976 197.725 130.887 197.44 130.887 197.048C130.561 197.44 130.178 197.725 129.739 197.902C129.31 198.07 128.843 198.154 128.339 198.154C128.013 198.154 127.7 198.117 127.401 198.042C127.112 197.967 126.86 197.851 126.645 197.692C126.431 197.533 126.258 197.328 126.127 197.076C126.006 196.815 125.945 196.502 125.945 196.138C125.945 195.727 126.015 195.391 126.155 195.13C126.295 194.869 126.477 194.659 126.701 194.5C126.935 194.332 127.196 194.206 127.485 194.122C127.784 194.038 128.087 193.968 128.395 193.912C128.722 193.847 129.03 193.8 129.319 193.772C129.618 193.735 129.879 193.688 130.103 193.632C130.327 193.567 130.505 193.478 130.635 193.366C130.766 193.245 130.831 193.072 130.831 192.848C130.831 192.587 130.78 192.377 130.677 192.218C130.584 192.059 130.458 191.938 130.299 191.854C130.15 191.77 129.977 191.714 129.781 191.686C129.595 191.658 129.408 191.644 129.221 191.644C128.717 191.644 128.297 191.742 127.961 191.938C127.625 192.125 127.443 192.484 127.415 193.016H126.225C126.244 192.568 126.337 192.19 126.505 191.882C126.673 191.574 126.897 191.327 127.177 191.14C127.457 190.944 127.775 190.804 128.129 190.72C128.493 190.636 128.881 190.594 129.291 190.594C129.618 190.594 129.94 190.617 130.257 190.664C130.584 190.711 130.878 190.809 131.139 190.958C131.401 191.098 131.611 191.299 131.769 191.56C131.928 191.821 132.007 192.162 132.007 192.582V196.306C132.007 196.586 132.021 196.791 132.049 196.922C132.087 197.053 132.199 197.118 132.385 197.118C132.488 197.118 132.609 197.095 132.749 197.048V197.972ZM130.817 194.262C130.668 194.374 130.472 194.458 130.229 194.514C129.987 194.561 129.73 194.603 129.459 194.64C129.198 194.668 128.932 194.705 128.661 194.752C128.391 194.789 128.148 194.855 127.933 194.948C127.719 195.041 127.541 195.177 127.401 195.354C127.271 195.522 127.205 195.755 127.205 196.054C127.205 196.25 127.243 196.418 127.317 196.558C127.401 196.689 127.504 196.796 127.625 196.88C127.756 196.964 127.905 197.025 128.073 197.062C128.241 197.099 128.419 197.118 128.605 197.118C128.997 197.118 129.333 197.067 129.613 196.964C129.893 196.852 130.122 196.717 130.299 196.558C130.477 196.39 130.607 196.213 130.691 196.026C130.775 195.83 130.817 195.648 130.817 195.48V194.262ZM132.961 199.036H139.961V199.736H132.961V199.036ZM144.945 198H143.755V190.888H141.179V189.936C141.515 189.936 141.842 189.913 142.159 189.866C142.476 189.81 142.761 189.712 143.013 189.572C143.274 189.432 143.494 189.241 143.671 188.998C143.848 188.755 143.97 188.447 144.035 188.074H144.945V198Z" fill="white" fill-opacity="0.6"/>
<rect x="119" y="82" width="30" height="24.9999" fill="#1F5CFA"/>
<path d="M130.138 65.536H126.706L126.25 67.984L126.274 68.008C126.458 67.8 126.694 67.648 126.982 67.552C127.278 67.448 127.57 67.396 127.858 67.396C128.234 67.396 128.59 67.456 128.926 67.576C129.262 67.696 129.554 67.88 129.802 68.128C130.05 68.368 130.246 68.672 130.39 69.04C130.534 69.4 130.606 69.824 130.606 70.312C130.606 70.672 130.542 71.024 130.414 71.368C130.294 71.704 130.11 72.004 129.862 72.268C129.614 72.532 129.302 72.744 128.926 72.904C128.558 73.056 128.126 73.132 127.63 73.132C127.262 73.132 126.914 73.08 126.586 72.976C126.266 72.864 125.982 72.708 125.734 72.508C125.486 72.3 125.29 72.044 125.146 71.74C125.002 71.436 124.926 71.092 124.918 70.708H125.938C125.954 70.924 126.006 71.128 126.094 71.32C126.19 71.504 126.314 71.668 126.466 71.812C126.626 71.948 126.81 72.056 127.018 72.136C127.234 72.208 127.47 72.244 127.726 72.244C127.966 72.244 128.194 72.204 128.41 72.124C128.634 72.036 128.826 71.908 128.986 71.74C129.154 71.572 129.286 71.364 129.382 71.116C129.478 70.86 129.526 70.564 129.526 70.228C129.526 69.948 129.478 69.692 129.382 69.46C129.294 69.22 129.166 69.016 128.998 68.848C128.83 68.672 128.626 68.536 128.386 68.44C128.154 68.344 127.894 68.296 127.606 68.296C127.27 68.296 126.97 68.372 126.706 68.524C126.45 68.668 126.222 68.86 126.022 69.1L125.146 69.052L125.938 64.636H130.138V65.536ZM136.806 65.536H133.374L132.918 67.984L132.942 68.008C133.126 67.8 133.362 67.648 133.65 67.552C133.946 67.448 134.238 67.396 134.526 67.396C134.902 67.396 135.258 67.456 135.594 67.576C135.93 67.696 136.222 67.88 136.47 68.128C136.718 68.368 136.914 68.672 137.058 69.04C137.202 69.4 137.274 69.824 137.274 70.312C137.274 70.672 137.21 71.024 137.082 71.368C136.962 71.704 136.778 72.004 136.53 72.268C136.282 72.532 135.97 72.744 135.594 72.904C135.226 73.056 134.794 73.132 134.298 73.132C133.93 73.132 133.582 73.08 133.254 72.976C132.934 72.864 132.65 72.708 132.402 72.508C132.154 72.3 131.958 72.044 131.814 71.74C131.67 71.436 131.594 71.092 131.586 70.708H132.606C132.622 70.924 132.674 71.128 132.762 71.32C132.858 71.504 132.982 71.668 133.134 71.812C133.294 71.948 133.478 72.056 133.686 72.136C133.902 72.208 134.138 72.244 134.394 72.244C134.634 72.244 134.862 72.204 135.078 72.124C135.302 72.036 135.494 71.908 135.654 71.74C135.822 71.572 135.954 71.364 136.05 71.116C136.146 70.86 136.194 70.564 136.194 70.228C136.194 69.948 136.146 69.692 136.05 69.46C135.962 69.22 135.834 69.016 135.666 68.848C135.498 68.672 135.294 68.536 135.054 68.44C134.822 68.344 134.562 68.296 134.274 68.296C133.938 68.296 133.638 68.372 133.374 68.524C133.118 68.668 132.89 68.86 132.69 69.1L131.814 69.052L132.606 64.636H136.806V65.536ZM140.45 68.14C140.49 68.148 140.526 68.152 140.558 68.152C140.598 68.152 140.638 68.152 140.678 68.152H140.894C141.11 68.152 141.314 68.124 141.506 68.068C141.706 68.004 141.878 67.916 142.022 67.804C142.174 67.684 142.294 67.536 142.382 67.36C142.47 67.184 142.514 66.984 142.514 66.76C142.514 66.304 142.37 65.964 142.082 65.74C141.794 65.508 141.434 65.392 141.002 65.392C140.73 65.392 140.49 65.444 140.282 65.548C140.082 65.644 139.914 65.776 139.778 65.944C139.65 66.112 139.554 66.308 139.49 66.532C139.426 66.756 139.394 66.992 139.394 67.24H138.374C138.39 66.832 138.454 66.46 138.566 66.124C138.686 65.788 138.854 65.5 139.07 65.26C139.286 65.02 139.554 64.832 139.874 64.696C140.202 64.56 140.578 64.492 141.002 64.492C141.37 64.492 141.71 64.54 142.022 64.636C142.342 64.724 142.618 64.86 142.85 65.044C143.082 65.228 143.262 65.464 143.39 65.752C143.526 66.04 143.594 66.38 143.594 66.772C143.594 67.156 143.482 67.496 143.258 67.792C143.034 68.088 142.754 68.312 142.418 68.464V68.488C142.938 68.6 143.322 68.844 143.57 69.22C143.826 69.596 143.954 70.04 143.954 70.552C143.954 70.976 143.874 71.352 143.714 71.68C143.562 72 143.354 72.268 143.09 72.484C142.826 72.7 142.514 72.864 142.154 72.976C141.802 73.08 141.426 73.132 141.026 73.132C140.594 73.132 140.202 73.072 139.85 72.952C139.498 72.832 139.198 72.656 138.95 72.424C138.702 72.184 138.51 71.892 138.374 71.548C138.246 71.204 138.186 70.812 138.194 70.372H139.214C139.23 70.924 139.39 71.376 139.694 71.728C139.998 72.072 140.442 72.244 141.026 72.244C141.274 72.244 141.51 72.208 141.734 72.136C141.958 72.056 142.154 71.948 142.322 71.812C142.49 71.668 142.622 71.496 142.718 71.296C142.822 71.088 142.874 70.856 142.874 70.6C142.874 70.336 142.826 70.104 142.73 69.904C142.634 69.696 142.506 69.524 142.346 69.388C142.186 69.244 141.994 69.14 141.77 69.076C141.554 69.004 141.318 68.968 141.062 68.968C140.846 68.968 140.642 68.98 140.45 69.004V68.14Z" fill="white" fill-opacity="0.6"/>
<path d="M173.074 193.87H176.462L174.796 189.208H174.768L173.074 193.87ZM174.068 188.004H175.538L179.444 198H177.974L176.882 194.99H172.654L171.534 198H170.176L174.068 188.004ZM180.962 195.718C180.971 195.979 181.032 196.203 181.144 196.39C181.256 196.567 181.401 196.712 181.578 196.824C181.765 196.927 181.97 197.001 182.194 197.048C182.427 197.095 182.665 197.118 182.908 197.118C183.095 197.118 183.291 197.104 183.496 197.076C183.701 197.048 183.888 196.997 184.056 196.922C184.233 196.847 184.378 196.74 184.49 196.6C184.602 196.451 184.658 196.264 184.658 196.04C184.658 195.732 184.541 195.499 184.308 195.34C184.075 195.181 183.781 195.055 183.426 194.962C183.081 194.859 182.703 194.771 182.292 194.696C181.881 194.612 181.499 194.5 181.144 194.36C180.799 194.211 180.509 194.005 180.276 193.744C180.043 193.483 179.926 193.119 179.926 192.652C179.926 192.288 180.005 191.975 180.164 191.714C180.332 191.453 180.542 191.243 180.794 191.084C181.055 190.916 181.345 190.795 181.662 190.72C181.989 190.636 182.311 190.594 182.628 190.594C183.039 190.594 183.417 190.631 183.762 190.706C184.107 190.771 184.411 190.893 184.672 191.07C184.943 191.238 185.157 191.471 185.316 191.77C185.475 192.059 185.568 192.423 185.596 192.862H184.406C184.387 192.629 184.327 192.437 184.224 192.288C184.121 192.129 183.991 192.003 183.832 191.91C183.673 191.817 183.496 191.751 183.3 191.714C183.113 191.667 182.922 191.644 182.726 191.644C182.549 191.644 182.367 191.658 182.18 191.686C182.003 191.714 181.839 191.765 181.69 191.84C181.541 191.905 181.419 191.999 181.326 192.12C181.233 192.232 181.186 192.381 181.186 192.568C181.186 192.773 181.256 192.946 181.396 193.086C181.545 193.217 181.732 193.329 181.956 193.422C182.18 193.506 182.432 193.581 182.712 193.646C182.992 193.702 183.272 193.763 183.552 193.828C183.851 193.893 184.14 193.973 184.42 194.066C184.709 194.159 184.961 194.285 185.176 194.444C185.4 194.593 185.577 194.785 185.708 195.018C185.848 195.251 185.918 195.541 185.918 195.886C185.918 196.325 185.825 196.689 185.638 196.978C185.461 197.267 185.223 197.501 184.924 197.678C184.635 197.855 184.303 197.977 183.93 198.042C183.566 198.117 183.202 198.154 182.838 198.154C182.437 198.154 182.054 198.112 181.69 198.028C181.326 197.944 181.004 197.809 180.724 197.622C180.444 197.426 180.22 197.174 180.052 196.866C179.884 196.549 179.791 196.166 179.772 195.718H180.962ZM188.494 189.46H187.304V188.004H188.494V189.46ZM187.304 190.762H188.494V198H187.304V190.762ZM196.749 197.972C196.544 198.093 196.259 198.154 195.895 198.154C195.587 198.154 195.34 198.07 195.153 197.902C194.976 197.725 194.887 197.44 194.887 197.048C194.561 197.44 194.178 197.725 193.739 197.902C193.31 198.07 192.843 198.154 192.339 198.154C192.013 198.154 191.7 198.117 191.401 198.042C191.112 197.967 190.86 197.851 190.645 197.692C190.431 197.533 190.258 197.328 190.127 197.076C190.006 196.815 189.945 196.502 189.945 196.138C189.945 195.727 190.015 195.391 190.155 195.13C190.295 194.869 190.477 194.659 190.701 194.5C190.935 194.332 191.196 194.206 191.485 194.122C191.784 194.038 192.087 193.968 192.395 193.912C192.722 193.847 193.03 193.8 193.319 193.772C193.618 193.735 193.879 193.688 194.103 193.632C194.327 193.567 194.505 193.478 194.635 193.366C194.766 193.245 194.831 193.072 194.831 192.848C194.831 192.587 194.78 192.377 194.677 192.218C194.584 192.059 194.458 191.938 194.299 191.854C194.15 191.77 193.977 191.714 193.781 191.686C193.595 191.658 193.408 191.644 193.221 191.644C192.717 191.644 192.297 191.742 191.961 191.938C191.625 192.125 191.443 192.484 191.415 193.016H190.225C190.244 192.568 190.337 192.19 190.505 191.882C190.673 191.574 190.897 191.327 191.177 191.14C191.457 190.944 191.775 190.804 192.129 190.72C192.493 190.636 192.881 190.594 193.291 190.594C193.618 190.594 193.94 190.617 194.257 190.664C194.584 190.711 194.878 190.809 195.139 190.958C195.401 191.098 195.611 191.299 195.769 191.56C195.928 191.821 196.007 192.162 196.007 192.582V196.306C196.007 196.586 196.021 196.791 196.049 196.922C196.087 197.053 196.199 197.118 196.385 197.118C196.488 197.118 196.609 197.095 196.749 197.048V197.972ZM194.817 194.262C194.668 194.374 194.472 194.458 194.229 194.514C193.987 194.561 193.73 194.603 193.459 194.64C193.198 194.668 192.932 194.705 192.661 194.752C192.391 194.789 192.148 194.855 191.933 194.948C191.719 195.041 191.541 195.177 191.401 195.354C191.271 195.522 191.205 195.755 191.205 196.054C191.205 196.25 191.243 196.418 191.317 196.558C191.401 196.689 191.504 196.796 191.625 196.88C191.756 196.964 191.905 197.025 192.073 197.062C192.241 197.099 192.419 197.118 192.605 197.118C192.997 197.118 193.333 197.067 193.613 196.964C193.893 196.852 194.122 196.717 194.299 196.558C194.477 196.39 194.607 196.213 194.691 196.026C194.775 195.83 194.817 195.648 194.817 195.48V194.262ZM196.961 199.036H203.961V199.736H196.961V199.036ZM204.577 191.588C204.549 191.084 204.6 190.617 204.731 190.188C204.862 189.759 205.062 189.39 205.333 189.082C205.613 188.765 205.958 188.517 206.369 188.34C206.78 188.163 207.246 188.074 207.769 188.074C208.198 188.074 208.6 188.139 208.973 188.27C209.356 188.391 209.687 188.573 209.967 188.816C210.247 189.049 210.466 189.343 210.625 189.698C210.793 190.053 210.877 190.463 210.877 190.93C210.877 191.369 210.807 191.756 210.667 192.092C210.536 192.428 210.359 192.731 210.135 193.002C209.911 193.263 209.654 193.501 209.365 193.716C209.076 193.931 208.777 194.136 208.469 194.332C208.161 194.519 207.853 194.705 207.545 194.892C207.237 195.069 206.952 195.261 206.691 195.466C206.439 195.671 206.22 195.895 206.033 196.138C205.856 196.371 205.739 196.642 205.683 196.95H210.779V198H204.297C204.344 197.412 204.446 196.913 204.605 196.502C204.773 196.082 204.983 195.718 205.235 195.41C205.487 195.102 205.772 194.831 206.089 194.598C206.406 194.365 206.738 194.145 207.083 193.94C207.503 193.679 207.872 193.441 208.189 193.226C208.506 193.002 208.768 192.778 208.973 192.554C209.188 192.33 209.346 192.087 209.449 191.826C209.561 191.565 209.617 191.261 209.617 190.916C209.617 190.645 209.566 190.403 209.463 190.188C209.36 189.964 209.22 189.773 209.043 189.614C208.875 189.455 208.674 189.334 208.441 189.25C208.208 189.166 207.96 189.124 207.699 189.124C207.354 189.124 207.055 189.199 206.803 189.348C206.56 189.488 206.36 189.675 206.201 189.908C206.042 190.141 205.926 190.407 205.851 190.706C205.786 190.995 205.758 191.289 205.767 191.588H204.577Z" fill="white" fill-opacity="0.6"/>
<path d="M183.766 108.184H187.234V109.144H183.766V108.184ZM192.102 112H191.082V105.904H188.874V105.088C189.162 105.088 189.442 105.068 189.714 105.028C189.986 104.98 190.23 104.896 190.446 104.776C190.67 104.656 190.858 104.492 191.01 104.284C191.162 104.076 191.266 103.812 191.322 103.492H192.102V112ZM196.358 105.7C196.358 105.932 196.398 106.136 196.478 106.312C196.558 106.48 196.666 106.62 196.802 106.732C196.938 106.844 197.098 106.928 197.282 106.984C197.466 107.04 197.662 107.068 197.87 107.068C198.278 107.068 198.614 106.948 198.878 106.708C199.142 106.468 199.274 106.132 199.274 105.7C199.274 105.268 199.138 104.944 198.866 104.728C198.602 104.504 198.262 104.392 197.846 104.392C197.646 104.392 197.454 104.42 197.27 104.476C197.086 104.532 196.926 104.616 196.79 104.728C196.662 104.84 196.558 104.976 196.478 105.136C196.398 105.296 196.358 105.484 196.358 105.7ZM195.278 105.664C195.278 105.312 195.346 105.004 195.482 104.74C195.618 104.468 195.802 104.24 196.034 104.056C196.266 103.872 196.53 103.732 196.826 103.636C197.13 103.54 197.446 103.492 197.774 103.492C198.238 103.492 198.634 103.556 198.962 103.684C199.29 103.804 199.554 103.968 199.754 104.176C199.962 104.376 200.114 104.608 200.21 104.872C200.306 105.128 200.354 105.392 200.354 105.664C200.354 106.048 200.246 106.4 200.03 106.72C199.822 107.032 199.538 107.268 199.178 107.428C199.69 107.588 200.07 107.852 200.318 108.22C200.566 108.58 200.69 109.024 200.69 109.552C200.69 109.968 200.614 110.336 200.462 110.656C200.318 110.976 200.118 111.248 199.862 111.472C199.614 111.688 199.318 111.852 198.974 111.964C198.63 112.076 198.262 112.132 197.87 112.132C197.462 112.132 197.082 112.08 196.73 111.976C196.378 111.872 196.07 111.712 195.806 111.496C195.55 111.28 195.346 111.012 195.194 110.692C195.05 110.364 194.978 109.984 194.978 109.552C194.978 109.048 195.106 108.612 195.362 108.244C195.618 107.868 195.986 107.596 196.466 107.428C196.106 107.284 195.818 107.052 195.602 106.732C195.386 106.404 195.278 106.048 195.278 105.664ZM196.058 109.6C196.058 110.112 196.226 110.516 196.562 110.812C196.906 111.1 197.342 111.244 197.87 111.244C198.126 111.244 198.358 111.204 198.566 111.124C198.782 111.036 198.966 110.92 199.118 110.776C199.278 110.624 199.398 110.448 199.478 110.248C199.566 110.048 199.61 109.828 199.61 109.588C199.61 109.356 199.562 109.144 199.466 108.952C199.378 108.752 199.254 108.58 199.094 108.436C198.934 108.292 198.746 108.18 198.53 108.1C198.322 108.012 198.098 107.968 197.858 107.968C197.61 107.968 197.374 108.008 197.15 108.088C196.934 108.16 196.742 108.268 196.574 108.412C196.414 108.556 196.286 108.728 196.19 108.928C196.102 109.128 196.058 109.352 196.058 109.6ZM203.026 105.7C203.026 105.932 203.066 106.136 203.146 106.312C203.226 106.48 203.334 106.62 203.47 106.732C203.606 106.844 203.766 106.928 203.95 106.984C204.134 107.04 204.33 107.068 204.538 107.068C204.946 107.068 205.282 106.948 205.546 106.708C205.81 106.468 205.942 106.132 205.942 105.7C205.942 105.268 205.806 104.944 205.534 104.728C205.27 104.504 204.93 104.392 204.514 104.392C204.314 104.392 204.122 104.42 203.938 104.476C203.754 104.532 203.594 104.616 203.458 104.728C203.33 104.84 203.226 104.976 203.146 105.136C203.066 105.296 203.026 105.484 203.026 105.7ZM201.946 105.664C201.946 105.312 202.014 105.004 202.15 104.74C202.286 104.468 202.47 104.24 202.702 104.056C202.934 103.872 203.198 103.732 203.494 103.636C203.798 103.54 204.114 103.492 204.442 103.492C204.906 103.492 205.302 103.556 205.63 103.684C205.958 103.804 206.222 103.968 206.422 104.176C206.63 104.376 206.782 104.608 206.878 104.872C206.974 105.128 207.022 105.392 207.022 105.664C207.022 106.048 206.914 106.4 206.698 106.72C206.49 107.032 206.206 107.268 205.846 107.428C206.358 107.588 206.738 107.852 206.986 108.22C207.234 108.58 207.358 109.024 207.358 109.552C207.358 109.968 207.282 110.336 207.13 110.656C206.986 110.976 206.786 111.248 206.53 111.472C206.282 111.688 205.986 111.852 205.642 111.964C205.298 112.076 204.93 112.132 204.538 112.132C204.13 112.132 203.75 112.08 203.398 111.976C203.046 111.872 202.738 111.712 202.474 111.496C202.218 111.28 202.014 111.012 201.862 110.692C201.718 110.364 201.646 109.984 201.646 109.552C201.646 109.048 201.774 108.612 202.03 108.244C202.286 107.868 202.654 107.596 203.134 107.428C202.774 107.284 202.486 107.052 202.27 106.732C202.054 106.404 201.946 106.048 201.946 105.664ZM202.726 109.6C202.726 110.112 202.894 110.516 203.23 110.812C203.574 111.1 204.01 111.244 204.538 111.244C204.794 111.244 205.026 111.204 205.234 111.124C205.45 111.036 205.634 110.92 205.786 110.776C205.946 110.624 206.066 110.448 206.146 110.248C206.234 110.048 206.278 109.828 206.278 109.588C206.278 109.356 206.23 109.144 206.134 108.952C206.046 108.752 205.922 108.58 205.762 108.436C205.602 108.292 205.414 108.18 205.198 108.1C204.99 108.012 204.766 107.968 204.526 107.968C204.278 107.968 204.042 108.008 203.818 108.088C203.602 108.16 203.41 108.268 203.242 108.412C203.082 108.556 202.954 108.728 202.858 108.928C202.77 109.128 202.726 109.352 202.726 109.6Z" fill="white" fill-opacity="0.6"/>
<rect x="183" y="82" width="30" height="12.2374" fill="#D80101"/>
<path d="M248.519 187.906C246.615 187.906 245.313 188.606 245.313 189.712C245.313 190.818 246.615 191.532 248.519 191.532C250.437 191.532 251.739 190.818 251.739 189.712C251.739 188.606 250.437 187.906 248.519 187.906ZM248.519 192.456C245.915 192.456 244.137 191.392 244.137 189.712C244.137 188.032 245.915 186.982 248.519 186.982C251.137 186.982 252.915 188.032 252.915 189.712C252.915 191.392 251.137 192.456 248.519 192.456ZM254.231 193.632V194.57H251.263V199.036H250.101V194.57H246.951V199.036H245.789V194.57H242.863V193.632H254.231ZM262.826 191.756L262.924 192.694C260.978 193.002 259.382 193.044 257.226 193.044H256.274V189.53H260.684V187.934H256.232V186.996H261.804V190.412H257.394V192.106C259.424 192.106 260.964 192.05 262.826 191.756ZM264.954 197.93V196.39H259.046V197.93H264.954ZM264.954 195.48V193.982H266.088V198.868H257.898V193.982H259.046V195.48H264.954ZM264.926 186.492H266.088V193.394H264.926V190.02H262.602V189.096H264.926V186.492Z" fill="white" fill-opacity="0.6"/>
<rect x="247" y="74" width="30" height="19.9999" fill="#1F5CFA"/>
<path d="M253.114 66.14C253.154 66.148 253.19 66.152 253.222 66.152C253.262 66.152 253.302 66.152 253.342 66.152H253.558C253.774 66.152 253.978 66.124 254.17 66.068C254.37 66.004 254.542 65.916 254.686 65.804C254.838 65.684 254.958 65.536 255.046 65.36C255.134 65.184 255.178 64.984 255.178 64.76C255.178 64.304 255.034 63.964 254.746 63.74C254.458 63.508 254.098 63.392 253.666 63.392C253.394 63.392 253.154 63.444 252.946 63.548C252.746 63.644 252.578 63.776 252.442 63.944C252.314 64.112 252.218 64.308 252.154 64.532C252.09 64.756 252.058 64.992 252.058 65.24H251.038C251.054 64.832 251.118 64.46 251.23 64.124C251.35 63.788 251.518 63.5 251.734 63.26C251.95 63.02 252.218 62.832 252.538 62.696C252.866 62.56 253.242 62.492 253.666 62.492C254.034 62.492 254.374 62.54 254.686 62.636C255.006 62.724 255.282 62.86 255.514 63.044C255.746 63.228 255.926 63.464 256.054 63.752C256.19 64.04 256.258 64.38 256.258 64.772C256.258 65.156 256.146 65.496 255.922 65.792C255.698 66.088 255.418 66.312 255.082 66.464V66.488C255.602 66.6 255.986 66.844 256.234 67.22C256.49 67.596 256.618 68.04 256.618 68.552C256.618 68.976 256.538 69.352 256.378 69.68C256.226 70 256.018 70.268 255.754 70.484C255.49 70.7 255.178 70.864 254.818 70.976C254.466 71.08 254.09 71.132 253.69 71.132C253.258 71.132 252.866 71.072 252.514 70.952C252.162 70.832 251.862 70.656 251.614 70.424C251.366 70.184 251.174 69.892 251.038 69.548C250.91 69.204 250.85 68.812 250.858 68.372H251.878C251.894 68.924 252.054 69.376 252.358 69.728C252.662 70.072 253.106 70.244 253.69 70.244C253.938 70.244 254.174 70.208 254.398 70.136C254.622 70.056 254.818 69.948 254.986 69.812C255.154 69.668 255.286 69.496 255.382 69.296C255.486 69.088 255.538 68.856 255.538 68.6C255.538 68.336 255.49 68.104 255.394 67.904C255.298 67.696 255.17 67.524 255.01 67.388C254.85 67.244 254.658 67.14 254.434 67.076C254.218 67.004 253.982 66.968 253.726 66.968C253.51 66.968 253.306 66.98 253.114 67.004V66.14ZM262.806 63.536H259.374L258.918 65.984L258.942 66.008C259.126 65.8 259.362 65.648 259.65 65.552C259.946 65.448 260.238 65.396 260.526 65.396C260.902 65.396 261.258 65.456 261.594 65.576C261.93 65.696 262.222 65.88 262.47 66.128C262.718 66.368 262.914 66.672 263.058 67.04C263.202 67.4 263.274 67.824 263.274 68.312C263.274 68.672 263.21 69.024 263.082 69.368C262.962 69.704 262.778 70.004 262.53 70.268C262.282 70.532 261.97 70.744 261.594 70.904C261.226 71.056 260.794 71.132 260.298 71.132C259.93 71.132 259.582 71.08 259.254 70.976C258.934 70.864 258.65 70.708 258.402 70.508C258.154 70.3 257.958 70.044 257.814 69.74C257.67 69.436 257.594 69.092 257.586 68.708H258.606C258.622 68.924 258.674 69.128 258.762 69.32C258.858 69.504 258.982 69.668 259.134 69.812C259.294 69.948 259.478 70.056 259.686 70.136C259.902 70.208 260.138 70.244 260.394 70.244C260.634 70.244 260.862 70.204 261.078 70.124C261.302 70.036 261.494 69.908 261.654 69.74C261.822 69.572 261.954 69.364 262.05 69.116C262.146 68.86 262.194 68.564 262.194 68.228C262.194 67.948 262.146 67.692 262.05 67.46C261.962 67.22 261.834 67.016 261.666 66.848C261.498 66.672 261.294 66.536 261.054 66.44C260.822 66.344 260.562 66.296 260.274 66.296C259.938 66.296 259.638 66.372 259.374 66.524C259.118 66.668 258.89 66.86 258.69 67.1L257.814 67.052L258.606 62.636H262.806V63.536ZM267.902 68.108V63.944H267.878L265.046 68.108H267.902ZM268.862 68.108H270.014V69.008H268.862V71H267.902V69.008H264.17V68.024L268.046 62.492H268.862V68.108Z" fill="white" fill-opacity="0.6"/>
<path d="M307.913 191.602L307.507 190.692C309.705 190.44 311.707 189.362 311.805 187.976H307.913V187.052H317.195V187.976H313.289C313.387 189.362 315.389 190.44 317.587 190.692L317.181 191.602C315.123 191.35 313.247 190.426 312.547 189.04C311.861 190.426 309.971 191.35 307.913 191.602ZM315.669 196.81C315.669 195.97 314.493 195.494 312.533 195.494C310.559 195.494 309.397 195.97 309.397 196.81C309.397 197.65 310.559 198.14 312.533 198.14C314.493 198.14 315.669 197.65 315.669 196.81ZM318.217 193.282H313.121V194.626C315.459 194.738 316.831 195.508 316.831 196.81C316.831 198.238 315.221 199.022 312.547 199.022C309.859 199.022 308.235 198.238 308.235 196.81C308.235 195.508 309.621 194.738 311.959 194.626V193.282H306.863V192.358H318.217V193.282ZM325.426 198.14C327.386 198.14 328.548 197.65 328.548 196.768C328.548 195.886 327.386 195.396 325.426 195.396C323.438 195.396 322.276 195.886 322.276 196.768C322.276 197.65 323.438 198.14 325.426 198.14ZM325.426 194.5C328.086 194.5 329.71 195.312 329.71 196.768C329.71 198.224 328.086 199.036 325.426 199.036C322.738 199.036 321.114 198.224 321.114 196.768C321.114 195.312 322.738 194.5 325.426 194.5ZM326 192.68H331.11V193.604H319.742V192.68H324.852V191.224H321.17V187.052H329.696V187.976H322.318V190.3H329.78V191.224H326V192.68Z" fill="white" fill-opacity="0.6"/>
<rect x="311" y="61" width="30" height="12.9999" fill="#1F5CFA"/>
<path d="M318.4 58H323.224V57.088H321.46V49.204H320.62C320.14 49.48 319.576 49.684 318.796 49.828V50.524H320.356V57.088H318.4V58ZM325.38 54.7L327.384 51.7C327.636 51.268 327.876 50.836 328.092 50.404H328.14C328.116 50.86 328.068 51.568 328.068 52V54.7H325.38ZM330.276 54.7H329.112V49.204H327.9L324.24 54.856V55.576H328.068V58H329.112V55.576H330.276V54.7Z" fill="white" fill-opacity="0.6"/>
<path d="M378.311 188.018V188.942H370.905V188.018H374.027V186.478H375.175V188.018H378.311ZM372.697 191.966C372.697 192.848 373.467 193.408 374.601 193.408C375.735 193.408 376.519 192.848 376.519 191.966C376.519 191.098 375.735 190.538 374.601 190.538C373.467 190.538 372.697 191.098 372.697 191.966ZM377.611 191.966C377.611 193.38 376.379 194.304 374.601 194.304C372.823 194.304 371.605 193.38 371.605 191.966C371.605 190.566 372.823 189.642 374.601 189.642C376.379 189.642 377.611 190.566 377.611 191.966ZM373.943 195.158V197.818H381.167V198.756H372.795V195.158H373.943ZM380.607 190.622H382.455V191.588H380.607V195.9H379.459V186.478H380.607V190.622ZM395.138 192.498H390V194.794H393.738V199.022H392.59V195.718H384.946V194.794H388.852V192.498H383.742V191.56H392.198C392.534 190.048 392.534 188.942 392.534 188.004H385.198V187.08H393.668V187.99C393.668 188.928 393.668 190.076 393.36 191.56H395.138V192.498Z" fill="white" fill-opacity="0.6"/>
<path d="M374.026 38.504C374.002 38.072 374.046 37.672 374.158 37.304C374.27 36.936 374.442 36.62 374.674 36.356C374.914 36.084 375.21 35.872 375.562 35.72C375.914 35.568 376.314 35.492 376.762 35.492C377.13 35.492 377.474 35.548 377.794 35.66C378.122 35.764 378.406 35.92 378.646 36.128C378.886 36.328 379.074 36.58 379.21 36.884C379.354 37.188 379.426 37.54 379.426 37.94C379.426 38.316 379.366 38.648 379.246 38.936C379.134 39.224 378.982 39.484 378.79 39.716C378.598 39.94 378.378 40.144 378.13 40.328C377.882 40.512 377.626 40.688 377.362 40.856C377.098 41.016 376.834 41.176 376.57 41.336C376.306 41.488 376.062 41.652 375.838 41.828C375.622 42.004 375.434 42.196 375.274 42.404C375.122 42.604 375.022 42.836 374.974 43.1H379.342V44H373.786C373.826 43.496 373.914 43.068 374.05 42.716C374.194 42.356 374.374 42.044 374.59 41.78C374.806 41.516 375.05 41.284 375.322 41.084C375.594 40.884 375.878 40.696 376.174 40.52C376.534 40.296 376.85 40.092 377.122 39.908C377.394 39.716 377.618 39.524 377.794 39.332C377.978 39.14 378.114 38.932 378.202 38.708C378.298 38.484 378.346 38.224 378.346 37.928C378.346 37.696 378.302 37.488 378.214 37.304C378.126 37.112 378.006 36.948 377.854 36.812C377.71 36.676 377.538 36.572 377.338 36.5C377.138 36.428 376.926 36.392 376.702 36.392C376.406 36.392 376.15 36.456 375.934 36.584C375.726 36.704 375.554 36.864 375.418 37.064C375.282 37.264 375.182 37.492 375.118 37.748C375.062 37.996 375.038 38.248 375.046 38.504H374.026ZM381.75 39.812C381.75 40.132 381.758 40.492 381.774 40.892C381.798 41.284 381.862 41.656 381.966 42.008C382.078 42.352 382.254 42.644 382.494 42.884C382.734 43.124 383.07 43.244 383.502 43.244C383.934 43.244 384.27 43.124 384.51 42.884C384.75 42.644 384.922 42.352 385.026 42.008C385.138 41.656 385.202 41.284 385.218 40.892C385.242 40.492 385.254 40.132 385.254 39.812C385.254 39.604 385.25 39.376 385.242 39.128C385.242 38.872 385.222 38.62 385.182 38.372C385.15 38.116 385.098 37.868 385.026 37.628C384.962 37.388 384.862 37.18 384.726 37.004C384.598 36.82 384.434 36.672 384.234 36.56C384.034 36.448 383.79 36.392 383.502 36.392C383.214 36.392 382.97 36.448 382.77 36.56C382.57 36.672 382.402 36.82 382.266 37.004C382.138 37.18 382.038 37.388 381.966 37.628C381.902 37.868 381.85 38.116 381.81 38.372C381.778 38.62 381.758 38.872 381.75 39.128C381.75 39.376 381.75 39.604 381.75 39.812ZM380.67 39.824C380.67 39.512 380.678 39.188 380.694 38.852C380.71 38.516 380.75 38.188 380.814 37.868C380.878 37.548 380.97 37.244 381.09 36.956C381.21 36.668 381.374 36.416 381.582 36.2C381.79 35.984 382.05 35.812 382.362 35.684C382.682 35.556 383.062 35.492 383.502 35.492C383.942 35.492 384.318 35.556 384.63 35.684C384.95 35.812 385.214 35.984 385.422 36.2C385.63 36.416 385.794 36.668 385.914 36.956C386.034 37.244 386.126 37.548 386.19 37.868C386.254 38.188 386.294 38.516 386.31 38.852C386.326 39.188 386.334 39.512 386.334 39.824C386.334 40.136 386.326 40.46 386.31 40.796C386.294 41.132 386.254 41.46 386.19 41.78C386.126 42.1 386.034 42.404 385.914 42.692C385.794 42.972 385.63 43.22 385.422 43.436C385.214 43.652 384.954 43.824 384.642 43.952C384.33 44.072 383.95 44.132 383.502 44.132C383.062 44.132 382.682 44.072 382.362 43.952C382.05 43.824 381.79 43.652 381.582 43.436C381.374 43.22 381.21 42.972 381.09 42.692C380.97 42.404 380.878 42.1 380.814 41.78C380.75 41.46 380.71 41.132 380.694 40.796C380.678 40.46 380.67 40.136 380.67 39.824ZM389.45 39.14C389.49 39.148 389.526 39.152 389.558 39.152C389.598 39.152 389.638 39.152 389.678 39.152H389.894C390.11 39.152 390.314 39.124 390.506 39.068C390.706 39.004 390.878 38.916 391.022 38.804C391.174 38.684 391.294 38.536 391.382 38.36C391.47 38.184 391.514 37.984 391.514 37.76C391.514 37.304 391.37 36.964 391.082 36.74C390.794 36.508 390.434 36.392 390.002 36.392C389.73 36.392 389.49 36.444 389.282 36.548C389.082 36.644 388.914 36.776 388.778 36.944C388.65 37.112 388.554 37.308 388.49 37.532C388.426 37.756 388.394 37.992 388.394 38.24H387.374C387.39 37.832 387.454 37.46 387.566 37.124C387.686 36.788 387.854 36.5 388.07 36.26C388.286 36.02 388.554 35.832 388.874 35.696C389.202 35.56 389.578 35.492 390.002 35.492C390.37 35.492 390.71 35.54 391.022 35.636C391.342 35.724 391.618 35.86 391.85 36.044C392.082 36.228 392.262 36.464 392.39 36.752C392.526 37.04 392.594 37.38 392.594 37.772C392.594 38.156 392.482 38.496 392.258 38.792C392.034 39.088 391.754 39.312 391.418 39.464V39.488C391.938 39.6 392.322 39.844 392.57 40.22C392.826 40.596 392.954 41.04 392.954 41.552C392.954 41.976 392.874 42.352 392.714 42.68C392.562 43 392.354 43.268 392.09 43.484C391.826 43.7 391.514 43.864 391.154 43.976C390.802 44.08 390.426 44.132 390.026 44.132C389.594 44.132 389.202 44.072 388.85 43.952C388.498 43.832 388.198 43.656 387.95 43.424C387.702 43.184 387.51 42.892 387.374 42.548C387.246 42.204 387.186 41.812 387.194 41.372H388.214C388.23 41.924 388.39 42.376 388.694 42.728C388.998 43.072 389.442 43.244 390.026 43.244C390.274 43.244 390.51 43.208 390.734 43.136C390.958 43.056 391.154 42.948 391.322 42.812C391.49 42.668 391.622 42.496 391.718 42.296C391.822 42.088 391.874 41.856 391.874 41.6C391.874 41.336 391.826 41.104 391.73 40.904C391.634 40.696 391.506 40.524 391.346 40.388C391.186 40.244 390.994 40.14 390.77 40.076C390.554 40.004 390.318 39.968 390.062 39.968C389.846 39.968 389.642 39.98 389.45 40.004V39.14Z" fill="white" fill-opacity="0.6"/>
<rect x="366" y="47" width="30" height="13.3499" fill="#1F5CFA"/>
<path d="M426.958 191.588C426.93 191.084 426.981 190.617 427.112 190.188C427.242 189.759 427.443 189.39 427.714 189.082C427.994 188.765 428.339 188.517 428.75 188.34C429.16 188.163 429.627 188.074 430.15 188.074C430.579 188.074 430.98 188.139 431.354 188.27C431.736 188.391 432.068 188.573 432.348 188.816C432.628 189.049 432.847 189.343 433.006 189.698C433.174 190.053 433.258 190.463 433.258 190.93C433.258 191.369 433.188 191.756 433.048 192.092C432.917 192.428 432.74 192.731 432.516 193.002C432.292 193.263 432.035 193.501 431.746 193.716C431.456 193.931 431.158 194.136 430.85 194.332C430.542 194.519 430.234 194.705 429.926 194.892C429.618 195.069 429.333 195.261 429.072 195.466C428.82 195.671 428.6 195.895 428.414 196.138C428.236 196.371 428.12 196.642 428.064 196.95H433.16V198H426.678C426.724 197.412 426.827 196.913 426.986 196.502C427.154 196.082 427.364 195.718 427.616 195.41C427.868 195.102 428.152 194.831 428.47 194.598C428.787 194.365 429.118 194.145 429.464 193.94C429.884 193.679 430.252 193.441 430.57 193.226C430.887 193.002 431.148 192.778 431.354 192.554C431.568 192.33 431.727 192.087 431.83 191.826C431.942 191.565 431.998 191.261 431.998 190.916C431.998 190.645 431.946 190.403 431.844 190.188C431.741 189.964 431.601 189.773 431.424 189.614C431.256 189.455 431.055 189.334 430.822 189.25C430.588 189.166 430.341 189.124 430.08 189.124C429.734 189.124 429.436 189.199 429.184 189.348C428.941 189.488 428.74 189.675 428.582 189.908C428.423 190.141 428.306 190.407 428.232 190.706C428.166 190.995 428.138 191.289 428.148 191.588H426.958ZM438.867 194.626V189.768H438.839L435.535 194.626H438.867ZM439.987 194.626H441.331V195.676H439.987V198H438.867V195.676H434.513V194.528L439.035 188.074H439.987V194.626ZM452.932 186.492V192.988H451.784V186.492H452.932ZM450.244 191.728L449.67 192.624C448.228 192.12 447.08 191.07 446.506 189.74C445.96 191.182 444.798 192.33 443.314 192.862L442.726 191.966C444.616 191.308 445.918 189.628 445.918 187.808V186.856H447.066V187.808C447.066 189.544 448.382 191.112 450.244 191.728ZM445.974 197.986H453.366V198.896H444.84V195.774H451.812V194.514H444.812V193.618H452.946V196.642H445.974V197.986ZM462.927 192.61L462.353 193.506C460.953 193.002 459.875 191.966 459.315 190.664C458.783 192.106 457.635 193.254 456.165 193.8L455.563 192.89C457.425 192.232 458.727 190.552 458.727 188.774V188.27H455.927V187.332H462.633V188.27H459.875V188.774C459.875 190.384 461.107 191.966 462.927 192.61ZM457.467 195.606V194.682H465.867V199.05H464.705V195.606H457.467ZM464.705 186.478H465.867V193.996H464.705V190.692H462.255V189.754H464.705V186.478Z" fill="white" fill-opacity="0.6"/>
<path d="M433.432 41H432.412V34.904H430.204V34.088C430.492 34.088 430.772 34.068 431.044 34.028C431.316 33.98 431.56 33.896 431.776 33.776C432 33.656 432.188 33.492 432.34 33.284C432.492 33.076 432.596 32.812 432.652 32.492H433.432V41ZM440.1 41H439.08V34.904H436.872V34.088C437.16 34.088 437.44 34.068 437.712 34.028C437.984 33.98 438.228 33.896 438.444 33.776C438.668 33.656 438.856 33.492 439.008 33.284C439.16 33.076 439.264 32.812 439.32 32.492H440.1V41ZM443.492 39.668H444.824V40.88C444.824 41.336 444.72 41.728 444.512 42.056C444.304 42.384 443.968 42.616 443.504 42.752V42.152C443.64 42.104 443.752 42.032 443.84 41.936C443.936 41.848 444.012 41.748 444.068 41.636C444.124 41.532 444.16 41.424 444.176 41.312C444.2 41.2 444.208 41.096 444.2 41H443.492V39.668ZM447.696 34.7C447.696 34.932 447.736 35.136 447.816 35.312C447.896 35.48 448.004 35.62 448.14 35.732C448.276 35.844 448.436 35.928 448.62 35.984C448.804 36.04 449 36.068 449.208 36.068C449.616 36.068 449.952 35.948 450.216 35.708C450.48 35.468 450.612 35.132 450.612 34.7C450.612 34.268 450.476 33.944 450.204 33.728C449.94 33.504 449.6 33.392 449.184 33.392C448.984 33.392 448.792 33.42 448.608 33.476C448.424 33.532 448.264 33.616 448.128 33.728C448 33.84 447.896 33.976 447.816 34.136C447.736 34.296 447.696 34.484 447.696 34.7ZM446.616 34.664C446.616 34.312 446.684 34.004 446.82 33.74C446.956 33.468 447.14 33.24 447.372 33.056C447.604 32.872 447.868 32.732 448.164 32.636C448.468 32.54 448.784 32.492 449.112 32.492C449.576 32.492 449.972 32.556 450.3 32.684C450.628 32.804 450.892 32.968 451.092 33.176C451.3 33.376 451.452 33.608 451.548 33.872C451.644 34.128 451.692 34.392 451.692 34.664C451.692 35.048 451.584 35.4 451.368 35.72C451.16 36.032 450.876 36.268 450.516 36.428C451.028 36.588 451.408 36.852 451.656 37.22C451.904 37.58 452.028 38.024 452.028 38.552C452.028 38.968 451.952 39.336 451.8 39.656C451.656 39.976 451.456 40.248 451.2 40.472C450.952 40.688 450.656 40.852 450.312 40.964C449.968 41.076 449.6 41.132 449.208 41.132C448.8 41.132 448.42 41.08 448.068 40.976C447.716 40.872 447.408 40.712 447.144 40.496C446.888 40.28 446.684 40.012 446.532 39.692C446.388 39.364 446.316 38.984 446.316 38.552C446.316 38.048 446.444 37.612 446.7 37.244C446.956 36.868 447.324 36.596 447.804 36.428C447.444 36.284 447.156 36.052 446.94 35.732C446.724 35.404 446.616 35.048 446.616 34.664ZM447.396 38.6C447.396 39.112 447.564 39.516 447.9 39.812C448.244 40.1 448.68 40.244 449.208 40.244C449.464 40.244 449.696 40.204 449.904 40.124C450.12 40.036 450.304 39.92 450.456 39.776C450.616 39.624 450.736 39.448 450.816 39.248C450.904 39.048 450.948 38.828 450.948 38.588C450.948 38.356 450.9 38.144 450.804 37.952C450.716 37.752 450.592 37.58 450.432 37.436C450.272 37.292 450.084 37.18 449.868 37.1C449.66 37.012 449.436 36.968 449.196 36.968C448.948 36.968 448.712 37.008 448.488 37.088C448.272 37.16 448.08 37.268 447.912 37.412C447.752 37.556 447.624 37.728 447.528 37.928C447.44 38.128 447.396 38.352 447.396 38.6ZM453.032 35.504C453.008 35.072 453.052 34.672 453.164 34.304C453.276 33.936 453.448 33.62 453.68 33.356C453.92 33.084 454.216 32.872 454.568 32.72C454.92 32.568 455.32 32.492 455.768 32.492C456.136 32.492 456.48 32.548 456.8 32.66C457.128 32.764 457.412 32.92 457.652 33.128C457.892 33.328 458.08 33.58 458.216 33.884C458.36 34.188 458.432 34.54 458.432 34.94C458.432 35.316 458.372 35.648 458.252 35.936C458.14 36.224 457.988 36.484 457.796 36.716C457.604 36.94 457.384 37.144 457.136 37.328C456.888 37.512 456.632 37.688 456.368 37.856C456.104 38.016 455.84 38.176 455.576 38.336C455.312 38.488 455.068 38.652 454.844 38.828C454.628 39.004 454.44 39.196 454.28 39.404C454.128 39.604 454.028 39.836 453.98 40.1H458.348V41H452.792C452.832 40.496 452.92 40.068 453.056 39.716C453.2 39.356 453.38 39.044 453.596 38.78C453.812 38.516 454.056 38.284 454.328 38.084C454.6 37.884 454.884 37.696 455.18 37.52C455.54 37.296 455.856 37.092 456.128 36.908C456.4 36.716 456.624 36.524 456.8 36.332C456.984 36.14 457.12 35.932 457.208 35.708C457.304 35.484 457.352 35.224 457.352 34.928C457.352 34.696 457.308 34.488 457.22 34.304C457.132 34.112 457.012 33.948 456.86 33.812C456.716 33.676 456.544 33.572 456.344 33.5C456.144 33.428 455.932 33.392 455.708 33.392C455.412 33.392 455.156 33.456 454.94 33.584C454.732 33.704 454.56 33.864 454.424 34.064C454.288 34.264 454.188 34.492 454.124 34.748C454.068 34.996 454.044 35.248 454.052 35.504H453.032ZM463.444 41H462.424V34.904H460.216V34.088C460.504 34.088 460.784 34.068 461.056 34.028C461.328 33.98 461.572 33.896 461.788 33.776C462.012 33.656 462.2 33.492 462.352 33.284C462.504 33.076 462.608 32.812 462.664 32.492H463.444V41Z" fill="white" fill-opacity="0.6"/>
<rect x="432.5" y="47" width="30" height="130" fill="#D9D9D9"/>
</svg>
