<svg width="422" height="730" viewBox="0 0 422 730" fill="none" xmlns="http://www.w3.org/2000/svg">
<rect x="0.5" y="31.5" width="420" height="698" rx="4.5" stroke="#38435F"/>
<path d="M70.3865 712.308V708.852H67.4105V712.308H70.3865ZM73.8185 709.824H71.3465V711.324H73.8185V709.824ZM71.3465 712.128V713.088H66.4385V708.072H71.3465V709.02H73.8185V707.136H74.8145V714.984H73.8185V712.128H71.3465ZM68.8745 716.844H75.0665V717.648H67.8905V714.288H68.8745V716.844ZM79.2176 719.364C78.1136 717.564 77.4536 715.632 77.4536 713.268C77.4536 710.916 78.1136 708.972 79.2176 707.184L79.9016 707.496C78.8576 709.212 78.3656 711.228 78.3656 713.268C78.3656 715.308 78.8576 717.336 79.9016 719.04L79.2176 719.364ZM84.1363 717.156C82.4083 717.156 81.0163 715.896 81.0163 713.748C81.0163 711.636 82.4443 710.316 83.9563 710.316C85.6123 710.316 86.5483 711.516 86.5483 713.376C86.5483 713.616 86.5243 713.844 86.5003 714H82.1083C82.1803 715.392 83.0323 716.28 84.2683 716.28C84.9043 716.28 85.4203 716.088 85.9003 715.764L86.2963 716.484C85.7203 716.856 85.0243 717.156 84.1363 717.156ZM82.0963 713.208H85.5883C85.5883 711.9 84.9883 711.192 83.9683 711.192C83.0443 711.192 82.2283 711.936 82.0963 713.208ZM89.4653 717.156C88.3733 717.156 87.5573 716.484 87.5573 715.308C87.5573 713.892 88.7933 713.184 91.5653 712.872C91.5653 712.032 91.2893 711.228 90.2213 711.228C89.4653 711.228 88.7813 711.576 88.2653 711.924L87.8333 711.168C88.4333 710.784 89.3573 710.316 90.4013 710.316C91.9853 710.316 92.6573 711.384 92.6573 712.992V717H91.7573L91.6613 716.22H91.6253C91.0013 716.736 90.2693 717.156 89.4653 717.156ZM89.7773 716.28C90.4133 716.28 90.9293 715.98 91.5653 715.416V713.592C89.3693 713.856 88.6253 714.396 88.6253 715.236C88.6253 715.98 89.1293 716.28 89.7773 716.28ZM94.8228 719.364L94.1508 719.04C95.1828 717.336 95.6868 715.308 95.6868 713.268C95.6868 711.228 95.1828 709.212 94.1508 707.496L94.8228 707.184C95.9388 708.972 96.5988 710.916 96.5988 713.268C96.5988 715.632 95.9388 717.564 94.8228 719.364Z" fill="white" fill-opacity="0.6"/>
<path d="M157.5 31V700" stroke="white" stroke-opacity="0.2" stroke-dasharray="2 2"/>
<path d="M51.5 31V700" stroke="white" stroke-opacity="0.2" stroke-dasharray="2 2"/>
<path d="M106.5 31V700" stroke="white" stroke-opacity="0.2" stroke-dasharray="2 2"/>
<path d="M172.11 712.38L171.69 713.196C170.046 712.848 168.354 711.732 167.658 710.196C166.962 711.732 165.282 712.848 163.626 713.196L163.218 712.38C165.102 712.044 167.142 710.46 167.142 708.672V707.844H168.174V708.672C168.174 710.46 170.226 712.044 172.11 712.38ZM168.15 715.68H172.59V716.484H162.822V715.68H167.166V713.064H168.15V715.68ZM183.137 712.536L182.693 713.352C181.061 712.98 179.381 711.828 178.697 710.244C178.013 711.816 176.333 712.968 174.713 713.352L174.269 712.536C176.153 712.164 178.181 710.544 178.181 708.708V707.88H179.213V708.708C179.213 710.544 181.253 712.176 183.137 712.536ZM173.861 715.632H183.617V716.448H173.861V715.632ZM187.132 719.364C186.028 717.564 185.368 715.632 185.368 713.268C185.368 710.916 186.028 708.972 187.132 707.184L187.816 707.496C186.772 709.212 186.28 711.228 186.28 713.268C186.28 715.308 186.772 717.336 187.816 719.04L187.132 719.364ZM189.422 717V707.448H190.502V713.928H190.538L193.31 710.484H194.534L192.362 713.112L194.822 717H193.634L191.726 713.856L190.502 715.284V717H189.422ZM198.111 720C196.515 720 195.423 719.376 195.423 718.248C195.423 717.696 195.771 717.168 196.383 716.772V716.724C196.035 716.52 195.783 716.172 195.783 715.656C195.783 715.116 196.179 714.684 196.515 714.444V714.396C196.083 714.048 195.663 713.424 195.663 712.644C195.663 711.216 196.791 710.316 198.111 710.316C198.471 710.316 198.795 710.4 199.023 710.484H201.291V711.324H199.959C200.271 711.624 200.487 712.104 200.487 712.668C200.487 714.06 199.431 714.936 198.111 714.936C197.787 714.936 197.427 714.852 197.139 714.708C196.899 714.912 196.719 715.128 196.719 715.488C196.719 715.908 196.983 716.196 197.859 716.196H199.131C200.643 716.196 201.411 716.676 201.411 717.744C201.411 718.956 200.127 720 198.111 720ZM198.111 714.192C198.855 714.192 199.503 713.592 199.503 712.644C199.503 711.696 198.879 711.12 198.111 711.12C197.343 711.12 196.719 711.684 196.719 712.644C196.719 713.592 197.355 714.192 198.111 714.192ZM198.267 719.256C199.515 719.256 200.343 718.596 200.343 717.912C200.343 717.312 199.875 717.108 199.011 717.108H197.883C197.643 717.108 197.331 717.072 197.043 717C196.575 717.336 196.383 717.72 196.383 718.104C196.383 718.8 197.091 719.256 198.267 719.256ZM202.948 719.364L202.276 719.04C203.308 717.336 203.812 715.308 203.812 713.268C203.812 711.228 203.308 709.212 202.276 707.496L202.948 707.184C204.064 708.972 204.724 710.916 204.724 713.268C204.724 715.632 204.064 717.564 202.948 719.364Z" fill="white" fill-opacity="0.6"/>
<path d="M209.5 31V700" stroke="white" stroke-opacity="0.2" stroke-dasharray="2 2"/>
<path d="M226.203 712.536L225.759 713.352C224.127 712.98 222.447 711.828 221.763 710.244C221.079 711.816 219.399 712.968 217.779 713.352L217.335 712.536C219.219 712.164 221.247 710.544 221.247 708.708V707.88H222.279V708.708C222.279 710.544 224.319 712.176 226.203 712.536ZM216.927 715.632H226.683V716.448H216.927V715.632ZM232.934 711.312L233.03 712.116C231.638 712.404 230.462 712.464 229.178 712.464H228.494V707.868H229.478V711.648C230.606 711.636 231.698 711.564 232.934 711.312ZM229.826 714.756V713.964H237.05V717.888H236.066V714.756H229.826ZM236.102 707.124H237.05V713.436H236.102V710.64H234.638V713.364H233.702V707.328H234.638V709.836H236.102V707.124ZM241.237 719.364C240.133 717.564 239.473 715.632 239.473 713.268C239.473 710.916 240.133 708.972 241.237 707.184L241.921 707.496C240.877 709.212 240.385 711.228 240.385 713.268C240.385 715.308 240.877 717.336 241.921 719.04L241.237 719.364ZM246.156 717.156C244.428 717.156 243.036 715.896 243.036 713.748C243.036 711.636 244.464 710.316 245.976 710.316C247.632 710.316 248.568 711.516 248.568 713.376C248.568 713.616 248.544 713.844 248.52 714H244.128C244.2 715.392 245.052 716.28 246.288 716.28C246.924 716.28 247.44 716.088 247.92 715.764L248.316 716.484C247.74 716.856 247.044 717.156 246.156 717.156ZM244.116 713.208H247.608C247.608 711.9 247.008 711.192 245.988 711.192C245.064 711.192 244.248 711.936 244.116 713.208ZM251.485 717.156C250.393 717.156 249.577 716.484 249.577 715.308C249.577 713.892 250.813 713.184 253.585 712.872C253.585 712.032 253.309 711.228 252.241 711.228C251.485 711.228 250.801 711.576 250.285 711.924L249.853 711.168C250.453 710.784 251.377 710.316 252.421 710.316C254.005 710.316 254.677 711.384 254.677 712.992V717H253.777L253.681 716.22H253.645C253.021 716.736 252.289 717.156 251.485 717.156ZM251.797 716.28C252.433 716.28 252.949 715.98 253.585 715.416V713.592C251.389 713.856 250.645 714.396 250.645 715.236C250.645 715.98 251.149 716.28 251.797 716.28ZM256.842 719.364L256.17 719.04C257.202 717.336 257.706 715.308 257.706 713.268C257.706 711.228 257.202 709.212 256.17 707.496L256.842 707.184C257.958 708.972 258.618 710.916 258.618 713.268C258.618 715.632 257.958 717.564 256.842 719.364Z" fill="white" fill-opacity="0.6"/>
<path d="M262.5 31V700" stroke="white" stroke-opacity="0.2" stroke-dasharray="2 2"/>
<path d="M311.203 712.536L310.759 713.352C309.127 712.98 307.447 711.828 306.763 710.244C306.079 711.816 304.399 712.968 302.779 713.352L302.335 712.536C304.219 712.164 306.247 710.544 306.247 708.708V707.88H307.279V708.708C307.279 710.544 309.319 712.176 311.203 712.536ZM301.927 715.632H311.683V716.448H301.927V715.632ZM319.158 712.74V708.996H316.482V712.74H319.158ZM315.498 712.74V708.996H313.83V708.204H321.81V708.996H320.142V712.74H321.786V713.544H313.854V712.74H315.498ZM312.966 715.692H322.722V716.508H312.966V715.692ZM326.237 719.364C325.133 717.564 324.473 715.632 324.473 713.268C324.473 710.916 325.133 708.972 326.237 707.184L326.921 707.496C325.877 709.212 325.385 711.228 325.385 713.268C325.385 715.308 325.877 717.336 326.921 719.04L326.237 719.364ZM331.156 717.156C329.428 717.156 328.036 715.896 328.036 713.748C328.036 711.636 329.464 710.316 330.976 710.316C332.632 710.316 333.568 711.516 333.568 713.376C333.568 713.616 333.544 713.844 333.52 714H329.128C329.2 715.392 330.052 716.28 331.288 716.28C331.924 716.28 332.44 716.088 332.92 715.764L333.316 716.484C332.74 716.856 332.044 717.156 331.156 717.156ZM329.116 713.208H332.608C332.608 711.9 332.008 711.192 330.988 711.192C330.064 711.192 329.248 711.936 329.116 713.208ZM336.485 717.156C335.393 717.156 334.577 716.484 334.577 715.308C334.577 713.892 335.813 713.184 338.585 712.872C338.585 712.032 338.309 711.228 337.241 711.228C336.485 711.228 335.801 711.576 335.285 711.924L334.853 711.168C335.453 710.784 336.377 710.316 337.421 710.316C339.005 710.316 339.677 711.384 339.677 712.992V717H338.777L338.681 716.22H338.645C338.021 716.736 337.289 717.156 336.485 717.156ZM336.797 716.28C337.433 716.28 337.949 715.98 338.585 715.416V713.592C336.389 713.856 335.645 714.396 335.645 715.236C335.645 715.98 336.149 716.28 336.797 716.28ZM341.842 719.364L341.17 719.04C342.202 717.336 342.706 715.308 342.706 713.268C342.706 711.228 342.202 709.212 341.17 707.496L341.842 707.184C342.958 708.972 343.618 710.916 343.618 713.268C343.618 715.632 342.958 717.564 341.842 719.364Z" fill="white" fill-opacity="0.6"/>
<path d="M368.5 31V700" stroke="white" stroke-opacity="0.2" stroke-dasharray="2 2"/>
<path d="M316.5 31V700" stroke="white" stroke-opacity="0.2" stroke-dasharray="2 2"/>
<path d="M373.563 708.288H378.603C378.603 711.396 377.175 714.132 373.599 715.884L373.071 715.08C375.963 713.7 377.403 711.636 377.607 709.08H373.563V708.288ZM380.775 707.124H381.759V717.888H380.775V707.124ZM385.418 711.912V714.492C387.326 714.492 388.67 714.408 390.254 714.144L390.35 714.936C388.694 715.224 387.302 715.296 385.274 715.296H384.434V708.096H389.45V708.9H385.418V711.12H389.21V711.912H385.418ZM394.022 711.444V712.272H392.246V717.876H391.262V707.124H392.246V711.444H394.022ZM397.237 719.364C396.133 717.564 395.473 715.632 395.473 713.268C395.473 710.916 396.133 708.972 397.237 707.184L397.921 707.496C396.877 709.212 396.385 711.228 396.385 713.268C396.385 715.308 396.877 717.336 397.921 719.04L397.237 719.364ZM402.156 717.156C400.428 717.156 399.036 715.896 399.036 713.748C399.036 711.636 400.464 710.316 401.976 710.316C403.632 710.316 404.568 711.516 404.568 713.376C404.568 713.616 404.544 713.844 404.52 714H400.128C400.2 715.392 401.052 716.28 402.288 716.28C402.924 716.28 403.44 716.088 403.92 715.764L404.316 716.484C403.74 716.856 403.044 717.156 402.156 717.156ZM400.116 713.208H403.608C403.608 711.9 403.008 711.192 401.988 711.192C401.064 711.192 400.248 711.936 400.116 713.208ZM407.485 717.156C406.393 717.156 405.577 716.484 405.577 715.308C405.577 713.892 406.813 713.184 409.585 712.872C409.585 712.032 409.309 711.228 408.241 711.228C407.485 711.228 406.801 711.576 406.285 711.924L405.853 711.168C406.453 710.784 407.377 710.316 408.421 710.316C410.005 710.316 410.677 711.384 410.677 712.992V717H409.777L409.681 716.22H409.645C409.021 716.736 408.289 717.156 407.485 717.156ZM407.797 716.28C408.433 716.28 408.949 715.98 409.585 715.416V713.592C407.389 713.856 406.645 714.396 406.645 715.236C406.645 715.98 407.149 716.28 407.797 716.28ZM412.842 719.364L412.17 719.04C413.202 717.336 413.706 715.308 413.706 713.268C413.706 711.228 413.202 709.212 412.17 707.496L412.842 707.184C413.958 708.972 414.618 710.916 414.618 713.268C414.618 715.632 413.958 717.564 412.842 719.364Z" fill="white" fill-opacity="0.6"/>
<path d="M421 31V700" stroke="white" stroke-opacity="0.2" stroke-dasharray="2 2"/>
<rect x="11" y="662" width="517" height="8" transform="rotate(-90 11 662)" fill="#B8B8D2"/>
<rect x="24" y="662" width="526" height="8.00002" transform="rotate(-90 24 662)" fill="#36F097"/>
<rect x="37" y="662" width="575" height="8.00002" transform="rotate(-90 37 662)" fill="#1F5CFA"/>
<path d="M23.1979 684.484H25.3819V678.124H26.3659V686.32H25.3819V685.216H23.1979V684.484ZM21.0019 679.288C19.9819 679.288 19.2859 679.744 19.2859 680.428C19.2859 681.124 19.9819 681.58 21.0019 681.58C22.0219 681.58 22.7179 681.124 22.7179 680.428C22.7179 679.744 22.0219 679.288 21.0019 679.288ZM21.0019 682.312C19.4299 682.312 18.3499 681.58 18.3499 680.428C18.3499 679.3 19.4299 678.556 21.0019 678.556C22.5739 678.556 23.6539 679.3 23.6539 680.428C23.6539 681.58 22.5739 682.312 21.0019 682.312ZM20.6179 685.936V683.86C19.5499 683.908 18.5179 683.92 17.6299 683.92L17.4979 683.104C19.4899 683.104 22.1539 683.08 24.4339 682.792L24.5179 683.5C23.5699 683.644 22.5739 683.752 21.6019 683.812V685.936H20.6179ZM20.0179 687.844H26.6419V688.648H19.0339V685.516H20.0179V687.844ZM29.5569 683.356L29.1849 682.576C31.0569 682.3 32.9169 681.064 32.9169 679.648V679.588H29.5209V678.796H37.3809V679.588H34.0089V679.648C34.0089 681.064 35.8689 682.3 37.7649 682.576L37.3809 683.356C35.7129 683.068 34.1169 682.168 33.4689 680.896C32.8089 682.168 31.2249 683.068 29.5569 683.356ZM38.3289 684.256L38.3409 685.06H33.9369V688.888H32.9529V685.06H28.6089V684.256H38.3289Z" fill="white" fill-opacity="0.6"/>
<path d="M4.35805 131.7C4.35805 131.932 4.39805 132.136 4.47805 132.312C4.55805 132.48 4.66605 132.62 4.80205 132.732C4.93805 132.844 5.09805 132.928 5.28205 132.984C5.46605 133.04 5.66205 133.068 5.87005 133.068C6.27805 133.068 6.61405 132.948 6.87805 132.708C7.14205 132.468 7.27405 132.132 7.27405 131.7C7.27405 131.268 7.13805 130.944 6.86605 130.728C6.60205 130.504 6.26205 130.392 5.84605 130.392C5.64605 130.392 5.45405 130.42 5.27005 130.476C5.08605 130.532 4.92605 130.616 4.79005 130.728C4.66205 130.84 4.55805 130.976 4.47805 131.136C4.39805 131.296 4.35805 131.484 4.35805 131.7ZM3.27805 131.664C3.27805 131.312 3.34605 131.004 3.48205 130.74C3.61805 130.468 3.80205 130.24 4.03405 130.056C4.26605 129.872 4.53005 129.732 4.82605 129.636C5.13005 129.54 5.44605 129.492 5.77405 129.492C6.23805 129.492 6.63405 129.556 6.96205 129.684C7.29005 129.804 7.55405 129.968 7.75405 130.176C7.96205 130.376 8.11405 130.608 8.21005 130.872C8.30605 131.128 8.35405 131.392 8.35405 131.664C8.35405 132.048 8.24605 132.4 8.03005 132.72C7.82205 133.032 7.53805 133.268 7.17805 133.428C7.69005 133.588 8.07005 133.852 8.31805 134.22C8.56605 134.58 8.69005 135.024 8.69005 135.552C8.69005 135.968 8.61405 136.336 8.46205 136.656C8.31805 136.976 8.11805 137.248 7.86205 137.472C7.61405 137.688 7.31805 137.852 6.97405 137.964C6.63005 138.076 6.26205 138.132 5.87005 138.132C5.46205 138.132 5.08205 138.08 4.73005 137.976C4.37805 137.872 4.07005 137.712 3.80605 137.496C3.55005 137.28 3.34605 137.012 3.19405 136.692C3.05005 136.364 2.97805 135.984 2.97805 135.552C2.97805 135.048 3.10605 134.612 3.36205 134.244C3.61805 133.868 3.98605 133.596 4.46605 133.428C4.10605 133.284 3.81805 133.052 3.60205 132.732C3.38605 132.404 3.27805 132.048 3.27805 131.664ZM4.05805 135.6C4.05805 136.112 4.22605 136.516 4.56205 136.812C4.90605 137.1 5.34205 137.244 5.87005 137.244C6.12605 137.244 6.35805 137.204 6.56605 137.124C6.78205 137.036 6.96605 136.92 7.11805 136.776C7.27805 136.624 7.39805 136.448 7.47805 136.248C7.56605 136.048 7.61005 135.828 7.61005 135.588C7.61005 135.356 7.56205 135.144 7.46605 134.952C7.37805 134.752 7.25405 134.58 7.09405 134.436C6.93405 134.292 6.74605 134.18 6.53005 134.1C6.32205 134.012 6.09805 133.968 5.85805 133.968C5.61005 133.968 5.37405 134.008 5.15005 134.088C4.93405 134.16 4.74205 134.268 4.57405 134.412C4.41405 134.556 4.28605 134.728 4.19005 134.928C4.10205 135.128 4.05805 135.352 4.05805 135.6ZM9.69402 132.504C9.67002 132.072 9.71402 131.672 9.82602 131.304C9.93802 130.936 10.11 130.62 10.342 130.356C10.582 130.084 10.878 129.872 11.23 129.72C11.582 129.568 11.982 129.492 12.43 129.492C12.798 129.492 13.142 129.548 13.462 129.66C13.79 129.764 14.074 129.92 14.314 130.128C14.554 130.328 14.742 130.58 14.878 130.884C15.022 131.188 15.094 131.54 15.094 131.94C15.094 132.316 15.034 132.648 14.914 132.936C14.802 133.224 14.65 133.484 14.458 133.716C14.266 133.94 14.046 134.144 13.798 134.328C13.55 134.512 13.294 134.688 13.03 134.856C12.766 135.016 12.502 135.176 12.238 135.336C11.974 135.488 11.73 135.652 11.506 135.828C11.29 136.004 11.102 136.196 10.942 136.404C10.79 136.604 10.69 136.836 10.642 137.1H15.01V138H9.45402C9.49402 137.496 9.58202 137.068 9.71802 136.716C9.86202 136.356 10.042 136.044 10.258 135.78C10.474 135.516 10.718 135.284 10.99 135.084C11.262 134.884 11.546 134.696 11.842 134.52C12.202 134.296 12.518 134.092 12.79 133.908C13.062 133.716 13.286 133.524 13.462 133.332C13.646 133.14 13.782 132.932 13.87 132.708C13.966 132.484 14.014 132.224 14.014 131.928C14.014 131.696 13.97 131.488 13.882 131.304C13.794 131.112 13.674 130.948 13.522 130.812C13.378 130.676 13.206 130.572 13.006 130.5C12.806 130.428 12.594 130.392 12.37 130.392C12.074 130.392 11.818 130.456 11.602 130.584C11.394 130.704 11.222 130.864 11.086 131.064C10.95 131.264 10.85 131.492 10.786 131.748C10.73 131.996 10.706 132.248 10.714 132.504H9.69402ZM20.106 138H19.086V131.904H16.878V131.088C17.166 131.088 17.446 131.068 17.718 131.028C17.99 130.98 18.234 130.896 18.45 130.776C18.674 130.656 18.862 130.492 19.014 130.284C19.166 130.076 19.27 129.812 19.326 129.492H20.106V138Z" fill="white"/>
<path d="M15.358 117.7C15.358 117.932 15.398 118.136 15.478 118.312C15.558 118.48 15.666 118.62 15.802 118.732C15.938 118.844 16.098 118.928 16.282 118.984C16.466 119.04 16.662 119.068 16.87 119.068C17.278 119.068 17.614 118.948 17.878 118.708C18.142 118.468 18.274 118.132 18.274 117.7C18.274 117.268 18.138 116.944 17.866 116.728C17.602 116.504 17.262 116.392 16.846 116.392C16.646 116.392 16.454 116.42 16.27 116.476C16.086 116.532 15.926 116.616 15.79 116.728C15.662 116.84 15.558 116.976 15.478 117.136C15.398 117.296 15.358 117.484 15.358 117.7ZM14.278 117.664C14.278 117.312 14.346 117.004 14.482 116.74C14.618 116.468 14.802 116.24 15.034 116.056C15.266 115.872 15.53 115.732 15.826 115.636C16.13 115.54 16.446 115.492 16.774 115.492C17.238 115.492 17.634 115.556 17.962 115.684C18.29 115.804 18.554 115.968 18.754 116.176C18.962 116.376 19.114 116.608 19.21 116.872C19.306 117.128 19.354 117.392 19.354 117.664C19.354 118.048 19.246 118.4 19.03 118.72C18.822 119.032 18.538 119.268 18.178 119.428C18.69 119.588 19.07 119.852 19.318 120.22C19.566 120.58 19.69 121.024 19.69 121.552C19.69 121.968 19.614 122.336 19.462 122.656C19.318 122.976 19.118 123.248 18.862 123.472C18.614 123.688 18.318 123.852 17.974 123.964C17.63 124.076 17.262 124.132 16.87 124.132C16.462 124.132 16.082 124.08 15.73 123.976C15.378 123.872 15.07 123.712 14.806 123.496C14.55 123.28 14.346 123.012 14.194 122.692C14.05 122.364 13.978 121.984 13.978 121.552C13.978 121.048 14.106 120.612 14.362 120.244C14.618 119.868 14.986 119.596 15.466 119.428C15.106 119.284 14.818 119.052 14.602 118.732C14.386 118.404 14.278 118.048 14.278 117.664ZM15.058 121.6C15.058 122.112 15.226 122.516 15.562 122.812C15.906 123.1 16.342 123.244 16.87 123.244C17.126 123.244 17.358 123.204 17.566 123.124C17.782 123.036 17.966 122.92 18.118 122.776C18.278 122.624 18.398 122.448 18.478 122.248C18.566 122.048 18.61 121.828 18.61 121.588C18.61 121.356 18.562 121.144 18.466 120.952C18.378 120.752 18.254 120.58 18.094 120.436C17.934 120.292 17.746 120.18 17.53 120.1C17.322 120.012 17.098 119.968 16.858 119.968C16.61 119.968 16.374 120.008 16.15 120.088C15.934 120.16 15.742 120.268 15.574 120.412C15.414 120.556 15.286 120.728 15.19 120.928C15.102 121.128 15.058 121.352 15.058 121.6ZM26.274 116.512C25.842 116.936 25.438 117.44 25.062 118.024C24.686 118.608 24.35 119.232 24.054 119.896C23.766 120.56 23.53 121.244 23.346 121.948C23.162 122.652 23.05 123.336 23.01 124H21.87C21.918 123.28 22.034 122.58 22.218 121.9C22.41 121.212 22.654 120.556 22.95 119.932C23.246 119.3 23.586 118.704 23.97 118.144C24.362 117.584 24.782 117.068 25.23 116.596H20.766V115.636H26.274V116.512ZM32.942 116.512C32.51 116.936 32.106 117.44 31.73 118.024C31.354 118.608 31.018 119.232 30.722 119.896C30.434 120.56 30.198 121.244 30.014 121.948C29.83 122.652 29.718 123.336 29.678 124H28.538C28.586 123.28 28.702 122.58 28.886 121.9C29.078 121.212 29.322 120.556 29.618 119.932C29.914 119.3 30.254 118.704 30.638 118.144C31.03 117.584 31.45 117.068 31.898 116.596H27.434V115.636H32.942V116.512Z" fill="white"/>
<path d="M32.106 81.948C32.146 82.364 32.314 82.684 32.61 82.908C32.906 83.132 33.258 83.244 33.666 83.244C34.29 83.244 34.758 82.976 35.07 82.44C35.382 81.896 35.554 81.068 35.586 79.956L35.562 79.932C35.37 80.292 35.098 80.58 34.746 80.796C34.394 81.004 34.01 81.108 33.594 81.108C33.162 81.108 32.778 81.04 32.442 80.904C32.106 80.76 31.822 80.564 31.59 80.316C31.366 80.068 31.194 79.768 31.074 79.416C30.962 79.064 30.906 78.68 30.906 78.264C30.906 77.856 30.974 77.484 31.11 77.148C31.246 76.804 31.438 76.512 31.686 76.272C31.934 76.024 32.23 75.832 32.574 75.696C32.918 75.56 33.294 75.492 33.702 75.492C34.102 75.492 34.478 75.556 34.83 75.684C35.182 75.804 35.49 76.016 35.754 76.32C36.018 76.624 36.226 77.04 36.378 77.568C36.538 78.088 36.618 78.752 36.618 79.56C36.618 81.032 36.382 82.164 35.91 82.956C35.446 83.74 34.698 84.132 33.666 84.132C32.954 84.132 32.362 83.952 31.89 83.592C31.418 83.232 31.15 82.684 31.086 81.948H32.106ZM35.406 78.336C35.406 78.072 35.366 77.824 35.286 77.592C35.214 77.36 35.102 77.156 34.95 76.98C34.806 76.796 34.626 76.652 34.41 76.548C34.194 76.444 33.942 76.392 33.654 76.392C33.35 76.392 33.09 76.448 32.874 76.56C32.666 76.672 32.494 76.824 32.358 77.016C32.23 77.2 32.134 77.412 32.07 77.652C32.014 77.892 31.986 78.144 31.986 78.408C31.986 78.64 32.026 78.864 32.106 79.08C32.194 79.296 32.31 79.488 32.454 79.656C32.606 79.824 32.782 79.96 32.982 80.064C33.19 80.16 33.418 80.208 33.666 80.208C33.93 80.208 34.17 80.16 34.386 80.064C34.602 79.96 34.786 79.824 34.938 79.656C35.09 79.48 35.206 79.28 35.286 79.056C35.366 78.824 35.406 78.584 35.406 78.336ZM37.694 78.504C37.67 78.072 37.714 77.672 37.826 77.304C37.938 76.936 38.11 76.62 38.342 76.356C38.582 76.084 38.878 75.872 39.23 75.72C39.582 75.568 39.982 75.492 40.43 75.492C40.798 75.492 41.142 75.548 41.462 75.66C41.79 75.764 42.074 75.92 42.314 76.128C42.554 76.328 42.742 76.58 42.878 76.884C43.022 77.188 43.094 77.54 43.094 77.94C43.094 78.316 43.034 78.648 42.914 78.936C42.802 79.224 42.65 79.484 42.458 79.716C42.266 79.94 42.046 80.144 41.798 80.328C41.55 80.512 41.294 80.688 41.03 80.856C40.766 81.016 40.502 81.176 40.238 81.336C39.974 81.488 39.73 81.652 39.506 81.828C39.29 82.004 39.102 82.196 38.942 82.404C38.79 82.604 38.69 82.836 38.642 83.1H43.01V84H37.454C37.494 83.496 37.582 83.068 37.718 82.716C37.862 82.356 38.042 82.044 38.258 81.78C38.474 81.516 38.718 81.284 38.99 81.084C39.262 80.884 39.546 80.696 39.842 80.52C40.202 80.296 40.518 80.092 40.79 79.908C41.062 79.716 41.286 79.524 41.462 79.332C41.646 79.14 41.782 78.932 41.87 78.708C41.966 78.484 42.014 78.224 42.014 77.928C42.014 77.696 41.97 77.488 41.882 77.304C41.794 77.112 41.674 76.948 41.522 76.812C41.378 76.676 41.206 76.572 41.006 76.5C40.806 76.428 40.594 76.392 40.37 76.392C40.074 76.392 39.818 76.456 39.602 76.584C39.394 76.704 39.222 76.864 39.086 77.064C38.95 77.264 38.85 77.492 38.786 77.748C38.73 77.996 38.706 78.248 38.714 78.504H37.694ZM48.106 84H47.086V77.904H44.878V77.088C45.166 77.088 45.446 77.068 45.718 77.028C45.99 76.98 46.234 76.896 46.45 76.776C46.674 76.656 46.862 76.492 47.014 76.284C47.166 76.076 47.27 75.812 47.326 75.492H48.106V84Z" fill="white"/>
<rect x="63.25" y="661" width="163" height="8.00001" transform="rotate(-90 63.25 661)" fill="#B8B8D2"/>
<rect x="76.25" y="661" width="195" height="8.00001" transform="rotate(-90 76.25 661)" fill="#36F097"/>
<rect x="89.25" y="661" width="183" height="8.00001" transform="rotate(-90 89.25 661)" fill="#1F5CFA"/>
<path d="M71.7019 685.12H78.8899V688.9H77.9059V685.912H71.7019V685.12ZM77.9059 678.136H78.8899V684.532H77.9059V678.136ZM73.1179 678.772C74.7379 678.772 75.9259 679.804 75.9259 681.316C75.9259 682.828 74.7379 683.86 73.1179 683.86C71.4859 683.86 70.3099 682.828 70.3099 681.316C70.3099 679.804 71.4859 678.772 73.1179 678.772ZM73.1179 679.6C72.0379 679.6 71.2699 680.308 71.2699 681.316C71.2699 682.324 72.0379 683.032 73.1179 683.032C74.1859 683.032 74.9659 682.324 74.9659 681.316C74.9659 680.308 74.1859 679.6 73.1179 679.6ZM87.3729 683.536L86.8809 684.316C85.6689 683.872 84.7329 682.972 84.2529 681.844C83.8089 683.116 82.8489 684.1 81.5649 684.58L81.0489 683.8C82.6929 683.212 83.7369 681.772 83.7369 680.104V678.772H84.7209V680.128C84.7209 681.604 85.7889 682.972 87.3729 683.536ZM83.7609 685.312V687.844H89.9169V688.648H82.7769V685.312H83.7609ZM89.4489 681.424H91.0329V682.24H89.4489V686.068H88.4649V678.112H89.4489V681.424Z" fill="white" fill-opacity="0.6"/>
<path d="M56.2762 485.504C56.2522 485.072 56.2962 484.672 56.4082 484.304C56.5202 483.936 56.6922 483.62 56.9242 483.356C57.1642 483.084 57.4602 482.872 57.8122 482.72C58.1642 482.568 58.5642 482.492 59.0122 482.492C59.3802 482.492 59.7242 482.548 60.0442 482.66C60.3722 482.764 60.6562 482.92 60.8962 483.128C61.1362 483.328 61.3242 483.58 61.4602 483.884C61.6042 484.188 61.6762 484.54 61.6762 484.94C61.6762 485.316 61.6162 485.648 61.4962 485.936C61.3842 486.224 61.2322 486.484 61.0402 486.716C60.8482 486.94 60.6282 487.144 60.3802 487.328C60.1322 487.512 59.8762 487.688 59.6122 487.856C59.3482 488.016 59.0842 488.176 58.8202 488.336C58.5562 488.488 58.3122 488.652 58.0882 488.828C57.8722 489.004 57.6842 489.196 57.5242 489.404C57.3722 489.604 57.2722 489.836 57.2242 490.1H61.5922V491H56.0362C56.0762 490.496 56.1642 490.068 56.3002 489.716C56.4442 489.356 56.6242 489.044 56.8402 488.78C57.0562 488.516 57.3002 488.284 57.5722 488.084C57.8442 487.884 58.1282 487.696 58.4242 487.52C58.7842 487.296 59.1002 487.092 59.3722 486.908C59.6442 486.716 59.8682 486.524 60.0442 486.332C60.2282 486.14 60.3642 485.932 60.4522 485.708C60.5482 485.484 60.5962 485.224 60.5962 484.928C60.5962 484.696 60.5522 484.488 60.4642 484.304C60.3762 484.112 60.2562 483.948 60.1042 483.812C59.9602 483.676 59.7882 483.572 59.5882 483.5C59.3882 483.428 59.1762 483.392 58.9522 483.392C58.6562 483.392 58.4002 483.456 58.1842 483.584C57.9762 483.704 57.8042 483.864 57.6682 484.064C57.5322 484.264 57.4322 484.492 57.3682 484.748C57.3122 484.996 57.2882 485.248 57.2962 485.504H56.2762ZM62.9441 485.504C62.9201 485.072 62.9641 484.672 63.0761 484.304C63.1881 483.936 63.3601 483.62 63.5921 483.356C63.8321 483.084 64.1281 482.872 64.4801 482.72C64.8321 482.568 65.2321 482.492 65.6801 482.492C66.0481 482.492 66.3921 482.548 66.7121 482.66C67.0401 482.764 67.3241 482.92 67.5641 483.128C67.8041 483.328 67.9921 483.58 68.1281 483.884C68.2721 484.188 68.3441 484.54 68.3441 484.94C68.3441 485.316 68.2841 485.648 68.1641 485.936C68.0521 486.224 67.9001 486.484 67.7081 486.716C67.5161 486.94 67.2961 487.144 67.0481 487.328C66.8001 487.512 66.5441 487.688 66.2801 487.856C66.0161 488.016 65.7521 488.176 65.4881 488.336C65.2241 488.488 64.9801 488.652 64.7561 488.828C64.5401 489.004 64.3521 489.196 64.1921 489.404C64.0401 489.604 63.9401 489.836 63.8921 490.1H68.2601V491H62.7041C62.7441 490.496 62.8321 490.068 62.9681 489.716C63.1121 489.356 63.2921 489.044 63.5081 488.78C63.7241 488.516 63.9681 488.284 64.2401 488.084C64.5121 487.884 64.7961 487.696 65.0921 487.52C65.4521 487.296 65.7681 487.092 66.0401 486.908C66.3121 486.716 66.5361 486.524 66.7121 486.332C66.8961 486.14 67.0321 485.932 67.1201 485.708C67.2161 485.484 67.2641 485.224 67.2641 484.928C67.2641 484.696 67.2201 484.488 67.1321 484.304C67.0441 484.112 66.9241 483.948 66.7721 483.812C66.6281 483.676 66.4561 483.572 66.2561 483.5C66.0561 483.428 65.8441 483.392 65.6201 483.392C65.3241 483.392 65.0681 483.456 64.8521 483.584C64.6441 483.704 64.4721 483.864 64.3361 484.064C64.2001 484.264 64.1001 484.492 64.0361 484.748C63.9801 484.996 63.9561 485.248 63.9641 485.504H62.9441ZM73.3561 491H72.3361V484.904H70.1281V484.088C70.4161 484.088 70.6961 484.068 70.9681 484.028C71.2401 483.98 71.4841 483.896 71.7001 483.776C71.9241 483.656 72.1121 483.492 72.2641 483.284C72.4161 483.076 72.5201 482.812 72.5761 482.492H73.3561V491Z" fill="white"/>
<path d="M72.2762 453.504C72.2522 453.072 72.2962 452.672 72.4082 452.304C72.5202 451.936 72.6922 451.62 72.9242 451.356C73.1642 451.084 73.4602 450.872 73.8122 450.72C74.1642 450.568 74.5642 450.492 75.0122 450.492C75.3802 450.492 75.7242 450.548 76.0442 450.66C76.3722 450.764 76.6562 450.92 76.8962 451.128C77.1362 451.328 77.3242 451.58 77.4602 451.884C77.6042 452.188 77.6762 452.54 77.6762 452.94C77.6762 453.316 77.6162 453.648 77.4962 453.936C77.3842 454.224 77.2322 454.484 77.0402 454.716C76.8482 454.94 76.6282 455.144 76.3802 455.328C76.1322 455.512 75.8762 455.688 75.6122 455.856C75.3482 456.016 75.0842 456.176 74.8202 456.336C74.5562 456.488 74.3122 456.652 74.0882 456.828C73.8722 457.004 73.6842 457.196 73.5242 457.404C73.3722 457.604 73.2722 457.836 73.2242 458.1H77.5922V459H72.0362C72.0762 458.496 72.1642 458.068 72.3002 457.716C72.4442 457.356 72.6242 457.044 72.8402 456.78C73.0562 456.516 73.3002 456.284 73.5722 456.084C73.8442 455.884 74.1282 455.696 74.4242 455.52C74.7842 455.296 75.1002 455.092 75.3722 454.908C75.6442 454.716 75.8682 454.524 76.0442 454.332C76.2282 454.14 76.3642 453.932 76.4522 453.708C76.5482 453.484 76.5962 453.224 76.5962 452.928C76.5962 452.696 76.5522 452.488 76.4642 452.304C76.3762 452.112 76.2562 451.948 76.1042 451.812C75.9602 451.676 75.7882 451.572 75.5882 451.5C75.3882 451.428 75.1762 451.392 74.9522 451.392C74.6562 451.392 74.4002 451.456 74.1842 451.584C73.9762 451.704 73.8042 451.864 73.6682 452.064C73.5322 452.264 73.4322 452.492 73.3682 452.748C73.3122 452.996 73.2882 453.248 73.2962 453.504H72.2762ZM82.4841 456.108V451.944H82.4601L79.6281 456.108H82.4841ZM83.4441 456.108H84.5961V457.008H83.4441V459H82.4841V457.008H78.7521V456.024L82.6281 450.492H83.4441V456.108ZM89.1521 456.108V451.944H89.1281L86.2961 456.108H89.1521ZM90.1121 456.108H91.2641V457.008H90.1121V459H89.1521V457.008H85.4201V456.024L89.2961 450.492H90.1121V456.108Z" fill="white"/>
<path d="M87.2762 467.504C87.2522 467.072 87.2962 466.672 87.4082 466.304C87.5202 465.936 87.6922 465.62 87.9242 465.356C88.1642 465.084 88.4602 464.872 88.8122 464.72C89.1642 464.568 89.5642 464.492 90.0122 464.492C90.3802 464.492 90.7242 464.548 91.0442 464.66C91.3722 464.764 91.6562 464.92 91.8962 465.128C92.1362 465.328 92.3242 465.58 92.4602 465.884C92.6042 466.188 92.6762 466.54 92.6762 466.94C92.6762 467.316 92.6162 467.648 92.4962 467.936C92.3842 468.224 92.2322 468.484 92.0402 468.716C91.8482 468.94 91.6282 469.144 91.3802 469.328C91.1322 469.512 90.8762 469.688 90.6122 469.856C90.3482 470.016 90.0842 470.176 89.8202 470.336C89.5562 470.488 89.3122 470.652 89.0882 470.828C88.8722 471.004 88.6842 471.196 88.5242 471.404C88.3722 471.604 88.2722 471.836 88.2242 472.1H92.5922V473H87.0362C87.0762 472.496 87.1642 472.068 87.3002 471.716C87.4442 471.356 87.6242 471.044 87.8402 470.78C88.0562 470.516 88.3002 470.284 88.5722 470.084C88.8442 469.884 89.1282 469.696 89.4242 469.52C89.7842 469.296 90.1002 469.092 90.3722 468.908C90.6442 468.716 90.8682 468.524 91.0442 468.332C91.2282 468.14 91.3642 467.932 91.4522 467.708C91.5482 467.484 91.5962 467.224 91.5962 466.928C91.5962 466.696 91.5522 466.488 91.4642 466.304C91.3762 466.112 91.2562 465.948 91.1042 465.812C90.9602 465.676 90.7882 465.572 90.5882 465.5C90.3882 465.428 90.1762 465.392 89.9522 465.392C89.6562 465.392 89.4002 465.456 89.1842 465.584C88.9762 465.704 88.8042 465.864 88.6682 466.064C88.5322 466.264 88.4322 466.492 88.3682 466.748C88.3122 466.996 88.2882 467.248 88.2962 467.504H87.2762ZM93.9441 467.504C93.9201 467.072 93.9641 466.672 94.0761 466.304C94.1881 465.936 94.3601 465.62 94.5921 465.356C94.8321 465.084 95.1281 464.872 95.4801 464.72C95.8321 464.568 96.2321 464.492 96.6801 464.492C97.0481 464.492 97.3921 464.548 97.7121 464.66C98.0401 464.764 98.3241 464.92 98.5641 465.128C98.8041 465.328 98.9921 465.58 99.1281 465.884C99.2721 466.188 99.3441 466.54 99.3441 466.94C99.3441 467.316 99.2841 467.648 99.1641 467.936C99.0521 468.224 98.9001 468.484 98.7081 468.716C98.5161 468.94 98.2961 469.144 98.0481 469.328C97.8001 469.512 97.5441 469.688 97.2801 469.856C97.0161 470.016 96.7521 470.176 96.4881 470.336C96.2241 470.488 95.9801 470.652 95.7561 470.828C95.5401 471.004 95.3521 471.196 95.1921 471.404C95.0401 471.604 94.9401 471.836 94.8921 472.1H99.2601V473H93.7041C93.7441 472.496 93.8321 472.068 93.9681 471.716C94.1121 471.356 94.2921 471.044 94.5081 470.78C94.7241 470.516 94.9681 470.284 95.2401 470.084C95.5121 469.884 95.7961 469.696 96.0921 469.52C96.4521 469.296 96.7681 469.092 97.0401 468.908C97.3121 468.716 97.5361 468.524 97.7121 468.332C97.8961 468.14 98.0321 467.932 98.1201 467.708C98.2161 467.484 98.2641 467.224 98.2641 466.928C98.2641 466.696 98.2201 466.488 98.1321 466.304C98.0441 466.112 97.9241 465.948 97.7721 465.812C97.6281 465.676 97.4561 465.572 97.2561 465.5C97.0561 465.428 96.8441 465.392 96.6201 465.392C96.3241 465.392 96.0681 465.456 95.8521 465.584C95.6441 465.704 95.4721 465.864 95.3361 466.064C95.2001 466.264 95.1001 466.492 95.0361 466.748C94.9801 466.996 94.9561 467.248 94.9641 467.504H93.9441ZM104.152 470.108V465.944H104.128L101.296 470.108H104.152ZM105.112 470.108H106.264V471.008H105.112V473H104.152V471.008H100.42V470.024L104.296 464.492H105.112V470.108Z" fill="white"/>
<rect x="117.5" y="661" width="218" height="8.00001" transform="rotate(-90 117.5 661)" fill="#B8B8D2"/>
<rect x="130.5" y="661" width="268" height="7.00001" transform="rotate(-90 130.5 661)" fill="#36F097"/>
<rect x="142.5" y="661" width="303" height="8" transform="rotate(-90 142.5 661)" fill="#1F5CFA"/>
<path d="M132.178 678.136V683.668H131.194V678.136H132.178ZM127.99 682.336V679.504H124.882V682.336H127.99ZM128.95 678.724V683.116H123.922V678.724H128.95ZM126.202 687.988H132.55V688.768H125.242V686.068H131.206V684.976H125.206V684.208H132.178V686.8H126.202V687.988ZM135.561 681.292C135.561 682.3 136.329 683.008 137.409 683.008C138.477 683.008 139.257 682.3 139.257 681.292C139.257 680.284 138.477 679.588 137.409 679.588C136.329 679.588 135.561 680.284 135.561 681.292ZM140.217 681.292C140.217 682.792 139.029 683.836 137.409 683.836C135.777 683.836 134.601 682.792 134.601 681.292C134.601 679.804 135.777 678.772 137.409 678.772C139.029 678.772 140.217 679.804 140.217 681.292ZM139.329 688.096C140.913 688.096 141.885 687.628 141.885 686.86C141.885 686.08 140.913 685.624 139.329 685.624C137.733 685.624 136.761 686.08 136.761 686.86C136.761 687.628 137.733 688.096 139.329 688.096ZM139.329 684.844C141.501 684.844 142.869 685.576 142.869 686.86C142.869 688.132 141.501 688.876 139.329 688.876C137.145 688.876 135.777 688.132 135.777 686.86C135.777 685.576 137.145 684.844 139.329 684.844ZM144.321 680.536H142.761V682.024H144.321V682.84H142.761V684.508H141.777V678.136H142.761V679.732H144.321V680.536Z" fill="white" fill-opacity="0.6"/>
<path d="M108.526 432.504C108.502 432.072 108.546 431.672 108.658 431.304C108.77 430.936 108.942 430.62 109.174 430.356C109.414 430.084 109.71 429.872 110.062 429.72C110.414 429.568 110.814 429.492 111.262 429.492C111.63 429.492 111.974 429.548 112.294 429.66C112.622 429.764 112.906 429.92 113.146 430.128C113.386 430.328 113.574 430.58 113.71 430.884C113.854 431.188 113.926 431.54 113.926 431.94C113.926 432.316 113.866 432.648 113.746 432.936C113.634 433.224 113.482 433.484 113.29 433.716C113.098 433.94 112.878 434.144 112.63 434.328C112.382 434.512 112.126 434.688 111.862 434.856C111.598 435.016 111.334 435.176 111.07 435.336C110.806 435.488 110.562 435.652 110.338 435.828C110.122 436.004 109.934 436.196 109.774 436.404C109.622 436.604 109.522 436.836 109.474 437.1H113.842V438H108.286C108.326 437.496 108.414 437.068 108.55 436.716C108.694 436.356 108.874 436.044 109.09 435.78C109.306 435.516 109.55 435.284 109.822 435.084C110.094 434.884 110.378 434.696 110.674 434.52C111.034 434.296 111.35 434.092 111.622 433.908C111.894 433.716 112.118 433.524 112.294 433.332C112.478 433.14 112.614 432.932 112.702 432.708C112.798 432.484 112.846 432.224 112.846 431.928C112.846 431.696 112.802 431.488 112.714 431.304C112.626 431.112 112.506 430.948 112.354 430.812C112.21 430.676 112.038 430.572 111.838 430.5C111.638 430.428 111.426 430.392 111.202 430.392C110.906 430.392 110.65 430.456 110.434 430.584C110.226 430.704 110.054 430.864 109.918 431.064C109.782 431.264 109.682 431.492 109.618 431.748C109.562 431.996 109.538 432.248 109.546 432.504H108.526ZM116.274 435.948C116.314 436.364 116.482 436.684 116.778 436.908C117.074 437.132 117.426 437.244 117.834 437.244C118.458 437.244 118.926 436.976 119.238 436.44C119.55 435.896 119.722 435.068 119.754 433.956L119.73 433.932C119.538 434.292 119.266 434.58 118.914 434.796C118.562 435.004 118.178 435.108 117.762 435.108C117.33 435.108 116.946 435.04 116.61 434.904C116.274 434.76 115.99 434.564 115.758 434.316C115.534 434.068 115.362 433.768 115.242 433.416C115.13 433.064 115.074 432.68 115.074 432.264C115.074 431.856 115.142 431.484 115.278 431.148C115.414 430.804 115.606 430.512 115.854 430.272C116.102 430.024 116.398 429.832 116.742 429.696C117.086 429.56 117.462 429.492 117.87 429.492C118.27 429.492 118.646 429.556 118.998 429.684C119.35 429.804 119.658 430.016 119.922 430.32C120.186 430.624 120.394 431.04 120.546 431.568C120.706 432.088 120.786 432.752 120.786 433.56C120.786 435.032 120.55 436.164 120.078 436.956C119.614 437.74 118.866 438.132 117.834 438.132C117.122 438.132 116.53 437.952 116.058 437.592C115.586 437.232 115.318 436.684 115.254 435.948H116.274ZM119.574 432.336C119.574 432.072 119.534 431.824 119.454 431.592C119.382 431.36 119.27 431.156 119.118 430.98C118.974 430.796 118.794 430.652 118.578 430.548C118.362 430.444 118.11 430.392 117.822 430.392C117.518 430.392 117.258 430.448 117.042 430.56C116.834 430.672 116.662 430.824 116.526 431.016C116.398 431.2 116.302 431.412 116.238 431.652C116.182 431.892 116.154 432.144 116.154 432.408C116.154 432.64 116.194 432.864 116.274 433.08C116.362 433.296 116.478 433.488 116.622 433.656C116.774 433.824 116.95 433.96 117.15 434.064C117.358 434.16 117.586 434.208 117.834 434.208C118.098 434.208 118.338 434.16 118.554 434.064C118.77 433.96 118.954 433.824 119.106 433.656C119.258 433.48 119.374 433.28 119.454 433.056C119.534 432.824 119.574 432.584 119.574 432.336ZM125.606 438H124.586V431.904H122.378V431.088C122.666 431.088 122.946 431.068 123.218 431.028C123.49 430.98 123.734 430.896 123.95 430.776C124.174 430.656 124.362 430.492 124.514 430.284C124.666 430.076 124.77 429.812 124.826 429.492H125.606V438Z" fill="white"/>
<path d="M125.614 385.14C125.654 385.148 125.69 385.152 125.722 385.152C125.762 385.152 125.802 385.152 125.842 385.152H126.058C126.274 385.152 126.478 385.124 126.67 385.068C126.87 385.004 127.042 384.916 127.186 384.804C127.338 384.684 127.458 384.536 127.546 384.36C127.634 384.184 127.678 383.984 127.678 383.76C127.678 383.304 127.534 382.964 127.246 382.74C126.958 382.508 126.598 382.392 126.166 382.392C125.894 382.392 125.654 382.444 125.446 382.548C125.246 382.644 125.078 382.776 124.942 382.944C124.814 383.112 124.718 383.308 124.654 383.532C124.59 383.756 124.558 383.992 124.558 384.24H123.538C123.554 383.832 123.618 383.46 123.73 383.124C123.85 382.788 124.018 382.5 124.234 382.26C124.45 382.02 124.718 381.832 125.038 381.696C125.366 381.56 125.742 381.492 126.166 381.492C126.534 381.492 126.874 381.54 127.186 381.636C127.506 381.724 127.782 381.86 128.014 382.044C128.246 382.228 128.426 382.464 128.554 382.752C128.69 383.04 128.758 383.38 128.758 383.772C128.758 384.156 128.646 384.496 128.422 384.792C128.198 385.088 127.918 385.312 127.582 385.464V385.488C128.102 385.6 128.486 385.844 128.734 386.22C128.99 386.596 129.118 387.04 129.118 387.552C129.118 387.976 129.038 388.352 128.878 388.68C128.726 389 128.518 389.268 128.254 389.484C127.99 389.7 127.678 389.864 127.318 389.976C126.966 390.08 126.59 390.132 126.19 390.132C125.758 390.132 125.366 390.072 125.014 389.952C124.662 389.832 124.362 389.656 124.114 389.424C123.866 389.184 123.674 388.892 123.538 388.548C123.41 388.204 123.35 387.812 123.358 387.372H124.378C124.394 387.924 124.554 388.376 124.858 388.728C125.162 389.072 125.606 389.244 126.19 389.244C126.438 389.244 126.674 389.208 126.898 389.136C127.122 389.056 127.318 388.948 127.486 388.812C127.654 388.668 127.786 388.496 127.882 388.296C127.986 388.088 128.038 387.856 128.038 387.6C128.038 387.336 127.99 387.104 127.894 386.904C127.798 386.696 127.67 386.524 127.51 386.388C127.35 386.244 127.158 386.14 126.934 386.076C126.718 386.004 126.482 385.968 126.226 385.968C126.01 385.968 125.806 385.98 125.614 386.004V385.14ZM131.25 385.812C131.25 386.132 131.258 386.492 131.274 386.892C131.298 387.284 131.362 387.656 131.466 388.008C131.578 388.352 131.754 388.644 131.994 388.884C132.234 389.124 132.57 389.244 133.002 389.244C133.434 389.244 133.77 389.124 134.01 388.884C134.25 388.644 134.422 388.352 134.526 388.008C134.638 387.656 134.702 387.284 134.718 386.892C134.742 386.492 134.754 386.132 134.754 385.812C134.754 385.604 134.75 385.376 134.742 385.128C134.742 384.872 134.722 384.62 134.682 384.372C134.65 384.116 134.598 383.868 134.526 383.628C134.462 383.388 134.362 383.18 134.226 383.004C134.098 382.82 133.934 382.672 133.734 382.56C133.534 382.448 133.29 382.392 133.002 382.392C132.714 382.392 132.47 382.448 132.27 382.56C132.07 382.672 131.902 382.82 131.766 383.004C131.638 383.18 131.538 383.388 131.466 383.628C131.402 383.868 131.35 384.116 131.31 384.372C131.278 384.62 131.258 384.872 131.25 385.128C131.25 385.376 131.25 385.604 131.25 385.812ZM130.17 385.824C130.17 385.512 130.178 385.188 130.194 384.852C130.21 384.516 130.25 384.188 130.314 383.868C130.378 383.548 130.47 383.244 130.59 382.956C130.71 382.668 130.874 382.416 131.082 382.2C131.29 381.984 131.55 381.812 131.862 381.684C132.182 381.556 132.562 381.492 133.002 381.492C133.442 381.492 133.818 381.556 134.13 381.684C134.45 381.812 134.714 381.984 134.922 382.2C135.13 382.416 135.294 382.668 135.414 382.956C135.534 383.244 135.626 383.548 135.69 383.868C135.754 384.188 135.794 384.516 135.81 384.852C135.826 385.188 135.834 385.512 135.834 385.824C135.834 386.136 135.826 386.46 135.81 386.796C135.794 387.132 135.754 387.46 135.69 387.78C135.626 388.1 135.534 388.404 135.414 388.692C135.294 388.972 135.13 389.22 134.922 389.436C134.714 389.652 134.454 389.824 134.142 389.952C133.83 390.072 133.45 390.132 133.002 390.132C132.562 390.132 132.182 390.072 131.862 389.952C131.55 389.824 131.29 389.652 131.082 389.436C130.874 389.22 130.71 388.972 130.59 388.692C130.47 388.404 130.378 388.1 130.314 387.78C130.25 387.46 130.21 387.132 130.194 386.796C130.178 386.46 130.17 386.136 130.17 385.824ZM138.95 385.14C138.99 385.148 139.026 385.152 139.058 385.152C139.098 385.152 139.138 385.152 139.178 385.152H139.394C139.61 385.152 139.814 385.124 140.006 385.068C140.206 385.004 140.378 384.916 140.522 384.804C140.674 384.684 140.794 384.536 140.882 384.36C140.97 384.184 141.014 383.984 141.014 383.76C141.014 383.304 140.87 382.964 140.582 382.74C140.294 382.508 139.934 382.392 139.502 382.392C139.23 382.392 138.99 382.444 138.782 382.548C138.582 382.644 138.414 382.776 138.278 382.944C138.15 383.112 138.054 383.308 137.99 383.532C137.926 383.756 137.894 383.992 137.894 384.24H136.874C136.89 383.832 136.954 383.46 137.066 383.124C137.186 382.788 137.354 382.5 137.57 382.26C137.786 382.02 138.054 381.832 138.374 381.696C138.702 381.56 139.078 381.492 139.502 381.492C139.87 381.492 140.21 381.54 140.522 381.636C140.842 381.724 141.118 381.86 141.35 382.044C141.582 382.228 141.762 382.464 141.89 382.752C142.026 383.04 142.094 383.38 142.094 383.772C142.094 384.156 141.982 384.496 141.758 384.792C141.534 385.088 141.254 385.312 140.918 385.464V385.488C141.438 385.6 141.822 385.844 142.07 386.22C142.326 386.596 142.454 387.04 142.454 387.552C142.454 387.976 142.374 388.352 142.214 388.68C142.062 389 141.854 389.268 141.59 389.484C141.326 389.7 141.014 389.864 140.654 389.976C140.302 390.08 139.926 390.132 139.526 390.132C139.094 390.132 138.702 390.072 138.35 389.952C137.998 389.832 137.698 389.656 137.45 389.424C137.202 389.184 137.01 388.892 136.874 388.548C136.746 388.204 136.686 387.812 136.694 387.372H137.714C137.73 387.924 137.89 388.376 138.194 388.728C138.498 389.072 138.942 389.244 139.526 389.244C139.774 389.244 140.01 389.208 140.234 389.136C140.458 389.056 140.654 388.948 140.822 388.812C140.99 388.668 141.122 388.496 141.218 388.296C141.322 388.088 141.374 387.856 141.374 387.6C141.374 387.336 141.326 387.104 141.23 386.904C141.134 386.696 141.006 386.524 140.846 386.388C140.686 386.244 140.494 386.14 140.27 386.076C140.054 386.004 139.818 385.968 139.562 385.968C139.346 385.968 139.142 385.98 138.95 386.004V385.14Z" fill="white"/>
<path d="M140.614 348.14C140.654 348.148 140.69 348.152 140.722 348.152C140.762 348.152 140.802 348.152 140.842 348.152H141.058C141.274 348.152 141.478 348.124 141.67 348.068C141.87 348.004 142.042 347.916 142.186 347.804C142.338 347.684 142.458 347.536 142.546 347.36C142.634 347.184 142.678 346.984 142.678 346.76C142.678 346.304 142.534 345.964 142.246 345.74C141.958 345.508 141.598 345.392 141.166 345.392C140.894 345.392 140.654 345.444 140.446 345.548C140.246 345.644 140.078 345.776 139.942 345.944C139.814 346.112 139.718 346.308 139.654 346.532C139.59 346.756 139.558 346.992 139.558 347.24H138.538C138.554 346.832 138.618 346.46 138.73 346.124C138.85 345.788 139.018 345.5 139.234 345.26C139.45 345.02 139.718 344.832 140.038 344.696C140.366 344.56 140.742 344.492 141.166 344.492C141.534 344.492 141.874 344.54 142.186 344.636C142.506 344.724 142.782 344.86 143.014 345.044C143.246 345.228 143.426 345.464 143.554 345.752C143.69 346.04 143.758 346.38 143.758 346.772C143.758 347.156 143.646 347.496 143.422 347.792C143.198 348.088 142.918 348.312 142.582 348.464V348.488C143.102 348.6 143.486 348.844 143.734 349.22C143.99 349.596 144.118 350.04 144.118 350.552C144.118 350.976 144.038 351.352 143.878 351.68C143.726 352 143.518 352.268 143.254 352.484C142.99 352.7 142.678 352.864 142.318 352.976C141.966 353.08 141.59 353.132 141.19 353.132C140.758 353.132 140.366 353.072 140.014 352.952C139.662 352.832 139.362 352.656 139.114 352.424C138.866 352.184 138.674 351.892 138.538 351.548C138.41 351.204 138.35 350.812 138.358 350.372H139.378C139.394 350.924 139.554 351.376 139.858 351.728C140.162 352.072 140.606 352.244 141.19 352.244C141.438 352.244 141.674 352.208 141.898 352.136C142.122 352.056 142.318 351.948 142.486 351.812C142.654 351.668 142.786 351.496 142.882 351.296C142.986 351.088 143.038 350.856 143.038 350.6C143.038 350.336 142.99 350.104 142.894 349.904C142.798 349.696 142.67 349.524 142.51 349.388C142.35 349.244 142.158 349.14 141.934 349.076C141.718 349.004 141.482 348.968 141.226 348.968C141.01 348.968 140.806 348.98 140.614 349.004V348.14ZM148.734 350.108V345.944H148.71L145.878 350.108H148.734ZM149.694 350.108H150.846V351.008H149.694V353H148.734V351.008H145.002V350.024L148.878 344.492H149.694V350.108ZM152.942 350.948C152.982 351.364 153.15 351.684 153.446 351.908C153.742 352.132 154.094 352.244 154.502 352.244C155.126 352.244 155.594 351.976 155.906 351.44C156.218 350.896 156.39 350.068 156.422 348.956L156.398 348.932C156.206 349.292 155.934 349.58 155.582 349.796C155.23 350.004 154.846 350.108 154.43 350.108C153.998 350.108 153.614 350.04 153.278 349.904C152.942 349.76 152.658 349.564 152.426 349.316C152.202 349.068 152.03 348.768 151.91 348.416C151.798 348.064 151.742 347.68 151.742 347.264C151.742 346.856 151.81 346.484 151.946 346.148C152.082 345.804 152.274 345.512 152.522 345.272C152.77 345.024 153.066 344.832 153.41 344.696C153.754 344.56 154.13 344.492 154.538 344.492C154.938 344.492 155.314 344.556 155.666 344.684C156.018 344.804 156.326 345.016 156.59 345.32C156.854 345.624 157.062 346.04 157.214 346.568C157.374 347.088 157.454 347.752 157.454 348.56C157.454 350.032 157.218 351.164 156.746 351.956C156.282 352.74 155.534 353.132 154.502 353.132C153.79 353.132 153.198 352.952 152.726 352.592C152.254 352.232 151.986 351.684 151.922 350.948H152.942ZM156.242 347.336C156.242 347.072 156.202 346.824 156.122 346.592C156.05 346.36 155.938 346.156 155.786 345.98C155.642 345.796 155.462 345.652 155.246 345.548C155.03 345.444 154.778 345.392 154.49 345.392C154.186 345.392 153.926 345.448 153.71 345.56C153.502 345.672 153.33 345.824 153.194 346.016C153.066 346.2 152.97 346.412 152.906 346.652C152.85 346.892 152.822 347.144 152.822 347.408C152.822 347.64 152.862 347.864 152.942 348.08C153.03 348.296 153.146 348.488 153.29 348.656C153.442 348.824 153.618 348.96 153.818 349.064C154.026 349.16 154.254 349.208 154.502 349.208C154.766 349.208 155.006 349.16 155.222 349.064C155.438 348.96 155.622 348.824 155.774 348.656C155.926 348.48 156.042 348.28 156.122 348.056C156.202 347.824 156.242 347.584 156.242 347.336Z" fill="white"/>
<rect x="169.75" y="661.231" width="4" height="8" transform="rotate(-90 169.75 661.231)" fill="#B8B8D2"/>
<rect x="182.75" y="661.231" width="4" height="8" transform="rotate(-90 182.75 661.231)" fill="#36F097"/>
<rect x="195.75" y="661.231" width="4" height="8" transform="rotate(-90 195.75 661.231)" fill="#1F5CFA"/>
<path d="M186.532 645.371C186.572 645.379 186.608 645.383 186.64 645.383C186.68 645.383 186.72 645.383 186.76 645.383H186.976C187.192 645.383 187.396 645.355 187.588 645.299C187.788 645.235 187.96 645.147 188.104 645.035C188.256 644.915 188.376 644.767 188.464 644.591C188.552 644.415 188.596 644.215 188.596 643.991C188.596 643.535 188.452 643.195 188.164 642.971C187.876 642.739 187.516 642.623 187.084 642.623C186.812 642.623 186.572 642.675 186.364 642.779C186.164 642.875 185.996 643.007 185.86 643.175C185.732 643.343 185.636 643.539 185.572 643.763C185.508 643.987 185.476 644.223 185.476 644.471H184.456C184.472 644.063 184.536 643.691 184.648 643.355C184.768 643.019 184.936 642.731 185.152 642.491C185.368 642.251 185.636 642.063 185.956 641.927C186.284 641.791 186.66 641.723 187.084 641.723C187.452 641.723 187.792 641.771 188.104 641.867C188.424 641.955 188.7 642.091 188.932 642.275C189.164 642.459 189.344 642.695 189.472 642.983C189.608 643.271 189.676 643.611 189.676 644.003C189.676 644.387 189.564 644.727 189.34 645.023C189.116 645.319 188.836 645.543 188.5 645.695V645.719C189.02 645.831 189.404 646.075 189.652 646.451C189.908 646.827 190.036 647.271 190.036 647.783C190.036 648.207 189.956 648.583 189.796 648.911C189.644 649.231 189.436 649.499 189.172 649.715C188.908 649.931 188.596 650.095 188.236 650.207C187.884 650.311 187.508 650.363 187.108 650.363C186.676 650.363 186.284 650.303 185.932 650.183C185.58 650.063 185.28 649.887 185.032 649.655C184.784 649.415 184.592 649.123 184.456 648.779C184.328 648.435 184.268 648.043 184.276 647.603H185.296C185.312 648.155 185.472 648.607 185.776 648.959C186.08 649.303 186.524 649.475 187.108 649.475C187.356 649.475 187.592 649.439 187.816 649.367C188.04 649.287 188.236 649.179 188.404 649.043C188.572 648.899 188.704 648.727 188.8 648.527C188.904 648.319 188.956 648.087 188.956 647.831C188.956 647.567 188.908 647.335 188.812 647.135C188.716 646.927 188.588 646.755 188.428 646.619C188.268 646.475 188.076 646.371 187.852 646.307C187.636 646.235 187.4 646.199 187.144 646.199C186.928 646.199 186.724 646.211 186.532 646.235V645.371Z" fill="white"/>
<path d="M198.532 645.371C198.572 645.379 198.608 645.383 198.64 645.383C198.68 645.383 198.72 645.383 198.76 645.383H198.976C199.192 645.383 199.396 645.355 199.588 645.299C199.788 645.235 199.96 645.147 200.104 645.035C200.256 644.915 200.376 644.767 200.464 644.591C200.552 644.415 200.596 644.215 200.596 643.991C200.596 643.535 200.452 643.195 200.164 642.971C199.876 642.739 199.516 642.623 199.084 642.623C198.812 642.623 198.572 642.675 198.364 642.779C198.164 642.875 197.996 643.007 197.86 643.175C197.732 643.343 197.636 643.539 197.572 643.763C197.508 643.987 197.476 644.223 197.476 644.471H196.456C196.472 644.063 196.536 643.691 196.648 643.355C196.768 643.019 196.936 642.731 197.152 642.491C197.368 642.251 197.636 642.063 197.956 641.927C198.284 641.791 198.66 641.723 199.084 641.723C199.452 641.723 199.792 641.771 200.104 641.867C200.424 641.955 200.7 642.091 200.932 642.275C201.164 642.459 201.344 642.695 201.472 642.983C201.608 643.271 201.676 643.611 201.676 644.003C201.676 644.387 201.564 644.727 201.34 645.023C201.116 645.319 200.836 645.543 200.5 645.695V645.719C201.02 645.831 201.404 646.075 201.652 646.451C201.908 646.827 202.036 647.271 202.036 647.783C202.036 648.207 201.956 648.583 201.796 648.911C201.644 649.231 201.436 649.499 201.172 649.715C200.908 649.931 200.596 650.095 200.236 650.207C199.884 650.311 199.508 650.363 199.108 650.363C198.676 650.363 198.284 650.303 197.932 650.183C197.58 650.063 197.28 649.887 197.032 649.655C196.784 649.415 196.592 649.123 196.456 648.779C196.328 648.435 196.268 648.043 196.276 647.603H197.296C197.312 648.155 197.472 648.607 197.776 648.959C198.08 649.303 198.524 649.475 199.108 649.475C199.356 649.475 199.592 649.439 199.816 649.367C200.04 649.287 200.236 649.179 200.404 649.043C200.572 648.899 200.704 648.727 200.8 648.527C200.904 648.319 200.956 648.087 200.956 647.831C200.956 647.567 200.908 647.335 200.812 647.135C200.716 646.927 200.588 646.755 200.428 646.619C200.268 646.475 200.076 646.371 199.852 646.307C199.636 646.235 199.4 646.199 199.144 646.199C198.928 646.199 198.724 646.211 198.532 646.235V645.371Z" fill="white"/>
<path d="M171.444 645.504C171.42 645.072 171.464 644.672 171.576 644.304C171.688 643.936 171.86 643.62 172.092 643.356C172.332 643.084 172.628 642.872 172.98 642.72C173.332 642.568 173.732 642.492 174.18 642.492C174.548 642.492 174.892 642.548 175.212 642.66C175.54 642.764 175.824 642.92 176.064 643.128C176.304 643.328 176.492 643.58 176.628 643.884C176.772 644.188 176.844 644.54 176.844 644.94C176.844 645.316 176.784 645.648 176.664 645.936C176.552 646.224 176.4 646.484 176.208 646.716C176.016 646.94 175.796 647.144 175.548 647.328C175.3 647.512 175.044 647.688 174.78 647.856C174.516 648.016 174.252 648.176 173.988 648.336C173.724 648.488 173.48 648.652 173.256 648.828C173.04 649.004 172.852 649.196 172.692 649.404C172.54 649.604 172.44 649.836 172.392 650.1H176.76V651H171.204C171.244 650.496 171.332 650.068 171.468 649.716C171.612 649.356 171.792 649.044 172.008 648.78C172.224 648.516 172.468 648.284 172.74 648.084C173.012 647.884 173.296 647.696 173.592 647.52C173.952 647.296 174.268 647.092 174.54 646.908C174.812 646.716 175.036 646.524 175.212 646.332C175.396 646.14 175.532 645.932 175.62 645.708C175.716 645.484 175.764 645.224 175.764 644.928C175.764 644.696 175.72 644.488 175.632 644.304C175.544 644.112 175.424 643.948 175.272 643.812C175.128 643.676 174.956 643.572 174.756 643.5C174.556 643.428 174.344 643.392 174.12 643.392C173.824 643.392 173.568 643.456 173.352 643.584C173.144 643.704 172.972 643.864 172.836 644.064C172.7 644.264 172.6 644.492 172.536 644.748C172.48 644.996 172.456 645.248 172.464 645.504H171.444Z" fill="white"/>
<path d="M178.698 684.484H180.882V678.124H181.866V686.32H180.882V685.216H178.698V684.484ZM176.502 679.288C175.482 679.288 174.786 679.744 174.786 680.428C174.786 681.124 175.482 681.58 176.502 681.58C177.522 681.58 178.218 681.124 178.218 680.428C178.218 679.744 177.522 679.288 176.502 679.288ZM176.502 682.312C174.93 682.312 173.85 681.58 173.85 680.428C173.85 679.3 174.93 678.556 176.502 678.556C178.074 678.556 179.154 679.3 179.154 680.428C179.154 681.58 178.074 682.312 176.502 682.312ZM176.118 685.936V683.86C175.05 683.908 174.018 683.92 173.13 683.92L172.998 683.104C174.99 683.104 177.654 683.08 179.934 682.792L180.018 683.5C179.07 683.644 178.074 683.752 177.102 683.812V685.936H176.118ZM175.518 687.844H182.142V688.648H174.534V685.516H175.518V687.844ZM185.057 683.356L184.685 682.576C186.557 682.3 188.417 681.064 188.417 679.648V679.588H185.021V678.796H192.881V679.588H189.509V679.648C189.509 681.064 191.369 682.3 193.265 682.576L192.881 683.356C191.213 683.068 189.617 682.168 188.969 680.896C188.309 682.168 186.725 683.068 185.057 683.356ZM193.829 684.256L193.841 685.06H189.437V688.888H188.453V685.06H184.109V684.256H193.829Z" fill="white" fill-opacity="0.6"/>
<rect x="219" y="662.231" width="24" height="8" transform="rotate(-90 219 662.231)" fill="#B8B8D2"/>
<rect x="232" y="662.231" width="28" height="8" transform="rotate(-90 232 662.231)" fill="#36F097"/>
<rect x="245" y="662.231" width="28" height="8" transform="rotate(-90 245 662.231)" fill="#1F5CFA"/>
<path d="M233.198 684.484H235.382V678.124H236.366V686.32H235.382V685.216H233.198V684.484ZM231.002 679.288C229.982 679.288 229.286 679.744 229.286 680.428C229.286 681.124 229.982 681.58 231.002 681.58C232.022 681.58 232.718 681.124 232.718 680.428C232.718 679.744 232.022 679.288 231.002 679.288ZM231.002 682.312C229.43 682.312 228.35 681.58 228.35 680.428C228.35 679.3 229.43 678.556 231.002 678.556C232.574 678.556 233.654 679.3 233.654 680.428C233.654 681.58 232.574 682.312 231.002 682.312ZM230.618 685.936V683.86C229.55 683.908 228.518 683.92 227.63 683.92L227.498 683.104C229.49 683.104 232.154 683.08 234.434 682.792L234.518 683.5C233.57 683.644 232.574 683.752 231.602 683.812V685.936H230.618ZM230.018 687.844H236.642V688.648H229.034V685.516H230.018V687.844ZM239.557 683.356L239.185 682.576C241.057 682.3 242.917 681.064 242.917 679.648V679.588H239.521V678.796H247.381V679.588H244.009V679.648C244.009 681.064 245.869 682.3 247.765 682.576L247.381 683.356C245.713 683.068 244.117 682.168 243.469 680.896C242.809 682.168 241.225 683.068 239.557 683.356ZM248.329 684.256L248.341 685.06H243.937V688.888H242.953V685.06H238.609V684.256H248.329Z" fill="white" fill-opacity="0.6"/>
<path d="M232.948 625.14C232.988 625.148 233.024 625.152 233.056 625.152C233.096 625.152 233.136 625.152 233.176 625.152H233.392C233.608 625.152 233.812 625.124 234.004 625.068C234.204 625.004 234.376 624.916 234.52 624.804C234.672 624.684 234.792 624.536 234.88 624.36C234.968 624.184 235.012 623.984 235.012 623.76C235.012 623.304 234.868 622.964 234.58 622.74C234.292 622.508 233.932 622.392 233.5 622.392C233.228 622.392 232.988 622.444 232.78 622.548C232.58 622.644 232.412 622.776 232.276 622.944C232.148 623.112 232.052 623.308 231.988 623.532C231.924 623.756 231.892 623.992 231.892 624.24H230.872C230.888 623.832 230.952 623.46 231.064 623.124C231.184 622.788 231.352 622.5 231.568 622.26C231.784 622.02 232.052 621.832 232.372 621.696C232.7 621.56 233.076 621.492 233.5 621.492C233.868 621.492 234.208 621.54 234.52 621.636C234.84 621.724 235.116 621.86 235.348 622.044C235.58 622.228 235.76 622.464 235.888 622.752C236.024 623.04 236.092 623.38 236.092 623.772C236.092 624.156 235.98 624.496 235.756 624.792C235.532 625.088 235.252 625.312 234.916 625.464V625.488C235.436 625.6 235.82 625.844 236.068 626.22C236.324 626.596 236.452 627.04 236.452 627.552C236.452 627.976 236.372 628.352 236.212 628.68C236.06 629 235.852 629.268 235.588 629.484C235.324 629.7 235.012 629.864 234.652 629.976C234.3 630.08 233.924 630.132 233.524 630.132C233.092 630.132 232.7 630.072 232.348 629.952C231.996 629.832 231.696 629.656 231.448 629.424C231.2 629.184 231.008 628.892 230.872 628.548C230.744 628.204 230.684 627.812 230.692 627.372H231.712C231.728 627.924 231.888 628.376 232.192 628.728C232.496 629.072 232.94 629.244 233.524 629.244C233.772 629.244 234.008 629.208 234.232 629.136C234.456 629.056 234.652 628.948 234.82 628.812C234.988 628.668 235.12 628.496 235.216 628.296C235.32 628.088 235.372 627.856 235.372 627.6C235.372 627.336 235.324 627.104 235.228 626.904C235.132 626.696 235.004 626.524 234.844 626.388C234.684 626.244 234.492 626.14 234.268 626.076C234.052 626.004 233.816 625.968 233.56 625.968C233.344 625.968 233.14 625.98 232.948 626.004V625.14ZM239.616 625.14C239.656 625.148 239.692 625.152 239.724 625.152C239.764 625.152 239.804 625.152 239.844 625.152H240.06C240.276 625.152 240.48 625.124 240.672 625.068C240.872 625.004 241.044 624.916 241.188 624.804C241.34 624.684 241.46 624.536 241.548 624.36C241.636 624.184 241.68 623.984 241.68 623.76C241.68 623.304 241.536 622.964 241.248 622.74C240.96 622.508 240.6 622.392 240.168 622.392C239.896 622.392 239.656 622.444 239.448 622.548C239.248 622.644 239.08 622.776 238.944 622.944C238.816 623.112 238.72 623.308 238.656 623.532C238.592 623.756 238.56 623.992 238.56 624.24H237.54C237.556 623.832 237.62 623.46 237.732 623.124C237.852 622.788 238.02 622.5 238.236 622.26C238.452 622.02 238.72 621.832 239.04 621.696C239.368 621.56 239.744 621.492 240.168 621.492C240.536 621.492 240.876 621.54 241.188 621.636C241.508 621.724 241.784 621.86 242.016 622.044C242.248 622.228 242.428 622.464 242.556 622.752C242.692 623.04 242.76 623.38 242.76 623.772C242.76 624.156 242.648 624.496 242.424 624.792C242.2 625.088 241.92 625.312 241.584 625.464V625.488C242.104 625.6 242.488 625.844 242.736 626.22C242.992 626.596 243.12 627.04 243.12 627.552C243.12 627.976 243.04 628.352 242.88 628.68C242.728 629 242.52 629.268 242.256 629.484C241.992 629.7 241.68 629.864 241.32 629.976C240.968 630.08 240.592 630.132 240.192 630.132C239.76 630.132 239.368 630.072 239.016 629.952C238.664 629.832 238.364 629.656 238.116 629.424C237.868 629.184 237.676 628.892 237.54 628.548C237.412 628.204 237.352 627.812 237.36 627.372H238.38C238.396 627.924 238.556 628.376 238.86 628.728C239.164 629.072 239.608 629.244 240.192 629.244C240.44 629.244 240.676 629.208 240.9 629.136C241.124 629.056 241.32 628.948 241.488 628.812C241.656 628.668 241.788 628.496 241.884 628.296C241.988 628.088 242.04 627.856 242.04 627.6C242.04 627.336 241.992 627.104 241.896 626.904C241.8 626.696 241.672 626.524 241.512 626.388C241.352 626.244 241.16 626.14 240.936 626.076C240.72 626.004 240.484 625.968 240.228 625.968C240.012 625.968 239.808 625.98 239.616 626.004V625.14Z" fill="white"/>
<path d="M246.948 625.14C246.988 625.148 247.024 625.152 247.056 625.152C247.096 625.152 247.136 625.152 247.176 625.152H247.392C247.608 625.152 247.812 625.124 248.004 625.068C248.204 625.004 248.376 624.916 248.52 624.804C248.672 624.684 248.792 624.536 248.88 624.36C248.968 624.184 249.012 623.984 249.012 623.76C249.012 623.304 248.868 622.964 248.58 622.74C248.292 622.508 247.932 622.392 247.5 622.392C247.228 622.392 246.988 622.444 246.78 622.548C246.58 622.644 246.412 622.776 246.276 622.944C246.148 623.112 246.052 623.308 245.988 623.532C245.924 623.756 245.892 623.992 245.892 624.24H244.872C244.888 623.832 244.952 623.46 245.064 623.124C245.184 622.788 245.352 622.5 245.568 622.26C245.784 622.02 246.052 621.832 246.372 621.696C246.7 621.56 247.076 621.492 247.5 621.492C247.868 621.492 248.208 621.54 248.52 621.636C248.84 621.724 249.116 621.86 249.348 622.044C249.58 622.228 249.76 622.464 249.888 622.752C250.024 623.04 250.092 623.38 250.092 623.772C250.092 624.156 249.98 624.496 249.756 624.792C249.532 625.088 249.252 625.312 248.916 625.464V625.488C249.436 625.6 249.82 625.844 250.068 626.22C250.324 626.596 250.452 627.04 250.452 627.552C250.452 627.976 250.372 628.352 250.212 628.68C250.06 629 249.852 629.268 249.588 629.484C249.324 629.7 249.012 629.864 248.652 629.976C248.3 630.08 247.924 630.132 247.524 630.132C247.092 630.132 246.7 630.072 246.348 629.952C245.996 629.832 245.696 629.656 245.448 629.424C245.2 629.184 245.008 628.892 244.872 628.548C244.744 628.204 244.684 627.812 244.692 627.372H245.712C245.728 627.924 245.888 628.376 246.192 628.728C246.496 629.072 246.94 629.244 247.524 629.244C247.772 629.244 248.008 629.208 248.232 629.136C248.456 629.056 248.652 628.948 248.82 628.812C248.988 628.668 249.12 628.496 249.216 628.296C249.32 628.088 249.372 627.856 249.372 627.6C249.372 627.336 249.324 627.104 249.228 626.904C249.132 626.696 249.004 626.524 248.844 626.388C248.684 626.244 248.492 626.14 248.268 626.076C248.052 626.004 247.816 625.968 247.56 625.968C247.344 625.968 247.14 625.98 246.948 626.004V625.14ZM253.616 625.14C253.656 625.148 253.692 625.152 253.724 625.152C253.764 625.152 253.804 625.152 253.844 625.152H254.06C254.276 625.152 254.48 625.124 254.672 625.068C254.872 625.004 255.044 624.916 255.188 624.804C255.34 624.684 255.46 624.536 255.548 624.36C255.636 624.184 255.68 623.984 255.68 623.76C255.68 623.304 255.536 622.964 255.248 622.74C254.96 622.508 254.6 622.392 254.168 622.392C253.896 622.392 253.656 622.444 253.448 622.548C253.248 622.644 253.08 622.776 252.944 622.944C252.816 623.112 252.72 623.308 252.656 623.532C252.592 623.756 252.56 623.992 252.56 624.24H251.54C251.556 623.832 251.62 623.46 251.732 623.124C251.852 622.788 252.02 622.5 252.236 622.26C252.452 622.02 252.72 621.832 253.04 621.696C253.368 621.56 253.744 621.492 254.168 621.492C254.536 621.492 254.876 621.54 255.188 621.636C255.508 621.724 255.784 621.86 256.016 622.044C256.248 622.228 256.428 622.464 256.556 622.752C256.692 623.04 256.76 623.38 256.76 623.772C256.76 624.156 256.648 624.496 256.424 624.792C256.2 625.088 255.92 625.312 255.584 625.464V625.488C256.104 625.6 256.488 625.844 256.736 626.22C256.992 626.596 257.12 627.04 257.12 627.552C257.12 627.976 257.04 628.352 256.88 628.68C256.728 629 256.52 629.268 256.256 629.484C255.992 629.7 255.68 629.864 255.32 629.976C254.968 630.08 254.592 630.132 254.192 630.132C253.76 630.132 253.368 630.072 253.016 629.952C252.664 629.832 252.364 629.656 252.116 629.424C251.868 629.184 251.676 628.892 251.54 628.548C251.412 628.204 251.352 627.812 251.36 627.372H252.38C252.396 627.924 252.556 628.376 252.86 628.728C253.164 629.072 253.608 629.244 254.192 629.244C254.44 629.244 254.676 629.208 254.9 629.136C255.124 629.056 255.32 628.948 255.488 628.812C255.656 628.668 255.788 628.496 255.884 628.296C255.988 628.088 256.04 627.856 256.04 627.6C256.04 627.336 255.992 627.104 255.896 626.904C255.8 626.696 255.672 626.524 255.512 626.388C255.352 626.244 255.16 626.14 254.936 626.076C254.72 626.004 254.484 625.968 254.228 625.968C254.012 625.968 253.808 625.98 253.616 626.004V625.14Z" fill="white"/>
<path d="M218.948 629.14C218.988 629.148 219.024 629.152 219.056 629.152C219.096 629.152 219.136 629.152 219.176 629.152H219.392C219.608 629.152 219.812 629.124 220.004 629.068C220.204 629.004 220.376 628.916 220.52 628.804C220.672 628.684 220.792 628.536 220.88 628.36C220.968 628.184 221.012 627.984 221.012 627.76C221.012 627.304 220.868 626.964 220.58 626.74C220.292 626.508 219.932 626.392 219.5 626.392C219.228 626.392 218.988 626.444 218.78 626.548C218.58 626.644 218.412 626.776 218.276 626.944C218.148 627.112 218.052 627.308 217.988 627.532C217.924 627.756 217.892 627.992 217.892 628.24H216.872C216.888 627.832 216.952 627.46 217.064 627.124C217.184 626.788 217.352 626.5 217.568 626.26C217.784 626.02 218.052 625.832 218.372 625.696C218.7 625.56 219.076 625.492 219.5 625.492C219.868 625.492 220.208 625.54 220.52 625.636C220.84 625.724 221.116 625.86 221.348 626.044C221.58 626.228 221.76 626.464 221.888 626.752C222.024 627.04 222.092 627.38 222.092 627.772C222.092 628.156 221.98 628.496 221.756 628.792C221.532 629.088 221.252 629.312 220.916 629.464V629.488C221.436 629.6 221.82 629.844 222.068 630.22C222.324 630.596 222.452 631.04 222.452 631.552C222.452 631.976 222.372 632.352 222.212 632.68C222.06 633 221.852 633.268 221.588 633.484C221.324 633.7 221.012 633.864 220.652 633.976C220.3 634.08 219.924 634.132 219.524 634.132C219.092 634.132 218.7 634.072 218.348 633.952C217.996 633.832 217.696 633.656 217.448 633.424C217.2 633.184 217.008 632.892 216.872 632.548C216.744 632.204 216.684 631.812 216.692 631.372H217.712C217.728 631.924 217.888 632.376 218.192 632.728C218.496 633.072 218.94 633.244 219.524 633.244C219.772 633.244 220.008 633.208 220.232 633.136C220.456 633.056 220.652 632.948 220.82 632.812C220.988 632.668 221.12 632.496 221.216 632.296C221.32 632.088 221.372 631.856 221.372 631.6C221.372 631.336 221.324 631.104 221.228 630.904C221.132 630.696 221.004 630.524 220.844 630.388C220.684 630.244 220.492 630.14 220.268 630.076C220.052 630.004 219.816 629.968 219.56 629.968C219.344 629.968 219.14 629.98 218.948 630.004V629.14ZM227.272 634H226.252V627.904H224.044V627.088C224.332 627.088 224.612 627.068 224.884 627.028C225.156 626.98 225.4 626.896 225.616 626.776C225.84 626.656 226.028 626.492 226.18 626.284C226.332 626.076 226.436 625.812 226.492 625.492H227.272V634Z" fill="white"/>
<rect x="273.25" y="661" width="53" height="8" transform="rotate(-90 273.25 661)" fill="#B8B8D2"/>
<rect x="286.25" y="661" width="49" height="8" transform="rotate(-90 286.25 661)" fill="#36F097"/>
<rect x="299.25" y="661" width="57" height="8" transform="rotate(-90 299.25 661)" fill="#1F5CFA"/>
<path d="M285.698 684.484H287.882V678.124H288.866V686.32H287.882V685.216H285.698V684.484ZM283.502 679.288C282.482 679.288 281.786 679.744 281.786 680.428C281.786 681.124 282.482 681.58 283.502 681.58C284.522 681.58 285.218 681.124 285.218 680.428C285.218 679.744 284.522 679.288 283.502 679.288ZM283.502 682.312C281.93 682.312 280.85 681.58 280.85 680.428C280.85 679.3 281.93 678.556 283.502 678.556C285.074 678.556 286.154 679.3 286.154 680.428C286.154 681.58 285.074 682.312 283.502 682.312ZM283.118 685.936V683.86C282.05 683.908 281.018 683.92 280.13 683.92L279.998 683.104C281.99 683.104 284.654 683.08 286.934 682.792L287.018 683.5C286.07 683.644 285.074 683.752 284.102 683.812V685.936H283.118ZM282.518 687.844H289.142V688.648H281.534V685.516H282.518V687.844ZM292.057 683.356L291.685 682.576C293.557 682.3 295.417 681.064 295.417 679.648V679.588H292.021V678.796H299.881V679.588H296.509V679.648C296.509 681.064 298.369 682.3 300.265 682.576L299.881 683.356C298.213 683.068 296.617 682.168 295.969 680.896C295.309 682.168 293.725 683.068 292.057 683.356ZM300.829 684.256L300.841 685.06H296.437V688.888H295.453V685.06H291.109V684.256H300.829Z" fill="white" fill-opacity="0.6"/>
<path d="M287.65 603.108V598.944H287.626L284.794 603.108H287.65ZM288.61 603.108H289.762V604.008H288.61V606H287.65V604.008H283.918V603.024L287.794 597.492H288.61V603.108ZM291.858 603.948C291.898 604.364 292.066 604.684 292.362 604.908C292.658 605.132 293.01 605.244 293.418 605.244C294.042 605.244 294.51 604.976 294.822 604.44C295.134 603.896 295.306 603.068 295.338 601.956L295.314 601.932C295.122 602.292 294.85 602.58 294.498 602.796C294.146 603.004 293.762 603.108 293.346 603.108C292.914 603.108 292.53 603.04 292.194 602.904C291.858 602.76 291.574 602.564 291.342 602.316C291.118 602.068 290.946 601.768 290.826 601.416C290.714 601.064 290.658 600.68 290.658 600.264C290.658 599.856 290.726 599.484 290.862 599.148C290.998 598.804 291.19 598.512 291.438 598.272C291.686 598.024 291.982 597.832 292.326 597.696C292.67 597.56 293.046 597.492 293.454 597.492C293.854 597.492 294.23 597.556 294.582 597.684C294.934 597.804 295.242 598.016 295.506 598.32C295.77 598.624 295.978 599.04 296.13 599.568C296.29 600.088 296.37 600.752 296.37 601.56C296.37 603.032 296.134 604.164 295.662 604.956C295.198 605.74 294.45 606.132 293.418 606.132C292.706 606.132 292.114 605.952 291.642 605.592C291.17 605.232 290.902 604.684 290.838 603.948H291.858ZM295.158 600.336C295.158 600.072 295.118 599.824 295.038 599.592C294.966 599.36 294.854 599.156 294.702 598.98C294.558 598.796 294.378 598.652 294.162 598.548C293.946 598.444 293.694 598.392 293.406 598.392C293.102 598.392 292.842 598.448 292.626 598.56C292.418 598.672 292.246 598.824 292.11 599.016C291.982 599.2 291.886 599.412 291.822 599.652C291.766 599.892 291.738 600.144 291.738 600.408C291.738 600.64 291.778 600.864 291.858 601.08C291.946 601.296 292.062 601.488 292.206 601.656C292.358 601.824 292.534 601.96 292.734 602.064C292.942 602.16 293.17 602.208 293.418 602.208C293.682 602.208 293.922 602.16 294.138 602.064C294.354 601.96 294.538 601.824 294.69 601.656C294.842 601.48 294.958 601.28 295.038 601.056C295.118 600.824 295.158 600.584 295.158 600.336Z" fill="white"/>
<path d="M302.222 588.536H298.79L298.334 590.984L298.358 591.008C298.542 590.8 298.778 590.648 299.066 590.552C299.362 590.448 299.654 590.396 299.942 590.396C300.318 590.396 300.674 590.456 301.01 590.576C301.346 590.696 301.638 590.88 301.886 591.128C302.134 591.368 302.33 591.672 302.474 592.04C302.618 592.4 302.69 592.824 302.69 593.312C302.69 593.672 302.626 594.024 302.498 594.368C302.378 594.704 302.194 595.004 301.946 595.268C301.698 595.532 301.386 595.744 301.01 595.904C300.642 596.056 300.21 596.132 299.714 596.132C299.346 596.132 298.998 596.08 298.67 595.976C298.35 595.864 298.066 595.708 297.818 595.508C297.57 595.3 297.374 595.044 297.23 594.74C297.086 594.436 297.01 594.092 297.002 593.708H298.022C298.038 593.924 298.09 594.128 298.178 594.32C298.274 594.504 298.398 594.668 298.55 594.812C298.71 594.948 298.894 595.056 299.102 595.136C299.318 595.208 299.554 595.244 299.81 595.244C300.05 595.244 300.278 595.204 300.494 595.124C300.718 595.036 300.91 594.908 301.07 594.74C301.238 594.572 301.37 594.364 301.466 594.116C301.562 593.86 301.61 593.564 301.61 593.228C301.61 592.948 301.562 592.692 301.466 592.46C301.378 592.22 301.25 592.016 301.082 591.848C300.914 591.672 300.71 591.536 300.47 591.44C300.238 591.344 299.978 591.296 299.69 591.296C299.354 591.296 299.054 591.372 298.79 591.524C298.534 591.668 298.306 591.86 298.106 592.1L297.23 592.052L298.022 587.636H302.222V588.536ZM307.522 596H306.502V589.904H304.294V589.088C304.582 589.088 304.862 589.068 305.134 589.028C305.406 588.98 305.65 588.896 305.866 588.776C306.09 588.656 306.278 588.492 306.43 588.284C306.582 588.076 306.686 587.812 306.742 587.492H307.522V596Z" fill="white"/>
<path d="M276.222 594.536H272.79L272.334 596.984L272.358 597.008C272.542 596.8 272.778 596.648 273.066 596.552C273.362 596.448 273.654 596.396 273.942 596.396C274.318 596.396 274.674 596.456 275.01 596.576C275.346 596.696 275.638 596.88 275.886 597.128C276.134 597.368 276.33 597.672 276.474 598.04C276.618 598.4 276.69 598.824 276.69 599.312C276.69 599.672 276.626 600.024 276.498 600.368C276.378 600.704 276.194 601.004 275.946 601.268C275.698 601.532 275.386 601.744 275.01 601.904C274.642 602.056 274.21 602.132 273.714 602.132C273.346 602.132 272.998 602.08 272.67 601.976C272.35 601.864 272.066 601.708 271.818 601.508C271.57 601.3 271.374 601.044 271.23 600.74C271.086 600.436 271.01 600.092 271.002 599.708H272.022C272.038 599.924 272.09 600.128 272.178 600.32C272.274 600.504 272.398 600.668 272.55 600.812C272.71 600.948 272.894 601.056 273.102 601.136C273.318 601.208 273.554 601.244 273.81 601.244C274.05 601.244 274.278 601.204 274.494 601.124C274.718 601.036 274.91 600.908 275.07 600.74C275.238 600.572 275.37 600.364 275.466 600.116C275.562 599.86 275.61 599.564 275.61 599.228C275.61 598.948 275.562 598.692 275.466 598.46C275.378 598.22 275.25 598.016 275.082 597.848C274.914 597.672 274.71 597.536 274.47 597.44C274.238 597.344 273.978 597.296 273.69 597.296C273.354 597.296 273.054 597.372 272.79 597.524C272.534 597.668 272.306 597.86 272.106 598.1L271.23 598.052L272.022 593.636H276.222V594.536ZM278.834 597.812C278.834 598.132 278.842 598.492 278.858 598.892C278.882 599.284 278.946 599.656 279.05 600.008C279.162 600.352 279.338 600.644 279.578 600.884C279.818 601.124 280.154 601.244 280.586 601.244C281.018 601.244 281.354 601.124 281.594 600.884C281.834 600.644 282.006 600.352 282.11 600.008C282.222 599.656 282.286 599.284 282.302 598.892C282.326 598.492 282.338 598.132 282.338 597.812C282.338 597.604 282.334 597.376 282.326 597.128C282.326 596.872 282.306 596.62 282.266 596.372C282.234 596.116 282.182 595.868 282.11 595.628C282.046 595.388 281.946 595.18 281.81 595.004C281.682 594.82 281.518 594.672 281.318 594.56C281.118 594.448 280.874 594.392 280.586 594.392C280.298 594.392 280.054 594.448 279.854 594.56C279.654 594.672 279.486 594.82 279.35 595.004C279.222 595.18 279.122 595.388 279.05 595.628C278.986 595.868 278.934 596.116 278.894 596.372C278.862 596.62 278.842 596.872 278.834 597.128C278.834 597.376 278.834 597.604 278.834 597.812ZM277.754 597.824C277.754 597.512 277.762 597.188 277.778 596.852C277.794 596.516 277.834 596.188 277.898 595.868C277.962 595.548 278.054 595.244 278.174 594.956C278.294 594.668 278.458 594.416 278.666 594.2C278.874 593.984 279.134 593.812 279.446 593.684C279.766 593.556 280.146 593.492 280.586 593.492C281.026 593.492 281.402 593.556 281.714 593.684C282.034 593.812 282.298 593.984 282.506 594.2C282.714 594.416 282.878 594.668 282.998 594.956C283.118 595.244 283.21 595.548 283.274 595.868C283.338 596.188 283.378 596.516 283.394 596.852C283.41 597.188 283.418 597.512 283.418 597.824C283.418 598.136 283.41 598.46 283.394 598.796C283.378 599.132 283.338 599.46 283.274 599.78C283.21 600.1 283.118 600.404 282.998 600.692C282.878 600.972 282.714 601.22 282.506 601.436C282.298 601.652 282.038 601.824 281.726 601.952C281.414 602.072 281.034 602.132 280.586 602.132C280.146 602.132 279.766 602.072 279.446 601.952C279.134 601.824 278.874 601.652 278.666 601.436C278.458 601.22 278.294 600.972 278.174 600.692C278.054 600.404 277.962 600.1 277.898 599.78C277.834 599.46 277.794 599.132 277.778 598.796C277.762 598.46 277.754 598.136 277.754 597.824Z" fill="white"/>
<rect x="323.5" y="661" width="18" height="8" transform="rotate(-90 323.5 661)" fill="#B8B8D2"/>
<rect x="336.5" y="661" width="21" height="8" transform="rotate(-90 336.5 661)" fill="#36F097"/>
<rect x="349.5" y="661" width="25" height="8" transform="rotate(-90 349.5 661)" fill="#1F5CFA"/>
<path d="M340.178 677.136V682.668H339.194V677.136H340.178ZM335.99 681.336V678.504H332.882V681.336H335.99ZM336.95 677.724V682.116H331.922V677.724H336.95ZM334.202 686.988H340.55V687.768H333.242V685.068H339.206V683.976H333.206V683.208H340.178V685.8H334.202V686.988ZM343.561 680.292C343.561 681.3 344.329 682.008 345.409 682.008C346.477 682.008 347.257 681.3 347.257 680.292C347.257 679.284 346.477 678.588 345.409 678.588C344.329 678.588 343.561 679.284 343.561 680.292ZM348.217 680.292C348.217 681.792 347.029 682.836 345.409 682.836C343.777 682.836 342.601 681.792 342.601 680.292C342.601 678.804 343.777 677.772 345.409 677.772C347.029 677.772 348.217 678.804 348.217 680.292ZM347.329 687.096C348.913 687.096 349.885 686.628 349.885 685.86C349.885 685.08 348.913 684.624 347.329 684.624C345.733 684.624 344.761 685.08 344.761 685.86C344.761 686.628 345.733 687.096 347.329 687.096ZM347.329 683.844C349.501 683.844 350.869 684.576 350.869 685.86C350.869 687.132 349.501 687.876 347.329 687.876C345.145 687.876 343.777 687.132 343.777 685.86C343.777 684.576 345.145 683.844 347.329 683.844ZM352.321 679.536H350.761V681.024H352.321V681.84H350.761V683.508H349.777V677.136H350.761V678.732H352.321V679.536Z" fill="white" fill-opacity="0.6"/>
<path d="M338.104 635H337.084V628.904H334.876V628.088C335.164 628.088 335.444 628.068 335.716 628.028C335.988 627.98 336.232 627.896 336.448 627.776C336.672 627.656 336.86 627.492 337.012 627.284C337.164 627.076 337.268 626.812 337.324 626.492H338.104V635ZM342.36 628.7C342.36 628.932 342.4 629.136 342.48 629.312C342.56 629.48 342.668 629.62 342.804 629.732C342.94 629.844 343.1 629.928 343.284 629.984C343.468 630.04 343.664 630.068 343.872 630.068C344.28 630.068 344.616 629.948 344.88 629.708C345.144 629.468 345.276 629.132 345.276 628.7C345.276 628.268 345.14 627.944 344.868 627.728C344.604 627.504 344.264 627.392 343.848 627.392C343.648 627.392 343.456 627.42 343.272 627.476C343.088 627.532 342.928 627.616 342.792 627.728C342.664 627.84 342.56 627.976 342.48 628.136C342.4 628.296 342.36 628.484 342.36 628.7ZM341.28 628.664C341.28 628.312 341.348 628.004 341.484 627.74C341.62 627.468 341.804 627.24 342.036 627.056C342.268 626.872 342.532 626.732 342.828 626.636C343.132 626.54 343.448 626.492 343.776 626.492C344.24 626.492 344.636 626.556 344.964 626.684C345.292 626.804 345.556 626.968 345.756 627.176C345.964 627.376 346.116 627.608 346.212 627.872C346.308 628.128 346.356 628.392 346.356 628.664C346.356 629.048 346.248 629.4 346.032 629.72C345.824 630.032 345.54 630.268 345.18 630.428C345.692 630.588 346.072 630.852 346.32 631.22C346.568 631.58 346.692 632.024 346.692 632.552C346.692 632.968 346.616 633.336 346.464 633.656C346.32 633.976 346.12 634.248 345.864 634.472C345.616 634.688 345.32 634.852 344.976 634.964C344.632 635.076 344.264 635.132 343.872 635.132C343.464 635.132 343.084 635.08 342.732 634.976C342.38 634.872 342.072 634.712 341.808 634.496C341.552 634.28 341.348 634.012 341.196 633.692C341.052 633.364 340.98 632.984 340.98 632.552C340.98 632.048 341.108 631.612 341.364 631.244C341.62 630.868 341.988 630.596 342.468 630.428C342.108 630.284 341.82 630.052 341.604 629.732C341.388 629.404 341.28 629.048 341.28 628.664ZM342.06 632.6C342.06 633.112 342.228 633.516 342.564 633.812C342.908 634.1 343.344 634.244 343.872 634.244C344.128 634.244 344.36 634.204 344.568 634.124C344.784 634.036 344.968 633.92 345.12 633.776C345.28 633.624 345.4 633.448 345.48 633.248C345.568 633.048 345.612 632.828 345.612 632.588C345.612 632.356 345.564 632.144 345.468 631.952C345.38 631.752 345.256 631.58 345.096 631.436C344.936 631.292 344.748 631.18 344.532 631.1C344.324 631.012 344.1 630.968 343.86 630.968C343.612 630.968 343.376 631.008 343.152 631.088C342.936 631.16 342.744 631.268 342.576 631.412C342.416 631.556 342.288 631.728 342.192 631.928C342.104 632.128 342.06 632.352 342.06 632.6Z" fill="white"/>
<path d="M349.36 625.504C349.336 625.072 349.38 624.672 349.492 624.304C349.604 623.936 349.776 623.62 350.008 623.356C350.248 623.084 350.544 622.872 350.896 622.72C351.248 622.568 351.648 622.492 352.096 622.492C352.464 622.492 352.808 622.548 353.128 622.66C353.456 622.764 353.74 622.92 353.98 623.128C354.22 623.328 354.408 623.58 354.544 623.884C354.688 624.188 354.76 624.54 354.76 624.94C354.76 625.316 354.7 625.648 354.58 625.936C354.468 626.224 354.316 626.484 354.124 626.716C353.932 626.94 353.712 627.144 353.464 627.328C353.216 627.512 352.96 627.688 352.696 627.856C352.432 628.016 352.168 628.176 351.904 628.336C351.64 628.488 351.396 628.652 351.172 628.828C350.956 629.004 350.768 629.196 350.608 629.404C350.456 629.604 350.356 629.836 350.308 630.1H354.676V631H349.12C349.16 630.496 349.248 630.068 349.384 629.716C349.528 629.356 349.708 629.044 349.924 628.78C350.14 628.516 350.384 628.284 350.656 628.084C350.928 627.884 351.212 627.696 351.508 627.52C351.868 627.296 352.184 627.092 352.456 626.908C352.728 626.716 352.952 626.524 353.128 626.332C353.312 626.14 353.448 625.932 353.536 625.708C353.632 625.484 353.68 625.224 353.68 624.928C353.68 624.696 353.636 624.488 353.548 624.304C353.46 624.112 353.34 623.948 353.188 623.812C353.044 623.676 352.872 623.572 352.672 623.5C352.472 623.428 352.26 623.392 352.036 623.392C351.74 623.392 351.484 623.456 351.268 623.584C351.06 623.704 350.888 623.864 350.752 624.064C350.616 624.264 350.516 624.492 350.452 624.748C350.396 624.996 350.372 625.248 350.38 625.504H349.36ZM359.772 631H358.752V624.904H356.544V624.088C356.832 624.088 357.112 624.068 357.384 624.028C357.656 623.98 357.9 623.896 358.116 623.776C358.34 623.656 358.528 623.492 358.68 623.284C358.832 623.076 358.936 622.812 358.992 622.492H359.772V631Z" fill="white"/>
<path d="M325.104 639H324.084V632.904H321.876V632.088C322.164 632.088 322.444 632.068 322.716 632.028C322.988 631.98 323.232 631.896 323.448 631.776C323.672 631.656 323.86 631.492 324.012 631.284C324.164 631.076 324.268 630.812 324.324 630.492H325.104V639ZM333.14 631.536H329.708L329.252 633.984L329.276 634.008C329.46 633.8 329.696 633.648 329.984 633.552C330.28 633.448 330.572 633.396 330.86 633.396C331.236 633.396 331.592 633.456 331.928 633.576C332.264 633.696 332.556 633.88 332.804 634.128C333.052 634.368 333.248 634.672 333.392 635.04C333.536 635.4 333.608 635.824 333.608 636.312C333.608 636.672 333.544 637.024 333.416 637.368C333.296 637.704 333.112 638.004 332.864 638.268C332.616 638.532 332.304 638.744 331.928 638.904C331.56 639.056 331.128 639.132 330.632 639.132C330.264 639.132 329.916 639.08 329.588 638.976C329.268 638.864 328.984 638.708 328.736 638.508C328.488 638.3 328.292 638.044 328.148 637.74C328.004 637.436 327.928 637.092 327.92 636.708H328.94C328.956 636.924 329.008 637.128 329.096 637.32C329.192 637.504 329.316 637.668 329.468 637.812C329.628 637.948 329.812 638.056 330.02 638.136C330.236 638.208 330.472 638.244 330.728 638.244C330.968 638.244 331.196 638.204 331.412 638.124C331.636 638.036 331.828 637.908 331.988 637.74C332.156 637.572 332.288 637.364 332.384 637.116C332.48 636.86 332.528 636.564 332.528 636.228C332.528 635.948 332.48 635.692 332.384 635.46C332.296 635.22 332.168 635.016 332 634.848C331.832 634.672 331.628 634.536 331.388 634.44C331.156 634.344 330.896 634.296 330.608 634.296C330.272 634.296 329.972 634.372 329.708 634.524C329.452 634.668 329.224 634.86 329.024 635.1L328.148 635.052L328.94 630.636H333.14V631.536Z" fill="white"/>
<rect x="375.75" y="661" width="8" height="8" transform="rotate(-90 375.75 661)" fill="#B8B8D2"/>
<rect x="388.75" y="661" width="13" height="8" transform="rotate(-90 388.75 661)" fill="#36F097"/>
<rect x="401.75" y="661" width="13" height="8" transform="rotate(-90 401.75 661)" fill="#1F5CFA"/>
<path d="M388.698 684.484H390.882V678.124H391.866V686.32H390.882V685.216H388.698V684.484ZM386.502 679.288C385.482 679.288 384.786 679.744 384.786 680.428C384.786 681.124 385.482 681.58 386.502 681.58C387.522 681.58 388.218 681.124 388.218 680.428C388.218 679.744 387.522 679.288 386.502 679.288ZM386.502 682.312C384.93 682.312 383.85 681.58 383.85 680.428C383.85 679.3 384.93 678.556 386.502 678.556C388.074 678.556 389.154 679.3 389.154 680.428C389.154 681.58 388.074 682.312 386.502 682.312ZM386.118 685.936V683.86C385.05 683.908 384.018 683.92 383.13 683.92L382.998 683.104C384.99 683.104 387.654 683.08 389.934 682.792L390.018 683.5C389.07 683.644 388.074 683.752 387.102 683.812V685.936H386.118ZM385.518 687.844H392.142V688.648H384.534V685.516H385.518V687.844ZM395.057 683.356L394.685 682.576C396.557 682.3 398.417 681.064 398.417 679.648V679.588H395.021V678.796H402.881V679.588H399.509V679.648C399.509 681.064 401.369 682.3 403.265 682.576L402.881 683.356C401.213 683.068 399.617 682.168 398.969 680.896C398.309 682.168 396.725 683.068 395.057 683.356ZM403.829 684.256L403.841 685.06H399.437V688.888H398.453V685.06H394.109V684.256H403.829Z" fill="white" fill-opacity="0.6"/>
<path d="M390.776 638.7C390.776 638.932 390.816 639.136 390.896 639.312C390.976 639.48 391.084 639.62 391.22 639.732C391.356 639.844 391.516 639.928 391.7 639.984C391.884 640.04 392.08 640.068 392.288 640.068C392.696 640.068 393.032 639.948 393.296 639.708C393.56 639.468 393.692 639.132 393.692 638.7C393.692 638.268 393.556 637.944 393.284 637.728C393.02 637.504 392.68 637.392 392.264 637.392C392.064 637.392 391.872 637.42 391.688 637.476C391.504 637.532 391.344 637.616 391.208 637.728C391.08 637.84 390.976 637.976 390.896 638.136C390.816 638.296 390.776 638.484 390.776 638.7ZM389.696 638.664C389.696 638.312 389.764 638.004 389.9 637.74C390.036 637.468 390.22 637.24 390.452 637.056C390.684 636.872 390.948 636.732 391.244 636.636C391.548 636.54 391.864 636.492 392.192 636.492C392.656 636.492 393.052 636.556 393.38 636.684C393.708 636.804 393.972 636.968 394.172 637.176C394.38 637.376 394.532 637.608 394.628 637.872C394.724 638.128 394.772 638.392 394.772 638.664C394.772 639.048 394.664 639.4 394.448 639.72C394.24 640.032 393.956 640.268 393.596 640.428C394.108 640.588 394.488 640.852 394.736 641.22C394.984 641.58 395.108 642.024 395.108 642.552C395.108 642.968 395.032 643.336 394.88 643.656C394.736 643.976 394.536 644.248 394.28 644.472C394.032 644.688 393.736 644.852 393.392 644.964C393.048 645.076 392.68 645.132 392.288 645.132C391.88 645.132 391.5 645.08 391.148 644.976C390.796 644.872 390.488 644.712 390.224 644.496C389.968 644.28 389.764 644.012 389.612 643.692C389.468 643.364 389.396 642.984 389.396 642.552C389.396 642.048 389.524 641.612 389.78 641.244C390.036 640.868 390.404 640.596 390.884 640.428C390.524 640.284 390.236 640.052 390.02 639.732C389.804 639.404 389.696 639.048 389.696 638.664ZM390.476 642.6C390.476 643.112 390.644 643.516 390.98 643.812C391.324 644.1 391.76 644.244 392.288 644.244C392.544 644.244 392.776 644.204 392.984 644.124C393.2 644.036 393.384 643.92 393.536 643.776C393.696 643.624 393.816 643.448 393.896 643.248C393.984 643.048 394.028 642.828 394.028 642.588C394.028 642.356 393.98 642.144 393.884 641.952C393.796 641.752 393.672 641.58 393.512 641.436C393.352 641.292 393.164 641.18 392.948 641.1C392.74 641.012 392.516 640.968 392.276 640.968C392.028 640.968 391.792 641.008 391.568 641.088C391.352 641.16 391.16 641.268 390.992 641.412C390.832 641.556 390.704 641.728 390.608 641.928C390.52 642.128 390.476 642.352 390.476 642.6Z" fill="white"/>
<path d="M404.354 641H403.334V634.904H401.126V634.088C401.414 634.088 401.694 634.068 401.966 634.028C402.238 633.98 402.482 633.896 402.698 633.776C402.922 633.656 403.11 633.492 403.262 633.284C403.414 633.076 403.518 632.812 403.574 632.492H404.354V641ZM411.022 641H410.002V634.904H407.794V634.088C408.082 634.088 408.362 634.068 408.634 634.028C408.906 633.98 409.15 633.896 409.366 633.776C409.59 633.656 409.778 633.492 409.93 633.284C410.082 633.076 410.186 632.812 410.242 632.492H411.022V641Z" fill="white"/>
<path d="M381.556 641.536H378.124L377.668 643.984L377.692 644.008C377.876 643.8 378.112 643.648 378.4 643.552C378.696 643.448 378.988 643.396 379.276 643.396C379.652 643.396 380.008 643.456 380.344 643.576C380.68 643.696 380.972 643.88 381.22 644.128C381.468 644.368 381.664 644.672 381.808 645.04C381.952 645.4 382.024 645.824 382.024 646.312C382.024 646.672 381.96 647.024 381.832 647.368C381.712 647.704 381.528 648.004 381.28 648.268C381.032 648.532 380.72 648.744 380.344 648.904C379.976 649.056 379.544 649.132 379.048 649.132C378.68 649.132 378.332 649.08 378.004 648.976C377.684 648.864 377.4 648.708 377.152 648.508C376.904 648.3 376.708 648.044 376.564 647.74C376.42 647.436 376.344 647.092 376.336 646.708H377.356C377.372 646.924 377.424 647.128 377.512 647.32C377.608 647.504 377.732 647.668 377.884 647.812C378.044 647.948 378.228 648.056 378.436 648.136C378.652 648.208 378.888 648.244 379.144 648.244C379.384 648.244 379.612 648.204 379.828 648.124C380.052 648.036 380.244 647.908 380.404 647.74C380.572 647.572 380.704 647.364 380.8 647.116C380.896 646.86 380.944 646.564 380.944 646.228C380.944 645.948 380.896 645.692 380.8 645.46C380.712 645.22 380.584 645.016 380.416 644.848C380.248 644.672 380.044 644.536 379.804 644.44C379.572 644.344 379.312 644.296 379.024 644.296C378.688 644.296 378.388 644.372 378.124 644.524C377.868 644.668 377.64 644.86 377.44 645.1L376.564 645.052L377.356 640.636H381.556V641.536Z" fill="white"/>
<rect x="243" y="4.5" width="8" height="8" rx="1" fill="#D9D9D9"/>
<path d="M267.684 7.124V4.412H268.62V14.336H267.684V10.616H265.74V9.812H267.684V7.916H265.908C265.404 9.728 264.24 11.348 262.2 12.56L261.624 11.864C263.94 10.484 265.092 8.552 265.26 6.296H262.104V5.492H266.232C266.232 6.044 266.184 6.584 266.088 7.124H267.684ZM269.844 4.124H270.78V14.876H269.844V4.124ZM279.383 5.108V5.852H273.083V5.108H275.735V4.064H276.719V5.108H279.383ZM274.607 7.856C274.607 8.408 275.255 8.768 276.227 8.768C277.223 8.768 277.859 8.408 277.859 7.856C277.859 7.292 277.223 6.944 276.227 6.944C275.255 6.944 274.607 7.292 274.607 7.856ZM279.647 9.884L279.707 10.58C277.367 10.964 274.799 11 272.867 11L272.723 10.22C273.623 10.22 274.667 10.22 275.735 10.184V9.44C274.475 9.308 273.683 8.72 273.683 7.856C273.683 6.872 274.703 6.248 276.227 6.248C277.775 6.248 278.795 6.872 278.795 7.856C278.795 8.732 277.991 9.32 276.719 9.44V10.136C277.715 10.088 278.711 10.016 279.647 9.884ZM274.271 12.62V11.84H281.483V14.888H280.499V12.62H274.271ZM280.499 4.148H281.483V11.336H280.499V4.148Z" fill="white" fill-opacity="0.6"/>
<rect x="310" y="4.5" width="8" height="8" rx="1" fill="#4FF491"/>
<path d="M329.608 9.812L329.248 9.02C331.192 8.756 333.004 7.58 333.004 6.248H329.584V5.456H333.016V4.124H334V5.456H337.432V6.248H334C334 7.568 335.824 8.756 337.744 9.02L337.396 9.812C335.728 9.56 334.192 8.732 333.508 7.568C332.824 8.732 331.276 9.56 329.608 9.812ZM338.38 10.628V11.432H334V14.9H333.016V11.432H328.648V10.628H338.38ZM345.423 6.92H347.547V4.136H348.543V10.544H347.547V7.724H345.423V6.92ZM346.023 9.368L345.531 10.136C344.331 9.704 343.407 8.816 342.939 7.712C342.483 8.96 341.487 9.968 340.227 10.448L339.711 9.668C341.319 9.08 342.423 7.628 342.423 6.08V5.708H340.023V4.916H345.771V5.708H343.407V6.08C343.407 7.46 344.463 8.816 346.023 9.368ZM344.991 14.12C346.611 14.12 347.595 13.664 347.595 12.884C347.595 12.104 346.611 11.636 344.991 11.636C343.371 11.636 342.387 12.104 342.387 12.884C342.387 13.664 343.371 14.12 344.991 14.12ZM344.991 10.88C347.199 10.88 348.579 11.612 348.579 12.884C348.579 14.156 347.199 14.888 344.991 14.888C342.783 14.888 341.403 14.156 341.403 12.884C341.403 11.612 342.783 10.88 344.991 10.88Z" fill="white" fill-opacity="0.6"/>
<rect x="377" y="4.5" width="8" height="8" rx="1" fill="#1F5CFA"/>
<path d="M404.456 4.136V9.704H403.472V4.136H404.456ZM402.152 8.624L401.66 9.392C400.424 8.96 399.44 8.06 398.948 6.92C398.48 8.156 397.484 9.14 396.212 9.596L395.708 8.828C397.328 8.264 398.444 6.824 398.444 5.264V4.448H399.428V5.264C399.428 6.752 400.556 8.096 402.152 8.624ZM398.492 13.988H404.828V14.768H397.52V12.092H403.496V11.012H397.496V10.244H404.468V12.836H398.492V13.988ZM413.023 9.38L412.531 10.148C411.331 9.716 410.407 8.828 409.927 7.712C409.471 8.948 408.487 9.932 407.227 10.4L406.711 9.62C408.307 9.056 409.423 7.616 409.423 6.092V5.66H407.023V4.856H412.771V5.66H410.407V6.092C410.407 7.472 411.463 8.828 413.023 9.38ZM408.343 11.948V11.156H415.543V14.9H414.547V11.948H408.343ZM414.547 4.124H415.543V10.568H414.547V7.736H412.447V6.932H414.547V4.124Z" fill="white" fill-opacity="0.6"/>
</svg>
