<svg width="179" height="44" viewBox="0 0 179 44" fill="none" xmlns="http://www.w3.org/2000/svg">
<g clip-path="url(#clip0_189_3721)">
<path d="M89.4359 26.3662H83.312V30.7359H88.4502V33.4214H83.312V40.236H80.4636V23.6885H89.4359V26.3662Z" fill="white"/>
<path d="M91.8031 38.676C90.5535 37.4497 89.9326 35.9284 89.9326 34.0967C89.9326 32.265 90.5535 30.7593 91.8031 29.5329C93.045 28.3144 94.605 27.709 96.4756 27.709C98.3461 27.709 99.8906 28.3144 101.148 29.5329C102.398 30.7593 103.019 32.2883 103.019 34.0967C103.019 35.9051 102.398 37.4497 101.148 38.676C99.8906 39.9023 98.3383 40.5155 96.4756 40.5155C94.6128 40.5155 93.045 39.9023 91.8031 38.676ZM96.4756 37.9154C97.5389 37.9154 98.4392 37.5506 99.1533 36.8288C99.8673 36.0992 100.232 35.1911 100.232 34.0967C100.232 33.0023 99.8673 32.1098 99.1533 31.3802C98.4392 30.6506 97.5389 30.2936 96.4756 30.2936C95.4122 30.2936 94.5041 30.6584 93.7823 31.3802C93.045 32.1098 92.6802 33.0101 92.6802 34.0967C92.6802 35.1833 93.045 36.0992 93.7823 36.8288C94.5119 37.5583 95.4122 37.9154 96.4756 37.9154Z" fill="white"/>
<path d="M105.859 38.676C104.61 37.4497 103.989 35.9284 103.989 34.0967C103.989 32.265 104.61 30.7593 105.859 29.5329C107.101 28.3144 108.661 27.709 110.532 27.709C112.402 27.709 113.947 28.3144 115.204 29.5329C116.454 30.7593 117.075 32.2883 117.075 34.0967C117.075 35.9051 116.454 37.4497 115.204 38.676C113.947 39.9023 112.394 40.5155 110.532 40.5155C108.669 40.5155 107.101 39.9023 105.859 38.676ZM110.532 37.9154C111.595 37.9154 112.495 37.5506 113.209 36.8288C113.923 36.0992 114.288 35.1911 114.288 34.0967C114.288 33.0023 113.923 32.1098 113.209 31.3802C112.495 30.6506 111.595 30.2936 110.532 30.2936C109.468 30.2936 108.56 30.6584 107.838 31.3802C107.101 32.1098 106.736 33.0101 106.736 34.0967C106.736 35.1833 107.101 36.0992 107.838 36.8288C108.568 37.5583 109.468 37.9154 110.532 37.9154Z" fill="white"/>
<path d="M128.383 22.9512H131.076V40.2205H128.383V38.3267C127.32 39.7781 125.892 40.5077 124.099 40.5155C122.376 40.5155 120.94 39.9023 119.799 38.676C118.65 37.4497 118.076 35.9284 118.076 34.0967C118.076 32.265 118.65 30.7593 119.799 29.5329C120.932 28.3144 122.376 27.709 124.099 27.709C125.822 27.709 127.32 28.4386 128.383 29.89V22.9589V22.9512ZM127.304 36.8288C128.018 36.0992 128.383 35.1911 128.383 34.0967C128.383 33.0023 128.018 32.1098 127.304 31.3802C126.59 30.6506 125.69 30.2936 124.619 30.2936C123.548 30.2936 122.632 30.6584 121.918 31.3802C121.188 32.1098 120.831 33.0101 120.831 34.0967C120.831 35.1833 121.196 36.0992 121.918 36.8288C122.632 37.5583 123.532 37.9154 124.619 37.9154C125.705 37.9154 126.59 37.5506 127.304 36.8288Z" fill="white"/>
<path d="M134.072 39.3823C133.25 38.6294 132.846 37.7213 132.846 36.627H135.57C135.57 37.0616 135.733 37.4264 136.052 37.7291C136.37 38.0318 136.766 38.187 137.223 38.187C137.681 38.187 138.023 38.0551 138.333 37.8145C138.636 37.5661 138.791 37.2556 138.791 36.8908C138.791 36.1302 138.062 35.5559 136.626 35.1678C134.212 34.5546 133.009 33.305 133.009 31.3957C133.009 30.2625 133.405 29.3699 134.212 28.7025C135.011 28.035 135.989 27.709 137.154 27.709C138.318 27.709 139.358 28.0738 140.165 28.7878C140.957 29.5019 141.36 30.3789 141.36 31.419H138.621C138.621 30.6584 138.007 30.0374 137.13 30.0374C136.37 30.0374 135.733 30.5652 135.733 31.2327C135.733 31.9933 136.471 32.5677 137.945 32.9325C140.32 33.5379 141.516 34.7797 141.516 36.658C141.516 37.8378 141.104 38.7924 140.289 39.4832C139.459 40.174 138.427 40.5232 137.2 40.5232C135.974 40.5232 134.895 40.1507 134.072 39.3901V39.3823Z" fill="white"/>
<path d="M85.2912 16.5167C83.5915 16.5167 82.1711 16.0355 81.0379 15.0731C79.8892 14.1184 79.3149 12.9231 79.3149 11.5028H83.5682C83.5682 11.9297 83.7467 12.31 84.0804 12.6049C84.422 12.8998 84.8566 13.0551 85.3611 13.0551C85.819 13.0551 86.2149 12.9309 86.5486 12.7058C86.8668 12.473 87.0298 12.1858 87.0298 11.8443C87.0298 11.1069 86.114 10.5248 84.29 10.0824C81.1388 9.32178 79.5632 7.66082 79.5632 5.11505C79.5632 3.78007 80.0988 2.66241 81.1932 1.75431C82.2798 0.853976 83.6458 0.403809 85.2757 0.403809C86.9056 0.403809 88.3027 0.869499 89.4048 1.7776C90.4915 2.69345 91.0425 3.8344 91.0425 5.21595H86.8125C86.8125 4.43203 86.1528 3.86544 85.2524 3.86544C84.4219 3.86544 83.7855 4.33889 83.7855 4.96758C83.7855 5.80582 84.6781 6.2327 86.3313 6.68287C87.7051 7.02438 88.6753 7.42021 89.7075 8.15756C90.7243 8.8949 91.2754 10.0979 91.2754 11.5959C91.2754 12.993 90.701 14.165 89.5601 15.0963C88.4114 16.0433 86.991 16.5167 85.2912 16.5167Z" fill="white"/>
<path d="M103.213 16.2217H99.7742V15.1584C98.9592 16.0665 97.8338 16.5166 96.429 16.5166C95.2027 16.5166 94.1859 16.1363 93.371 15.3679C92.556 14.6151 92.1524 13.6682 92.1524 12.5195C92.1524 11.3708 92.5638 10.4549 93.3787 9.68652C94.1937 8.93365 95.2104 8.55334 96.429 8.55334H99.2852V7.44344H93.0683V3.88867H103.205V16.2295L103.213 16.2217ZM99.2852 12.372V11.2388H97.5932C96.786 11.2388 96.1884 11.7433 96.1884 12.4186C96.1884 13.0938 96.7938 13.6371 97.5932 13.6371C98.5479 13.6371 99.2852 13.0783 99.2852 12.372Z" fill="white"/>
<path d="M124.696 6.15503V16.2217H120.785V7.67629H116.912V16.2217H112.984V7.67629H109.088V16.2217H105.176V3.88867H122.43C123.687 3.88867 124.704 4.90543 124.704 6.16279L124.696 6.15503Z" fill="white"/>
<path d="M134.872 3.88867H139.241L132.497 20.8243H127.39V17.2462H129.741L130.246 16.0432L125.403 3.89643H129.858L132.373 11.1302L134.864 3.89643L134.872 3.88867Z" fill="white"/>
<path d="M150.209 16.2217H146.77V15.1584C145.955 16.0665 144.83 16.5166 143.425 16.5166C142.199 16.5166 141.182 16.1363 140.367 15.3679C139.552 14.6151 139.148 13.6682 139.148 12.5195C139.148 11.3708 139.56 10.4549 140.375 9.68652C141.19 8.93365 142.206 8.55334 143.425 8.55334H146.281V7.44344H140.064V3.88867H150.201V16.2295L150.209 16.2217ZM146.281 12.372V11.2388H144.589C143.782 11.2388 143.184 11.7433 143.184 12.4186C143.184 13.0938 143.79 13.6371 144.589 13.6371C145.544 13.6371 146.281 13.0783 146.281 12.372Z" fill="white"/>
<path d="M164.296 6.15503V16.2217H160.376V7.67629H156.084V16.2217H152.172V3.88867H162.022C163.279 3.88867 164.296 4.90543 164.296 6.16279V6.15503Z" fill="white"/>
<path d="M174.991 3.88869H178.918V20.8243H166.888V17.2462H174.999V14.6617C174.075 15.5853 172.934 16.0432 171.56 16.0432C169.884 16.0432 168.487 15.4533 167.361 14.2581C166.236 13.0783 165.669 11.5959 165.669 9.81072C165.669 8.02557 166.236 6.55865 167.361 5.36337C168.487 4.18362 169.876 3.59375 171.56 3.59375C172.934 3.59375 174.075 4.05168 174.999 4.9753V3.88869H174.991ZM174.238 11.7201C174.743 11.2156 174.991 10.5713 174.991 9.80296C174.991 9.03457 174.743 8.40589 174.246 7.90139C173.741 7.39689 173.113 7.14852 172.352 7.14852C171.591 7.14852 170.955 7.39689 170.451 7.90139C169.946 8.40589 169.682 9.05009 169.682 9.80296C169.682 10.5558 169.938 11.2078 170.451 11.7201C170.955 12.2401 171.599 12.4962 172.352 12.4962C173.105 12.4962 173.726 12.2401 174.23 11.7201H174.238Z" fill="white"/>
<path d="M26.6763 22.004C26.6763 14.5296 30.4018 7.93234 36.0988 3.95068H0V40.0495H36.0988C30.4018 36.0756 26.6763 29.4705 26.6763 21.9962" fill="#EC631A"/>
<path d="M48.6802 0C44 0 39.669 1.45916 36.0988 3.95061V40.0494C39.6613 42.5408 44 44 48.6802 44C60.8347 44 70.684 34.1506 70.684 21.9961C70.684 9.84159 60.8269 0 48.6802 0Z" fill="#EC631A"/>
<path d="M36.0988 3.95068C30.4019 7.92458 26.6763 14.5296 26.6763 22.004C26.6763 29.4783 30.4019 36.0756 36.0988 40.0572V3.95068Z" fill="white"/>
</g>
<defs>
<clipPath id="clip0_189_3721">
<rect width="178.918" height="44" fill="white"/>
</clipPath>
</defs>
</svg>
